<?xml version="1.0" encoding="UTF-8"?>
<!DOCTYPE svg PUBLIC "-//W3C//DTD SVG 1.1//EN" "http://www.w3.org/Graphics/SVG/1.1/DTD/svg11.dtd">
<!-- Creator: CorelDRAW 2019 (64-Bit) -->
<svg xmlns="http://www.w3.org/2000/svg" xml:space="preserve" width="0.166661in" height="0.166661in" version="1.1" style="shape-rendering:geometricPrecision; text-rendering:geometricPrecision; image-rendering:optimizeQuality; fill-rule:evenodd; clip-rule:evenodd"
viewBox="0 0 166.66 166.66"
 xmlns:xlink="http://www.w3.org/1999/xlink"
 xmlns:xodm="http://www.corel.com/coreldraw/odm/2003">
 <defs>
  <style type="text/css">
   <![CDATA[
    .fil0 {fill:none}
    .fil1 {fill:#FBB457;fill-rule:nonzero}
   ]]>
  </style>
 </defs>
 <g id="Layer_x0020_1">
  <metadata id="CorelCorpID_0Corel-Layer"/>
  <rect class="fil0" x="-0.01" y="-0" width="166.67" height="166.67"/>
  <g id="_2315011414528">
   <g>
    <path class="fil1" d="M21.04 55.9l0 110.76 124.57 0 0 -166.66 -68.2 0 -56.37 55.9zm58.48 2.59l-0.12 -50.78 58.51 0 0 151.26 -109.18 0 0 -100.5 50.78 0.02z"/>
    <polygon class="fil1" points="39.74,87.87 124.17,87.87 124.17,81.13 39.74,81.13 "/>
    <polygon class="fil1" points="39.74,111.24 124.17,111.24 124.17,104.5 39.74,104.5 "/>
    <polygon class="fil1" points="39.74,134.62 124.17,134.62 124.17,127.88 39.74,127.88 "/>
   </g>
   <g>
    <path class="fil1" d="M108.74 56.54c-10.99,0 -19.93,-8.94 -19.93,-19.92 0,-10.99 8.94,-19.92 19.93,-19.92 10.98,0 19.92,8.93 19.92,19.92 0,10.98 -8.94,19.92 -19.92,19.92zm0 -42.81c-6.69,0 -12.72,2.88 -16.91,7.47 -3.72,4.07 -5.98,9.49 -5.98,15.42 0,12.62 10.27,22.89 22.89,22.89 5.93,0 11.35,-2.27 15.42,-5.99 4.59,-4.19 7.47,-10.21 7.47,-16.9 0,-12.63 -10.27,-22.89 -22.89,-22.89z"/>
    <path class="fil1" d="M113.1 48.88l-8.45 0 0 -0.68c0.59,0 1.06,-0.04 1.41,-0.13 0.35,-0.08 0.62,-0.25 0.81,-0.49 0.19,-0.25 0.31,-0.58 0.35,-1.01 0.05,-0.43 0.07,-0.97 0.07,-1.63l0 -6.69c0,-1.1 -0.02,-1.97 -0.06,-2.61 -0.04,-0.65 -0.1,-1.13 -0.2,-1.43 -0.09,-0.31 -0.22,-0.52 -0.41,-0.6 -0.18,-0.08 -0.41,-0.13 -0.69,-0.13 -0.19,0 -0.39,0.02 -0.59,0.07 -0.2,0.04 -0.43,0.12 -0.7,0.2l-0.28 -0.67 5.24 -2.13 0.85 0 0 13.98c0,0.84 0.05,1.47 0.15,1.92 0.1,0.44 0.25,0.76 0.46,0.96 0.22,0.2 0.5,0.31 0.82,0.35 0.33,0.02 0.74,0.04 1.2,0.04l0 0.68zm-5.59 -23.97c0.37,-0.37 0.82,-0.56 1.37,-0.56 0.55,0 1,0.18 1.37,0.56 0.37,0.37 0.56,0.83 0.56,1.37 0,0.52 -0.19,0.98 -0.56,1.36 -0.37,0.37 -0.82,0.57 -1.37,0.57 -0.55,0 -1,-0.19 -1.37,-0.57 -0.37,-0.38 -0.56,-0.84 -0.56,-1.36 0,-0.55 0.19,-1.01 0.56,-1.37zm1.23 -5.32c-9.41,0 -17.03,7.63 -17.03,17.03 0,9.4 7.62,17.03 17.03,17.03 9.41,0 17.03,-7.63 17.03,-17.03 0,-9.41 -7.62,-17.03 -17.03,-17.03z"/>
   </g>
  </g>
 </g>
</svg>
