<?xml version="1.0" encoding="UTF-8"?>
<!DOCTYPE svg PUBLIC "-//W3C//DTD SVG 1.1//EN" "http://www.w3.org/Graphics/SVG/1.1/DTD/svg11.dtd">
<!-- Creator: CorelDRAW 2019 (64-Bit) -->
<svg xmlns="http://www.w3.org/2000/svg" xml:space="preserve" width="0.166661in" height="0.166661in" version="1.1" style="shape-rendering:geometricPrecision; text-rendering:geometricPrecision; image-rendering:optimizeQuality; fill-rule:evenodd; clip-rule:evenodd"
viewBox="0 0 166.66 166.66"
 xmlns:xlink="http://www.w3.org/1999/xlink"
 xmlns:xodm="http://www.corel.com/coreldraw/odm/2003">
 <defs>
  <style type="text/css">
   <![CDATA[
    .fil0 {fill:none}
    .fil1 {fill:#FBB457;fill-rule:nonzero}
   ]]>
  </style>
 </defs>
 <g id="Layer_x0020_1">
  <metadata id="CorelCorpID_0Corel-Layer"/>
  <g id="_2315243779440">
   <rect class="fil0" x="-0.01" y="-0" width="166.67" height="166.67"/>
   <g>
    <g>
     <path class="fil1" d="M141.8 145.31c-2.48,0 -4.48,-2.01 -4.48,-4.48 0,-2.48 2.01,-4.48 4.48,-4.48 8.76,0 15.89,-7.13 15.89,-15.89 0,-2.48 2.01,-4.48 4.48,-4.48 2.48,0 4.48,2.01 4.48,4.48 0,13.7 -11.15,24.85 -24.86,24.85z"/>
    </g>
    <g>
     <path class="fil1" d="M24.86 145.31c-13.7,0 -24.85,-11.15 -24.85,-24.85 0,-2.48 2.01,-4.48 4.48,-4.48 2.48,0 4.48,2.01 4.48,4.48 0,8.76 7.13,15.89 15.89,15.89 2.48,0 4.48,2.01 4.48,4.48 0,2.48 -2.01,4.48 -4.48,4.48z"/>
    </g>
    <g>
     <path class="fil1" d="M4.49 50.7c-2.48,0 -4.48,-2.01 -4.48,-4.48 0,-13.71 11.15,-24.86 24.85,-24.86 2.48,0 4.48,2 4.48,4.48 0,2.48 -2.01,4.48 -4.48,4.48 -8.76,0 -15.89,7.13 -15.89,15.9 0,2.48 -2.01,4.48 -4.48,4.48z"/>
    </g>
    <g>
     <path class="fil1" d="M162.18 50.7c-2.48,0 -4.48,-2.01 -4.48,-4.48 0,-8.77 -7.13,-15.9 -15.89,-15.9 -2.48,0 -4.48,-2 -4.48,-4.48 0,-2.48 2.01,-4.48 4.48,-4.48 13.71,0 24.86,11.15 24.86,24.86 0,2.48 -2.01,4.48 -4.48,4.48z"/>
    </g>
    <g>
     <path class="fil1" d="M162.18 124.94c-2.48,0 -4.48,-2.01 -4.48,-4.48l0 -74.24c0,-2.48 2.01,-4.48 4.48,-4.48 2.48,0 4.48,2.01 4.48,4.48l0 74.24c0,2.48 -2.01,4.48 -4.48,4.48z"/>
    </g>
    <g>
     <path class="fil1" d="M141.8 145.31l-116.94 0c-2.48,0 -4.48,-2.01 -4.48,-4.48 0,-2.48 2.01,-4.48 4.48,-4.48l116.94 0c2.48,0 4.48,2.01 4.48,4.48 0,2.48 -2.01,4.48 -4.48,4.48z"/>
    </g>
    <g>
     <path class="fil1" d="M4.49 124.94c-2.48,0 -4.48,-2.01 -4.48,-4.48l0 -74.24c0,-2.48 2.01,-4.48 4.48,-4.48 2.48,0 4.48,2.01 4.48,4.48l0 74.24c0,2.48 -2.01,4.48 -4.48,4.48z"/>
    </g>
    <g>
     <path class="fil1" d="M141.8 30.32l-116.94 0c-2.48,0 -4.48,-2 -4.48,-4.48 0,-2.48 2.01,-4.48 4.48,-4.48l116.94 0c2.48,0 4.48,2 4.48,4.48 0,2.48 -2.01,4.48 -4.48,4.48z"/>
    </g>
    <g>
     <path class="fil1" d="M162.18 55.61l-157.69 0c-1.24,0 -2.24,-1 -2.24,-2.24 0,-1.24 1,-2.24 2.24,-2.24l157.69 0c1.24,0 2.24,1 2.24,2.24 0,1.24 -1,2.24 -2.24,2.24z"/>
    </g>
    <g>
     <path class="fil1" d="M162.18 74.15l-157.69 0c-1.24,0 -2.24,-1 -2.24,-2.24 0,-1.24 1,-2.24 2.24,-2.24l157.69 0c1.24,0 2.24,1 2.24,2.24 0,1.24 -1,2.24 -2.24,2.24z"/>
    </g>
    <g>
     <path class="fil1" d="M43.87 85.57l-25.48 0c-1.24,0 -2.24,-1 -2.24,-2.24 0,-1.24 1,-2.24 2.24,-2.24l25.48 0c1.24,0 2.24,1 2.24,2.24 0,1.24 -1,2.24 -2.24,2.24z"/>
    </g>
   </g>
  </g>
 </g>
</svg>
