<?xml version="1.0" encoding="UTF-8"?>
<!DOCTYPE svg PUBLIC "-//W3C//DTD SVG 1.1//EN" "http://www.w3.org/Graphics/SVG/1.1/DTD/svg11.dtd">
<!-- Creator: CorelDRAW 2019 (64-Bit) -->
<svg xmlns="http://www.w3.org/2000/svg" xml:space="preserve" width="0.166661in" height="0.166661in" version="1.1" style="shape-rendering:geometricPrecision; text-rendering:geometricPrecision; image-rendering:optimizeQuality; fill-rule:evenodd; clip-rule:evenodd"
viewBox="0 0 166.66 166.66"
 xmlns:xlink="http://www.w3.org/1999/xlink"
 xmlns:xodm="http://www.corel.com/coreldraw/odm/2003">
 <defs>
  <style type="text/css">
   <![CDATA[
    .fil0 {fill:none}
    .fil1 {fill:#FBB457;fill-rule:nonzero}
   ]]>
  </style>
 </defs>
 <g id="Camada_x0020_1">
  <metadata id="CorelCorpID_0Corel-Layer"/>
  <rect class="fil0" x="-0.01" y="-0" width="166.67" height="166.67"/>
  <g id="_2315069169168">
   <path class="fil1" d="M157.81 135.66c0,12.21 -9.93,22.14 -22.15,22.14l-104.67 0c-12.21,0 -22.14,-9.93 -22.14,-22.14l0 -104.66c0,-12.21 9.93,-22.15 22.14,-22.15l104.67 0c12.21,0 22.15,9.94 22.15,22.15l0 104.66zm-22.15 -135.67l-104.67 0c-17.09,0 -31,13.9 -31,31l0 104.66c0,17.08 13.91,31 31,31l104.67 0c17.09,0 31,-13.92 31,-31l0 -104.66c0,-17.1 -13.91,-31 -31,-31z"/>
   <path class="fil1" d="M134.35 38l-63.62 0c-2.44,0 -4.43,1.98 -4.43,4.44 0,2.44 1.98,4.42 4.43,4.42l63.62 0c2.44,0 4.43,-1.98 4.43,-4.42 0,-2.46 -1.98,-4.44 -4.43,-4.44z"/>
   <path class="fil1" d="M134.35 78.22l-63.62 0c-2.44,0 -4.43,1.98 -4.43,4.42 0,2.46 1.98,4.44 4.43,4.44l63.62 0c2.44,0 4.43,-1.98 4.43,-4.44 0,-2.44 -1.98,-4.42 -4.43,-4.42z"/>
   <path class="fil1" d="M134.35 118.43l-63.62 0c-2.44,0 -4.43,1.98 -4.43,4.42 0,2.46 1.98,4.44 4.43,4.44l63.62 0c2.44,0 4.43,-1.98 4.43,-4.44 0,-2.44 -1.98,-4.42 -4.43,-4.42z"/>
   <path class="fil1" d="M56.32 43.54c-2.45,0 -4.43,1.98 -4.43,4.42l0 2.07 -15.15 0 0 -11.59c0,-2.44 -1.98,-4.42 -4.43,-4.42 -2.44,0 -4.43,1.98 -4.43,4.42l0 16.01c0,2.44 1.98,4.42 4.43,4.42l24.01 0c2.44,0 4.43,-1.98 4.43,-4.42l0 -6.48c0,-2.44 -1.98,-4.42 -4.43,-4.42z"/>
   <path class="fil1" d="M51.89 90.22l-15.15 0 0 -15.14 15.15 0 0 15.14zm4.43 -24l-24.01 0c-2.44,0 -4.43,1.98 -4.43,4.44l0 24c0,2.44 1.98,4.42 4.43,4.42l24.01 0c2.44,0 4.43,-1.98 4.43,-4.42l0 -24c0,-2.46 -1.98,-4.44 -4.43,-4.44z"/>
   <path class="fil1" d="M51.89 130.44l-15.15 0 0 -15.14 15.15 0 0 15.14zm4.43 -24l-24.01 0c-2.44,0 -4.43,1.98 -4.43,4.42l0 24c0,2.46 1.98,4.44 4.43,4.44l24.01 0c2.44,0 4.43,-1.98 4.43,-4.44l0 -24c0,-2.44 -1.98,-4.42 -4.43,-4.42z"/>
   <path class="fil1" d="M61 10.14c-2.26,-0.93 -4.85,0.14 -5.78,2.42l-8.38 20.3 -4.2 -9.46c-0.99,-2.23 -3.61,-3.24 -5.85,-2.25 -2.23,0.99 -3.24,3.59 -2.25,5.85l8.39 18.92c0.71,1.61 2.3,2.64 4.05,2.64 0.02,0 0.04,0 0.06,0 1.77,-0.04 3.36,-1.11 4.04,-2.75l12.32 -29.89c0.93,-2.25 -0.14,-4.85 -2.41,-5.78z"/>
  </g>
 </g>
</svg>
