<?xml version="1.0" encoding="UTF-8"?>
<!DOCTYPE svg PUBLIC "-//W3C//DTD SVG 1.1//EN" "http://www.w3.org/Graphics/SVG/1.1/DTD/svg11.dtd">
<!-- Creator: CorelDRAW 2019 (64-Bit) -->
<svg xmlns="http://www.w3.org/2000/svg" xml:space="preserve" width="0.166661in" height="0.166661in" version="1.1" style="shape-rendering:geometricPrecision; text-rendering:geometricPrecision; image-rendering:optimizeQuality; fill-rule:evenodd; clip-rule:evenodd"
viewBox="0 0 166.66 166.66"
 xmlns:xlink="http://www.w3.org/1999/xlink"
 xmlns:xodm="http://www.corel.com/coreldraw/odm/2003">
 <defs>
  <style type="text/css">
   <![CDATA[
    .fil0 {fill:none}
    .fil1 {fill:#FBB457}
   ]]>
  </style>
 </defs>
 <g id="Camada_x0020_1">
  <metadata id="CorelCorpID_0Corel-Layer"/>
  <g id="_2315069138768">
   <rect class="fil0" x="-0" y="-0.01" width="166.67" height="166.67"/>
   <g>
    <path class="fil1" d="M49.59 130.91l0 0c-4.52,0.31 -6.75,0.61 -10.93,0.94 0,-4.18 0,-6.44 0,-10.59 4.49,-0.36 6.41,-0.67 10.93,-0.98 0,4.16 0,6.11 0,10.63l0 0zm-11.26 -10.01l0 0c0,4.52 0,6.77 0,11.29 4.52,-0.33 6.75,-0.67 11.6,-1.28 0,-4.52 0,-6.47 0,-10.96 -4.52,0.33 -6.77,0.65 -11.6,0.95l0 0zm40.57 6.77l0 0c-4.19,0.31 -6.11,0.64 -10.62,0.98 0,-4.21 0,-6.13 0,-10.31 4.18,-0.31 6.44,-0.31 10.62,-0.98 0,4.21 0,6.11 0,10.31l0 0zm-10.93 -9.34l0 0c0,4.18 0,6.11 0.31,10.62 4.18,-0.31 6.44,-0.65 10.95,-0.98 0,-4.52 0,-6.72 0,-10.93 -4.52,0.66 -6.77,0.66 -11.26,1.28l0 0zm9.98 8.06l0 0c-3.23,0.31 -5.16,0.62 -8.39,0.98 0,0.31 0,0.31 0,0.61 3.23,-0.31 5.15,-0.61 8.39,-0.97 0,-0.31 0,-0.31 0,-0.62l0 0zm-2.26 -0.33l0 0c0.31,0 0.64,0 0.64,0 0,-1.92 0,-2.89 0,-4.8 0.64,0 0.97,0 1.61,0 -0.64,-1.31 -1.31,-1.95 -1.95,-2.93 -0.64,1.28 -0.95,1.95 -1.59,3.23 0.64,-0.31 0.95,-0.31 1.28,-0.31 0,1.9 0,2.87 0,4.8l0 0zm-4.82 0.33c0.31,0 0.31,0 0.64,0 0,-1.95 0,-2.93 0,-4.82 0.64,0 0.95,0 1.59,0 -0.64,-0.97 -1.28,-1.62 -1.92,-2.9 -0.64,1.28 -0.95,1.93 -1.61,3.21 0.33,0 0.66,0 1.31,0 0,1.59 0,2.56 0,4.51l0 0zm-6.47 2.9l0 0c-4.18,0.31 -6.41,0.64 -10.93,0.95 0.31,-4.19 0.31,-6.42 0.31,-10.29 4.21,-0.64 6.44,-0.64 10.62,-0.95 0,3.85 0,5.78 0,10.29l0 0zm-10.93 -9.67l0 0c0,4.2 0,6.44 -0.33,10.93 4.85,-0.3 7.08,-0.61 11.6,-1.25 0,-4.52 0,-6.44 0,-10.62 -4.52,0.33 -6.74,0.64 -11.26,0.95l0 0zm5.16 5.8c0,1.28 0,1.59 0,2.89 -0.97,0 -1.31,0 -2.26,0 0,0.34 0,0.34 0,0.65 2.26,0 3.2,-0.31 5.15,-0.31 0,-0.34 0,-0.67 0,-0.67 -0.97,0 -1.31,0 -2.26,0 0,-0.97 0,-1.59 0,-2.56 1.59,-0.31 2.57,-1.59 2.57,-3.21l0 -2.26c-2.26,0.33 -3.54,0.33 -5.8,0.65l0 2.26c0,1.59 0.97,2.57 2.59,2.57l0 0zm-14.83 4.18c0,0.33 -0.3,0.64 -0.64,0.64 -0.31,0 -0.31,-0.31 -0.31,-0.64 0,0 0,0 0,-0.31 0,-0.33 -0.33,-0.33 -0.33,-0.33 -0.31,0 -0.64,0.33 -0.64,0.33 0,0.31 0,0.31 0,0.64 0,0.61 0.64,0.98 1.28,0.98 0.64,0 1.28,-0.67 1.28,-1.31 0,-1.29 0,-2.23 0,-3.54 1.61,0 2.59,-0.31 4.51,-0.31 -0.33,-2.28 -2.26,-3.54 -4.51,-3.54 0,0 0,0 0,-0.33 0,-0.31 -0.31,-0.31 -0.31,-0.31 -0.33,0 -0.33,0.31 -0.33,0.31 0,0.33 0,0.33 0,0.64 -2.26,0.33 -3.85,1.93 -4.18,4.19 1.61,-0.31 2.59,-0.31 4.18,-0.65 0,1.62 0,2.26 0,3.54l0 0zm-43.79 -46.31l45.74 -2.26 36.05 1.95 -0.31 0 -47.03 2.57 -33.81 -2.26 -0.64 0zm34.15 2.9l0 51.13 -34.15 -6.1 0 -47.28 34.15 2.26zm47.64 -2.59l0 48.26 -47.34 5.78 0.33 0 0 -51.44 13.52 -0.64 0.31 13.83 1.61 -2.59 1.93 2.59 0.97 -2.59 1.62 2.26 0.95 -2.57 1.62 2.57 0.97 -2.87 1.28 2.57 0 -13.85 22.22 -1.28z"/>
    <path class="fil1" d="M134.46 130.91l0 0c-4.52,0.31 -6.75,0.61 -10.93,0.94 0,-4.18 0,-6.44 0,-10.59 4.49,-0.36 6.41,-0.67 10.93,-0.98 0,4.16 0,6.11 0,10.63l0 0zm-11.26 -10.01l0 0c0,4.52 0,6.77 0,11.29 4.52,-0.33 6.75,-0.67 11.6,-1.28 0,-4.52 0,-6.47 0,-10.96 -4.52,0.33 -6.77,0.65 -11.6,0.95l0 0zm40.57 6.77l0 0c-4.19,0.31 -6.11,0.64 -10.62,0.98 0,-4.21 0,-6.13 0,-10.31 4.18,-0.31 6.44,-0.31 10.62,-0.98 0,4.21 0,6.11 0,10.31l0 0zm-10.93 -9.34l0 0c0,4.18 0,6.11 0.31,10.62 4.18,-0.31 6.44,-0.65 10.95,-0.98 0,-4.52 0,-6.72 0,-10.93 -4.52,0.66 -6.77,0.66 -11.26,1.28l0 0zm9.98 8.06l0 0c-3.23,0.31 -5.16,0.62 -8.39,0.98 0,0.31 0,0.31 0,0.61 3.23,-0.31 5.15,-0.61 8.39,-0.97 0,-0.31 0,-0.31 0,-0.62l0 0zm-2.26 -0.33l0 0c0.31,0 0.64,0 0.64,0 0,-1.92 0,-2.89 0,-4.8 0.64,0 0.97,0 1.61,0 -0.64,-1.31 -1.31,-1.95 -1.95,-2.93 -0.64,1.28 -0.95,1.95 -1.59,3.23 0.64,-0.31 0.95,-0.31 1.28,-0.31 0,1.9 0,2.87 0,4.8l0 0zm-4.82 0.33c0.31,0 0.31,0 0.64,0 0,-1.95 0,-2.93 0,-4.82 0.64,0 0.95,0 1.59,0 -0.64,-0.97 -1.28,-1.62 -1.92,-2.9 -0.64,1.28 -0.95,1.93 -1.61,3.21 0.33,0 0.66,0 1.31,0 0,1.59 0,2.56 0,4.51l0 0zm-6.47 2.9l0 0c-4.18,0.31 -6.41,0.64 -10.93,0.95 0.31,-4.19 0.31,-6.42 0.31,-10.29 4.21,-0.64 6.44,-0.64 10.62,-0.95 0,3.85 0,5.78 0,10.29l0 0zm-10.93 -9.67l0 0c0,4.2 0,6.44 -0.33,10.93 4.85,-0.3 7.08,-0.61 11.6,-1.25 0,-4.52 0,-6.44 0,-10.62 -4.52,0.33 -6.74,0.64 -11.26,0.95l0 0zm5.16 5.8c0,1.28 0,1.59 0,2.89 -0.97,0 -1.31,0 -2.26,0 0,0.34 0,0.34 0,0.65 2.26,0 3.2,-0.31 5.15,-0.31 0,-0.34 0,-0.67 0,-0.67 -0.97,0 -1.31,0 -2.26,0 0,-0.97 0,-1.59 0,-2.56 1.59,-0.31 2.57,-1.59 2.57,-3.21l0 -2.26c-2.26,0.33 -3.54,0.33 -5.8,0.65l0 2.26c0,1.59 0.97,2.57 2.59,2.57l0 0zm-14.83 4.18c0,0.33 -0.3,0.64 -0.64,0.64 -0.31,0 -0.31,-0.31 -0.31,-0.64 0,0 0,0 0,-0.31 0,-0.33 -0.33,-0.33 -0.33,-0.33 -0.31,0 -0.64,0.33 -0.64,0.33 0,0.31 0,0.31 0,0.64 0,0.61 0.64,0.98 1.28,0.98 0.64,0 1.28,-0.67 1.28,-1.31 0,-1.29 0,-2.23 0,-3.54 1.61,0 2.59,-0.31 4.51,-0.31 -0.33,-2.28 -2.26,-3.54 -4.51,-3.54 0,0 0,0 0,-0.33 0,-0.31 -0.31,-0.31 -0.31,-0.31 -0.33,0 -0.33,0.31 -0.33,0.31 0,0.33 0,0.33 0,0.64 -2.26,0.33 -3.85,1.93 -4.18,4.19 1.61,-0.31 2.59,-0.31 4.18,-0.65 0,1.62 0,2.26 0,3.54l0 0zm-43.79 -46.31l45.74 -2.26 36.05 1.95 -0.31 0 -47.03 2.57 -33.81 -2.26 -0.64 0zm34.15 2.9l0 51.13 -34.15 -6.1 0 -47.28 34.15 2.26zm47.64 -2.59l0 48.26 -47.34 5.78 0.33 0 0 -51.44 13.52 -0.64 0.31 13.83 1.61 -2.59 1.93 2.59 0.97 -2.59 1.62 2.26 0.95 -2.57 1.62 2.57 0.97 -2.87 1.28 2.57 0 -13.85 22.22 -1.28z"/>
    <path class="fil1" d="M90.8 78.91l0 0c-4.52,0.31 -6.75,0.61 -10.93,0.94 0,-4.18 0,-6.44 0,-10.59 4.49,-0.36 6.41,-0.67 10.93,-0.98 0,4.16 0,6.11 0,10.63l0 0zm-11.26 -10.01l0 0c0,4.52 0,6.77 0,11.29 4.52,-0.33 6.75,-0.67 11.6,-1.28 0,-4.52 0,-6.47 0,-10.96 -4.52,0.33 -6.77,0.65 -11.6,0.95l0 0zm40.57 6.77l0 0c-4.19,0.31 -6.11,0.64 -10.62,0.98 0,-4.21 0,-6.13 0,-10.31 4.18,-0.31 6.44,-0.31 10.62,-0.98 0,4.21 0,6.11 0,10.31l0 0zm-10.93 -9.34l0 0c0,4.18 0,6.11 0.31,10.62 4.18,-0.31 6.44,-0.65 10.95,-0.98 0,-4.52 0,-6.72 0,-10.93 -4.52,0.66 -6.77,0.66 -11.26,1.28l0 0zm9.98 8.06l0 0c-3.23,0.31 -5.16,0.62 -8.39,0.98 0,0.31 0,0.31 0,0.61 3.23,-0.31 5.15,-0.61 8.39,-0.97 0,-0.31 0,-0.31 0,-0.62l0 0zm-2.26 -0.33l0 0c0.31,0 0.64,0 0.64,0 0,-1.92 0,-2.89 0,-4.8 0.64,0 0.97,0 1.61,0 -0.64,-1.31 -1.31,-1.95 -1.95,-2.93 -0.64,1.28 -0.95,1.95 -1.59,3.23 0.64,-0.31 0.95,-0.31 1.28,-0.31 0,1.9 0,2.87 0,4.8l0 0zm-4.82 0.33c0.31,0 0.31,0 0.64,0 0,-1.95 0,-2.93 0,-4.82 0.64,0 0.95,0 1.59,0 -0.64,-0.97 -1.28,-1.62 -1.92,-2.9 -0.64,1.28 -0.95,1.93 -1.61,3.21 0.33,0 0.66,0 1.31,0 0,1.59 0,2.56 0,4.51l0 0zm-6.47 2.9l0 0c-4.18,0.31 -6.41,0.64 -10.93,0.95 0.31,-4.19 0.31,-6.42 0.31,-10.29 4.21,-0.64 6.44,-0.64 10.62,-0.95 0,3.85 0,5.78 0,10.29l0 0zm-10.93 -9.67l0 0c0,4.2 0,6.44 -0.33,10.93 4.85,-0.3 7.08,-0.61 11.6,-1.25 0,-4.52 0,-6.44 0,-10.62 -4.52,0.33 -6.74,0.64 -11.26,0.95l0 0zm5.16 5.8c0,1.28 0,1.59 0,2.89 -0.97,0 -1.31,0 -2.26,0 0,0.34 0,0.34 0,0.65 2.26,0 3.2,-0.31 5.15,-0.31 0,-0.34 0,-0.67 0,-0.67 -0.97,0 -1.31,0 -2.26,0 0,-0.97 0,-1.59 0,-2.56 1.59,-0.31 2.57,-1.59 2.57,-3.21l0 -2.26c-2.26,0.33 -3.54,0.33 -5.8,0.65l0 2.26c0,1.59 0.97,2.57 2.59,2.57l0 0zm-14.83 4.18c0,0.33 -0.3,0.64 -0.64,0.64 -0.31,0 -0.31,-0.31 -0.31,-0.64 0,0 0,0 0,-0.31 0,-0.33 -0.33,-0.33 -0.33,-0.33 -0.31,0 -0.64,0.33 -0.64,0.33 0,0.31 0,0.31 0,0.64 0,0.61 0.64,0.98 1.28,0.98 0.64,0 1.28,-0.67 1.28,-1.31 0,-1.29 0,-2.23 0,-3.54 1.61,0 2.59,-0.31 4.51,-0.31 -0.33,-2.28 -2.26,-3.54 -4.51,-3.54 0,0 0,0 0,-0.33 0,-0.31 -0.31,-0.31 -0.31,-0.31 -0.33,0 -0.33,0.31 -0.33,0.31 0,0.33 0,0.33 0,0.64 -2.26,0.33 -3.85,1.93 -4.18,4.19 1.61,-0.31 2.59,-0.31 4.18,-0.65 0,1.62 0,2.26 0,3.54l0 0zm-43.79 -46.31l45.74 -2.26 36.05 1.95 -0.31 0 -47.03 2.57 -33.81 -2.26 -0.64 0zm34.15 2.9l0 51.13 -34.15 -6.1 0 -47.28 34.15 2.26zm47.64 -2.59l0 48.26 -47.34 5.78 0.33 0 0 -51.44 13.52 -0.64 0.31 13.83 1.61 -2.59 1.93 2.59 0.97 -2.59 1.62 2.26 0.95 -2.57 1.62 2.57 0.97 -2.87 1.28 2.57 0 -13.85 22.22 -1.28z"/>
   </g>
  </g>
 </g>
</svg>
