<?xml version="1.0" encoding="UTF-8"?>
<!DOCTYPE svg PUBLIC "-//W3C//DTD SVG 1.1//EN" "http://www.w3.org/Graphics/SVG/1.1/DTD/svg11.dtd">
<!-- Creator: CorelDRAW 2019 (64-Bit) -->
<svg xmlns="http://www.w3.org/2000/svg" xml:space="preserve" width="0.166661in" height="0.166661in" version="1.1" style="shape-rendering:geometricPrecision; text-rendering:geometricPrecision; image-rendering:optimizeQuality; fill-rule:evenodd; clip-rule:evenodd"
viewBox="0 0 166.66 166.66"
 xmlns:xlink="http://www.w3.org/1999/xlink"
 xmlns:xodm="http://www.corel.com/coreldraw/odm/2003">
 <defs>
  <style type="text/css">
   <![CDATA[
    .fil0 {fill:none}
    .fil1 {fill:#FBB457;fill-rule:nonzero}
    .fil2 {fill:#F58634;fill-rule:nonzero}
   ]]>
  </style>
 </defs>
 <g id="Camada_x0020_1">
  <metadata id="CorelCorpID_0Corel-Layer"/>
  <rect class="fil0" x="-0" y="-0" width="166.67" height="166.67"/>
  <g id="_2315081602096">
   <g>
    <path class="fil1" d="M136.29 130.42c-0.47,0 -0.95,-0.02 -1.43,-0.06l-60.65 -4.95c-9.3,-0.76 -17.16,-7.33 -19.54,-16.35l-11.82 -44.69c-2.1,-7.94 -4.26,-16.16 -13.53,-18.65l-26.37 -5.43c-2,-0.41 -3.28,-2.36 -2.87,-4.36 0.41,-2 2.37,-3.28 4.36,-2.87l26.67 5.49c13.51,3.56 16.62,15.34 18.89,23.94l0.15 0.58 11.67 44.11c1.59,6 6.81,10.37 13,10.88l60.65 4.95c4.82,0.39 9.25,-2.7 10.54,-7.37l11.17 -40.5 -77.44 -6.36c-1.67,-0.14 -3.25,0.52 -4.34,1.8 -1.09,1.28 -1.47,2.95 -1.06,4.57l3.46 13.67c1.14,4.52 5.02,7.87 9.66,8.33l36.51 3.68c1.86,0.19 3.57,-0.92 4.15,-2.7 0.38,-1.15 0.22,-2.39 -0.45,-3.4 -0.66,-1.02 -1.74,-1.66 -2.94,-1.77l-30.66 -2.83c-2.03,-0.19 -3.52,-1.99 -3.34,-4.02 0.19,-2.03 1.98,-3.53 4.02,-3.34l30.66 2.83c3.46,0.32 6.54,2.17 8.44,5.08 1.91,2.91 2.37,6.46 1.29,9.76 -1.68,5.09 -6.58,8.28 -11.91,7.74l-36.51 -3.68c-7.72,-0.78 -14.18,-6.35 -16.08,-13.87l-3.46 -13.67c-1,-3.97 -0.06,-8.04 2.58,-11.16 2.65,-3.13 6.5,-4.72 10.58,-4.39l86.33 7.09 -13.54 49.1c-2.1,7.61 -9.05,12.82 -16.83,12.82z"/>
   </g>
   <path class="fil1" d="M82.85 139.52c0,5.56 -4.5,10.06 -10.06,10.06 -5.56,0 -10.06,-4.5 -10.06,-10.06 0,-5.55 4.5,-10.06 10.06,-10.06 5.56,0 10.06,4.5 10.06,10.06z"/>
   <path class="fil1" d="M132.85 142.57c0,3.35 -2.72,6.07 -6.07,6.07 -3.36,0 -6.08,-2.72 -6.08,-6.07 0,-3.35 2.72,-6.07 6.08,-6.07 3.35,0 6.07,2.72 6.07,6.07z"/>
   <g>
    <path class="fil1" d="M72.28 50.15c0,4.87 -3.95,8.83 -8.83,8.83 -4.87,0 -8.82,-3.95 -8.82,-8.83 0,-4.87 3.95,-8.82 8.82,-8.82 4.87,0 8.83,3.95 8.83,8.82z"/>
   </g>
   <path class="fil2" d="M88.65 29.02c0,6.59 -5.34,11.93 -11.93,11.93 -6.59,0 -11.93,-5.34 -11.93,-11.93 0,-6.59 5.34,-11.93 11.93,-11.93 6.59,0 11.93,5.34 11.93,11.93z"/>
   <path class="fil2" d="M85.76 47.21c0,2.31 -1.87,4.17 -4.17,4.17 -2.31,0 -4.17,-1.87 -4.17,-4.17 0,-2.3 1.87,-4.17 4.17,-4.17 2.3,0 4.17,1.87 4.17,4.17z"/>
   <g>
    <path class="fil1" d="M111.65 35.07c0,5.33 -4.32,9.65 -9.65,9.65 -5.33,0 -9.65,-4.32 -9.65,-9.65 0,-5.33 4.31,-9.65 9.65,-9.65 5.33,0 9.65,4.32 9.65,9.65z"/>
   </g>
   <g>
    <path class="fil1" d="M120.92 53.18c0,4.34 -3.52,7.85 -7.85,7.85 -4.33,0 -7.85,-3.51 -7.85,-7.85 0,-4.33 3.52,-7.85 7.85,-7.85 4.33,0 7.85,3.52 7.85,7.85z"/>
   </g>
   <path class="fil2" d="M154.24 56.62c0,4.33 -3.51,7.85 -7.85,7.85 -4.33,0 -7.85,-3.51 -7.85,-7.85 0,-4.34 3.52,-7.85 7.85,-7.85 4.34,0 7.85,3.51 7.85,7.85z"/>
   <path class="fil2" d="M99.68 54.57c0,2.89 -2.34,5.23 -5.24,5.23 -2.89,0 -5.23,-2.34 -5.23,-5.23 0,-2.89 2.34,-5.23 5.23,-5.23 2.89,0 5.24,2.34 5.24,5.23z"/>
   <path class="fil2" d="M131.39 35.58c0,3.63 -2.94,6.57 -6.57,6.57 -3.63,0 -6.57,-2.94 -6.57,-6.57 0,-3.63 2.94,-6.57 6.57,-6.57 3.63,0 6.57,2.94 6.57,6.57z"/>
   <path class="fil2" d="M134.16 56.62c0,2.89 -2.34,5.23 -5.23,5.23 -2.89,0 -5.23,-2.34 -5.23,-5.23 0,-2.89 2.34,-5.24 5.23,-5.24 2.89,0 5.23,2.34 5.23,5.24z"/>
   <g>
    <path class="fil1" d="M140.21 44.72c0,2.44 -1.98,4.41 -4.41,4.41 -2.44,0 -4.41,-1.98 -4.41,-4.41 0,-2.44 1.97,-4.41 4.41,-4.41 2.44,0 4.41,1.98 4.41,4.41z"/>
   </g>
  </g>
 </g>
</svg>
