<?xml version="1.0" encoding="UTF-8"?>
<!DOCTYPE svg PUBLIC "-//W3C//DTD SVG 1.1//EN" "http://www.w3.org/Graphics/SVG/1.1/DTD/svg11.dtd">
<!-- Creator: CorelDRAW 2019 (64-Bit) -->
<svg xmlns="http://www.w3.org/2000/svg" xml:space="preserve" width="0.166661in" height="0.166661in" version="1.1" style="shape-rendering:geometricPrecision; text-rendering:geometricPrecision; image-rendering:optimizeQuality; fill-rule:evenodd; clip-rule:evenodd"
viewBox="0 0 166.66 166.66"
 xmlns:xlink="http://www.w3.org/1999/xlink"
 xmlns:xodm="http://www.corel.com/coreldraw/odm/2003">
 <defs>
  <style type="text/css">
   <![CDATA[
    .fil0 {fill:none}
    .fil1 {fill:#FBB457}
    .fil4 {fill:#FBB457}
    .fil3 {fill:#FEFEFE;fill-rule:nonzero}
    .fil2 {fill:#FBB457;fill-rule:nonzero}
    .fil5 {fill:#FEFEFE;fill-rule:nonzero}
   ]]>
  </style>
 </defs>
 <g id="Layer_x0020_1">
  <metadata id="CorelCorpID_0Corel-Layer"/>
  <g id="_2316602451856">
   <rect class="fil0" x="-0.01" y="-0" width="166.67" height="166.67"/>
   <rect class="fil0" x="-0.01" y="-0" width="166.67" height="166.67"/>
   <g>
    <path class="fil1" d="M87.87 121.57l0 0c-7.99,0.54 -11.96,1.09 -19.36,1.68 0,-7.42 0,-11.41 0,-18.78 7.95,-0.64 11.36,-1.19 19.36,-1.72 0,7.37 0,10.82 0,18.83l0 0 0 -0zm-19.95 -17.74l0 0c0,8 0,12 0,20 8,-0.59 11.96,-1.18 20.56,-2.26 0,-8 0,-11.46 0,-19.41 -8.02,0.59 -12,1.14 -20.56,1.68l0 0 0 -0.01zm71.88 12l0 0c-7.42,0.55 -10.82,1.14 -18.83,1.73 0,-7.45 0,-10.87 0,-18.28 7.41,-0.54 11.41,-0.54 18.83,-1.72 0,7.46 0,10.81 0,18.27l0 0 0 -0zm-19.37 -16.54l0 0c0,7.42 0,10.82 0.55,18.83 7.41,-0.54 11.41,-1.15 19.41,-1.72 0,-8 0,-11.91 0,-19.36 -8,1.18 -12,1.18 -19.95,2.27l0 0 -0.01 -0.01zm17.68 14.28l0 0c-5.72,0.55 -9.14,1.09 -14.86,1.72 0,0.54 0,0.54 0,1.09 5.72,-0.55 9.14,-1.09 14.86,-1.72 0,-0.55 0,-0.55 0,-1.09l0 0zm-4 -0.6l0 0c0.55,0 1.14,0 1.14,0 0,-3.41 0,-5.13 0,-8.5 1.14,0 1.72,0 2.86,0 -1.14,-2.32 -2.31,-3.45 -3.45,-5.19 -1.15,2.27 -1.68,3.46 -2.82,5.72 1.14,-0.54 1.68,-0.54 2.27,-0.54 0,3.37 0,5.09 0,8.5l0 0zm-8.55 0.6c0.55,0 0.55,0 1.14,0 0,-3.46 0,-5.19 0,-8.55 1.14,0 1.68,0 2.81,0 -1.13,-1.72 -2.28,-2.86 -3.41,-5.13 -1.14,2.28 -1.68,3.41 -2.86,5.69 0.59,0 1.18,0 2.31,0 0,2.81 0,4.54 0,8l0 0 0.01 -0zm-11.46 5.13l0 0c-7.42,0.55 -11.37,1.14 -19.37,1.69 0.55,-7.42 0.55,-11.37 0.55,-18.24 7.45,-1.13 11.4,-1.13 18.82,-1.69 0,6.81 0,10.24 0,18.24l0 0 -0 0zm-19.37 -17.14l0 0c0,7.46 0,11.4 -0.59,19.37 8.6,-0.54 12.55,-1.09 20.55,-2.22 0,-8 0,-11.41 0,-18.82 -8,0.59 -11.95,1.15 -19.95,1.68l0 0 -0.01 0zm9.14 10.27c0,2.27 0,2.82 0,5.13 -1.72,0 -2.32,0 -4,0 0,0.59 0,0.59 0,1.15 4,0 5.68,-0.54 9.14,-0.54 0,-0.59 0,-1.19 0,-1.19 -1.72,0 -2.32,0 -4,0 0,-1.72 0,-2.82 0,-4.54 2.82,-0.55 4.55,-2.82 4.55,-5.68l0 -4c-4.01,0.59 -6.28,0.59 -10.28,1.14l0 4c0,2.82 1.74,4.54 4.59,4.54l0 0 -0 -0zm-26.28 7.42c0,0.59 -0.54,1.14 -1.14,1.14 -0.55,0 -0.55,-0.55 -0.55,-1.14 0,0 0,0 0,-0.55 0,-0.59 -0.59,-0.59 -0.59,-0.59 -0.55,0 -1.14,0.59 -1.14,0.59 0,0.55 0,0.55 0,1.14 0,1.09 1.14,1.74 2.27,1.74 1.14,0 2.27,-1.19 2.27,-2.32 0,-2.28 0,-3.96 0,-6.28 2.86,0 4.59,-0.55 8,-0.55 -0.59,-4.05 -4.01,-6.27 -8,-6.27 0,0 0,0 0,-0.59 0,-0.56 -0.55,-0.56 -0.55,-0.56 -0.59,0 -0.59,0.56 -0.59,0.56 0,0.59 0,0.59 0,1.14 -4,0.59 -6.81,3.41 -7.41,7.41 2.86,-0.55 4.59,-0.55 7.41,-1.15 0,2.86 0,4 0,6.28l0 0 0.01 0zm-77.6 -82.06l81.06 -4 63.87 3.45 -0.55 0 -83.33 4.54 -59.92 -4.01 -1.14 0 0 0.01zm60.52 5.14l0 90.6 -60.52 -10.81 0 -83.79 60.52 4zm84.42 -4.59l0 85.51 -83.88 10.24 0.59 0 0 -91.15 23.96 -1.14 0.55 24.5 2.86 -4.58 3.41 4.58 1.72 -4.58 2.87 4 1.69 -4.54 2.86 4.54 1.72 -5.09 2.27 4.54 0 -24.55 39.37 -2.27 0.01 0z"/>
    <path class="fil2" d="M143.33 86.38l0 0c-11.09,0 -20.12,-9.03 -20.12,-20.12 0,-11.09 9.02,-20.12 20.12,-20.12 11.09,0 20.12,9.02 20.12,20.12 0,11.09 -9.03,20.12 -20.12,20.12z"/>
    <path class="fil3" d="M166.18 66.95l0 0c-1.33,-1.19 -1.48,-3.22 -0.33,-4.59l0.41 -0.5 -0.57 -0.31c-1.57,-0.84 -2.19,-2.78 -1.41,-4.38l0.29 -0.59 -0.63 -0.16c-1.73,-0.44 -2.79,-2.19 -2.4,-3.93l0.14 -0.63 -0.65 -0.01c-1.78,-0.03 -3.22,-1.47 -3.25,-3.26l-0.01 -0.65 0 0c-2.09,0.47 -4.19,-0.81 -4.72,-2.89l0 0 -0 0c-1.93,0.95 -4.25,0.2 -5.26,-1.69l-0 -0 0 0c-1.65,1.38 -4.09,1.2 -5.52,-0.4 -1.08,1.64 -3.33,1.98 -4.85,0.75l0 0 -0 0c-0.71,1.82 -2.83,2.64 -4.58,1.75l-0 0 0 0c-0.31,1.93 -2.22,3.18 -4.11,2.67 0.1,1.96 -1.52,3.57 -3.47,3.47l0 0c0.5,1.89 -0.74,3.8 -2.68,4.11l0 0 0 0.01c0.88,1.74 0.07,3.87 -1.75,4.58l-0.01 0 0 0c1.24,1.52 0.89,3.77 -0.74,4.85l-0.01 0 0.48 0.43c1.33,1.19 1.48,3.22 0.33,4.59l-0.42 0.5 0.57 0.31c1.57,0.84 2.19,2.78 1.41,4.38l-0.29 0.59 0.63 0.16c1.73,0.44 2.79,2.19 2.4,3.93l-0.14 0.63 0.65 0.01c1.78,0.03 3.23,1.47 3.26,3.26l0.01 0.65 0.63 -0.14c1.74,-0.39 3.48,0.67 3.93,2.4l0.16 0.63 0.59 -0.29c1.6,-0.79 3.54,-0.17 4.38,1.41l0.31 0.57 0.5 -0.42c1.37,-1.15 3.4,-1 4.59,0.33l0.43 0.48 0 -0.01c1.08,-1.63 3.33,-1.98 4.85,-0.74l0.01 0 0 -0c0.71,-1.83 2.83,-2.64 4.58,-1.75l0.01 0 0 0c0.31,-1.93 2.22,-3.18 4.11,-2.68l0 0c-0.1,-1.96 1.52,-3.57 3.47,-3.47l0 0 0 0c-0.5,-1.89 0.74,-3.8 2.67,-4.11l0 0 -0 -0.01c-0.89,-1.74 -0.07,-3.87 1.75,-4.58l0 -0 -0 -0c-1.23,-1.52 -0.89,-3.77 0.74,-4.85l0.01 -0 -0.48 -0.43z"/>
    <circle class="fil4" cx="143.36" cy="66.29" r="18.37"/>
    <g>
     <g>
      <path class="fil5" d="M141.15 78.87c-1.44,0 -2.77,-0.36 -3.94,-1.08 -0.09,-0.06 -0.16,-0.13 -0.22,-0.21l-0.18 -0.29c-0.06,-0.11 -0.1,-0.22 -0.1,-0.35l0 -10.31c0,-0.22 0.1,-0.42 0.29,-0.54 0.19,-0.13 0.37,-0.25 0.56,-0.37 0.37,-0.24 0.73,-0.47 1.03,-0.73 1.56,-1.38 2.67,-3.23 3.34,-5.5 0.22,-0.74 0.35,-1.52 0.48,-2.33 0.06,-0.35 0.11,-0.7 0.18,-1.05 0.02,-0.1 0.03,-0.2 0.04,-0.3 0.02,-0.19 0.05,-0.41 0.11,-0.63 0.26,-0.93 1.04,-1.48 2.08,-1.48 0.01,0 0.07,0 0.08,0 1.02,0.03 1.86,0.73 2.01,1.65l0.07 0.43c0.31,1.88 0.63,3.83 0.48,5.83 -0.05,0.66 -0.2,1.25 -0.48,1.79l2.94 0c1.24,0 2.48,0 3.72,0.01 0.43,0 0.83,0.05 1.23,0.15 0.91,0.23 1.5,0.99 1.52,1.94l0 0.2c0,0.28 0.01,0.55 0.02,0.82 0,0.79 -0.39,1.48 -1.01,1.88 0.6,0.71 0.54,1.54 0.42,2.07 -0.17,0.65 -0.54,1.12 -1.11,1.41 0.41,0.65 0.39,1.29 0.26,1.78 -0.14,0.52 -0.46,1.11 -1.17,1.46 0.54,0.72 0.64,1.48 0.31,2.31 -0.37,0.93 -1.24,1.46 -2.39,1.46l-9.61 -0c-0.27,0 -0.54,0 -0.8,0.01l-0.13 0 0 -0.01zm-3.11 -2.13l0 0c0.93,0.54 1.95,0.81 3.11,0.81l0.11 0c0.28,-0 0.55,-0.01 0.82,-0.01l9.62 0c0.91,0 1.1,-0.48 1.17,-0.64 0.17,-0.43 0.16,-0.76 -0.38,-1.29l-0.42 -0.43c-0.18,-0.18 -0.24,-0.45 -0.15,-0.69 0.09,-0.24 0.31,-0.41 0.57,-0.43 0.88,-0.06 1.09,-0.41 1.19,-0.78 0.09,-0.35 0.09,-0.75 -0.61,-1.24 -0.23,-0.16 -0.33,-0.44 -0.26,-0.7 0.07,-0.27 0.3,-0.46 0.57,-0.49 0.92,-0.09 1.07,-0.42 1.15,-0.72 0.14,-0.56 0.04,-1.01 -0.87,-1.39 -0.26,-0.1 -0.42,-0.36 -0.41,-0.64 0.02,-0.28 0.2,-0.52 0.46,-0.6 0.19,-0.06 0.34,-0.07 0.45,-0.08 0.56,-0.04 0.92,-0.41 0.91,-0.91 0,-0.27 -0.01,-0.54 -0.02,-0.81l-0 -0.2c-0,-0.36 -0.19,-0.61 -0.51,-0.69 -0.29,-0.07 -0.6,-0.11 -0.92,-0.11 -1.24,-0.01 -2.48,-0.01 -3.72,-0.01l-4.18 0c-0.26,0 -0.5,-0.15 -0.61,-0.39 -0.11,-0.24 -0.06,-0.52 0.11,-0.71 0.56,-0.62 0.83,-1.28 0.9,-2.11 0.14,-1.84 -0.15,-3.63 -0.47,-5.52l-0.07 -0.42c-0.05,-0.3 -0.37,-0.53 -0.75,-0.54 0,0 0,0 0,0 -0.7,0 -0.81,0.39 -0.85,0.52 -0.04,0.14 -0.05,0.28 -0.07,0.42 -0.01,0.13 -0.03,0.26 -0.06,0.39 -0.06,0.34 -0.11,0.68 -0.17,1.02 -0.13,0.82 -0.27,1.67 -0.51,2.5 -0.74,2.5 -1.99,4.56 -3.73,6.11 -0.37,0.33 -0.79,0.6 -1.2,0.86 -0.08,0.05 -0.16,0.1 -0.24,0.15l0 9.77 0.01 -0z"/>
     </g>
     <g>
      <path class="fil5" d="M135.52 78.25l-4.54 0c-0.37,0 -0.66,-0.3 -0.66,-0.66l0 -10.96c0,-0.37 0.29,-0.66 0.66,-0.66l4.54 0c0.36,0 0.65,0.29 0.65,0.66l0 10.96c0,0.37 -0.29,0.66 -0.65,0.66zm-3.89 -1.31l0 0 3.22 0 0 -9.64 -3.22 0 0 9.64z"/>
     </g>
    </g>
   </g>
  </g>
 </g>
</svg>
