<?xml version="1.0" encoding="UTF-8"?>
<!DOCTYPE svg PUBLIC "-//W3C//DTD SVG 1.1//EN" "http://www.w3.org/Graphics/SVG/1.1/DTD/svg11.dtd">
<!-- Creator: CorelDRAW 2019 (64-Bit) -->
<svg xmlns="http://www.w3.org/2000/svg" xml:space="preserve" width="0.166661in" height="0.166661in" version="1.1" style="shape-rendering:geometricPrecision; text-rendering:geometricPrecision; image-rendering:optimizeQuality; fill-rule:evenodd; clip-rule:evenodd"
viewBox="0 0 166.66 166.66"
 xmlns:xlink="http://www.w3.org/1999/xlink"
 xmlns:xodm="http://www.corel.com/coreldraw/odm/2003">
 <defs>
  <style type="text/css">
   <![CDATA[
    .fil0 {fill:none;fill-rule:nonzero}
    .fil1 {fill:#FBB457;fill-rule:nonzero}
   ]]>
  </style>
 </defs>
 <g id="Layer_x0020_1">
  <metadata id="CorelCorpID_0Corel-Layer"/>
  <g id="_2315292931120">
   <rect class="fil0" x="-0" y="-0" width="166.67" height="166.67"/>
   <g>
    <g>
     <path class="fil1" d="M149.36 65.54l-132.06 0c-2.49,0 -4.51,-2.02 -4.51,-4.51l0 -12.69c0,-2.49 2.02,-4.51 4.51,-4.51 2.5,0 4.51,2.02 4.51,4.51l0 8.18 123.03 0 0 -8.18c0,-2.49 2.02,-4.51 4.51,-4.51 2.49,0 4.51,2.02 4.51,4.51l0 12.69c0,2.49 -2.02,4.51 -4.51,4.51l0 0z"/>
    </g>
    <g>
     <polygon class="fil1" points="28.48,137.94 19.44,137.94 19.44,61.04 28.48,61.04 "/>
    </g>
    <g>
     <polygon class="fil1" points="43.07,137.94 34.06,137.94 34.06,61.04 43.07,61.04 "/>
    </g>
    <g>
     <polygon class="fil1" points="60.97,137.94 51.94,137.94 51.94,61.04 60.97,61.04 "/>
    </g>
    <g>
     <polygon class="fil1" points="75.57,137.94 66.55,137.94 66.55,61.04 75.57,61.04 "/>
    </g>
    <g>
     <polygon class="fil1" points="100.29,137.94 91.26,137.94 91.26,61.04 100.29,61.04 "/>
    </g>
    <g>
     <polygon class="fil1" points="114.89,137.94 105.87,137.94 105.87,61.04 114.89,61.04 "/>
    </g>
    <g>
     <polygon class="fil1" points="132.6,137.94 123.57,137.94 123.57,61.04 132.6,61.04 "/>
    </g>
    <g>
     <polygon class="fil1" points="147.2,137.94 138.18,137.94 138.18,61.04 147.2,61.04 "/>
    </g>
    <g>
     <path class="fil1" d="M154.66 166.02l-142.67 0c-2.5,0 -4.52,-2.02 -4.52,-4.51l0 -23.65c0,-2.5 2.02,-4.51 4.52,-4.51l142.67 0c2.5,0 4.51,2.02 4.51,4.51l0 23.65c0,2.49 -2.02,4.51 -4.51,4.51zm-138.15 -9.02l0 0 133.64 0 0 -14.63 -133.64 0 0 14.63z"/>
    </g>
    <g>
     <path class="fil1" d="M162.15 52.85l-157.64 0c-2.49,0 -4.51,-2.02 -4.51,-4.51l0 -3.6c0,-1.7 0.96,-3.27 2.49,-4.03l78.82 -39.57c1.27,-0.64 2.78,-0.64 4.04,0l78.82 39.57c1.53,0.77 2.49,2.33 2.49,4.03l0 3.6c0,2.5 -2.02,4.51 -4.51,4.51l0.01 0zm-145.77 -9.02l0 0 133.9 0 -66.95 -33.61 -66.95 33.61 -0 0z"/>
    </g>
   </g>
  </g>
 </g>
</svg>
