<?xml version="1.0" encoding="UTF-8"?>
<!DOCTYPE svg PUBLIC "-//W3C//DTD SVG 1.1//EN" "http://www.w3.org/Graphics/SVG/1.1/DTD/svg11.dtd">
<!-- Creator: CorelDRAW 2019 (64-Bit) -->
<svg xmlns="http://www.w3.org/2000/svg" xml:space="preserve" width="0.166661in" height="0.166661in" version="1.1" style="shape-rendering:geometricPrecision; text-rendering:geometricPrecision; image-rendering:optimizeQuality; fill-rule:evenodd; clip-rule:evenodd"
viewBox="0 0 166.66 166.66"
 xmlns:xlink="http://www.w3.org/1999/xlink"
 xmlns:xodm="http://www.corel.com/coreldraw/odm/2003">
 <defs>
  <style type="text/css">
   <![CDATA[
    .fil0 {fill:none}
    .fil1 {fill:#FBB457;fill-rule:nonzero}
   ]]>
  </style>
 </defs>
 <g id="Camada_x0020_1">
  <metadata id="CorelCorpID_0Corel-Layer"/>
  <rect class="fil0" x="-0.01" y="-0" width="166.67" height="166.67"/>
  <g id="_2315086380304">
   <g>
    <path class="fil1" d="M69.24 163.74c-9.22,0 -17.67,-2.32 -25.13,-6.9 -0.56,-0.34 -1.03,-0.81 -1.37,-1.37l-1.15 -1.84c-0.41,-0.67 -0.63,-1.44 -0.63,-2.22l0 -65.89c0,-1.39 0.69,-2.69 1.83,-3.48 1.2,-0.82 2.41,-1.59 3.6,-2.35 2.41,-1.54 4.68,-2.98 6.57,-4.67 9.92,-8.83 17.09,-20.64 21.33,-35.1 1.4,-4.76 2.19,-9.7 3.02,-14.92 0.36,-2.24 0.72,-4.48 1.13,-6.7 0.11,-0.63 0.19,-1.27 0.26,-1.91 0.14,-1.21 0.3,-2.59 0.7,-3.99 1.68,-5.94 6.65,-9.49 13.28,-9.49 0.04,0 0.47,0.01 0.51,0.01 6.48,0.19 11.88,4.62 12.85,10.53l0.44 2.69c1.97,12.02 4.02,24.45 3.07,37.22 -0.32,4.21 -1.3,7.97 -3.02,11.44l18.74 -0c7.93,0 15.85,0.01 23.78,0.04 2.7,0.02 5.34,0.33 7.84,0.96 5.78,1.43 9.58,6.31 9.69,12.42l0.02 1.27c0.03,1.76 0.07,3.52 0.08,5.27 0.04,5.04 -2.47,9.43 -6.42,11.99 3.83,4.57 3.48,9.86 2.66,13.22 -1.03,4.14 -3.41,7.14 -7.11,8.99 2.62,4.14 2.47,8.26 1.63,11.39 -0.89,3.27 -2.92,7.05 -7.51,9.29 3.46,4.58 4.1,9.43 1.97,14.75 -2.39,5.94 -7.95,9.35 -15.25,9.36l-61.43 -0.02c-1.7,0 -3.41,0.01 -5.11,0.03l-0.85 0.01zm-19.86 -13.56l0 0c5.96,3.46 12.47,5.14 19.86,5.14l0.72 -0.01c1.74,-0.02 3.49,-0.03 5.24,-0.03l61.43 0.02c5.8,-0 7.03,-3.07 7.44,-4.08 1.1,-2.74 1.04,-4.86 -2.42,-8.26l-2.66 -2.69c-1.16,-1.17 -1.53,-2.91 -0.95,-4.45 0.58,-1.54 2,-2.6 3.65,-2.72 5.61,-0.4 6.97,-2.62 7.6,-4.96 0.61,-2.25 0.55,-4.79 -3.91,-7.95 -1.43,-1.02 -2.08,-2.81 -1.63,-4.51 0.45,-1.7 1.9,-2.94 3.65,-3.12 5.85,-0.59 6.85,-2.7 7.33,-4.63 0.87,-3.57 0.26,-6.44 -5.58,-8.86 -1.64,-0.68 -2.69,-2.31 -2.6,-4.09 0.08,-1.78 1.27,-3.3 2.96,-3.83 1.19,-0.37 2.19,-0.44 2.92,-0.5 3.54,-0.24 5.85,-2.65 5.83,-5.85 -0.01,-1.73 -0.05,-3.45 -0.08,-5.18l-0.02 -1.29c-0.04,-2.29 -1.24,-3.88 -3.28,-4.39 -1.83,-0.45 -3.85,-0.7 -5.86,-0.71 -7.9,-0.04 -15.82,-0.04 -23.73,-0.04l-26.7 0c-1.66,0 -3.17,-0.98 -3.85,-2.49 -0.68,-1.52 -0.4,-3.29 0.71,-4.53 3.56,-3.98 5.33,-8.14 5.72,-13.47 0.87,-11.76 -1,-23.16 -2.98,-35.23l-0.44 -2.7c-0.31,-1.9 -2.36,-3.39 -4.77,-3.46 0,0 -0,0 -0.01,0 -4.48,0 -5.2,2.52 -5.43,3.35 -0.24,0.86 -0.33,1.77 -0.44,2.68 -0.09,0.82 -0.2,1.65 -0.34,2.46 -0.4,2.16 -0.74,4.33 -1.09,6.51 -0.84,5.25 -1.71,10.69 -3.26,15.96 -4.69,16 -12.7,29.13 -23.81,39.02 -2.4,2.13 -5.07,3.83 -7.65,5.48 -0.51,0.33 -1.02,0.65 -1.54,0.99l0 62.39z"/>
   </g>
   <g>
    <path class="fil1" d="M33.23 159.75l-29.02 0c-2.33,0 -4.21,-1.89 -4.21,-4.21l0 -70c0,-2.33 1.88,-4.21 4.21,-4.21l29.02 0c2.33,0 4.21,1.89 4.21,4.21l0 70c0,2.32 -1.89,4.21 -4.21,4.21zm-24.8 -8.43l0 0 20.59 0 0 -61.58 -20.59 0 0 61.58z"/>
   </g>
  </g>
 </g>
</svg>
