<?xml version="1.0" encoding="UTF-8"?>
<!DOCTYPE svg PUBLIC "-//W3C//DTD SVG 1.1//EN" "http://www.w3.org/Graphics/SVG/1.1/DTD/svg11.dtd">
<!-- Creator: CorelDRAW 2019 (64-Bit) -->
<svg xmlns="http://www.w3.org/2000/svg" xml:space="preserve" width="0.166661in" height="0.166661in" version="1.1" style="shape-rendering:geometricPrecision; text-rendering:geometricPrecision; image-rendering:optimizeQuality; fill-rule:evenodd; clip-rule:evenodd"
viewBox="0 0 166.66 166.66"
 xmlns:xlink="http://www.w3.org/1999/xlink"
 xmlns:xodm="http://www.corel.com/coreldraw/odm/2003">
 <defs>
  <style type="text/css">
   <![CDATA[
    .fil0 {fill:none}
    .fil1 {fill:#FBB457}
    .fil3 {fill:#FBB457}
    .fil2 {fill:#FEFEFE;fill-rule:nonzero}
   ]]>
  </style>
 </defs>
 <g id="Camada_x0020_1">
  <metadata id="CorelCorpID_0Corel-Layer"/>
  <rect class="fil0" x="-0" y="-0.01" width="166.67" height="166.67"/>
  <g id="_2315070821696">
   <path class="fil1" d="M88.17 121.7l0 0c-8.02,0.54 -12,1.09 -19.43,1.68 0,-7.44 0,-11.45 0,-18.84 7.98,-0.64 11.4,-1.19 19.43,-1.73 0,7.39 0,10.86 0,18.89l0 0zm-20.02 -17.8l0 0c0,8.03 0,12.04 0,20.07 8.03,-0.59 12,-1.18 20.62,-2.27 0,-8.03 0,-11.5 0,-19.48 -8.04,0.59 -12.04,1.14 -20.62,1.69l0 0zm72.12 12.04l0 0c-7.44,0.55 -10.86,1.14 -18.89,1.74 0,-7.48 0,-10.91 0,-18.34 7.44,-0.54 11.45,-0.54 18.89,-1.73 0,7.48 0,10.85 0,18.33l0 0zm-19.43 -16.6l0 0c0,7.44 0,10.86 0.55,18.89 7.44,-0.54 11.45,-1.15 19.48,-1.73 0,-8.03 0,-11.95 0,-19.43 -8.03,1.18 -12.04,1.18 -20.02,2.28l0 0zm17.74 14.33l0 0c-5.74,0.55 -9.17,1.09 -14.91,1.73 0,0.54 0,0.54 0,1.09 5.74,-0.55 9.17,-1.09 14.91,-1.73 0,-0.55 0,-0.55 0,-1.09l0 0zm-4.01 -0.6l0 0c0.55,0 1.14,0 1.14,0 0,-3.42 0,-5.15 0,-8.53 1.14,0 1.73,0 2.87,0 -1.14,-2.33 -2.32,-3.46 -3.46,-5.2 -1.15,2.28 -1.69,3.47 -2.83,5.74 1.14,-0.54 1.69,-0.54 2.28,-0.54 0,3.38 0,5.11 0,8.53l0 0zm-8.58 0.6c0.55,0 0.55,0 1.14,0 0,-3.47 0,-5.2 0,-8.58 1.14,0 1.69,0 2.82,0 -1.13,-1.73 -2.28,-2.87 -3.42,-5.15 -1.14,2.28 -1.69,3.42 -2.87,5.7 0.59,0 1.18,0 2.32,0 0,2.82 0,4.56 0,8.03l0 0zm-11.5 5.15l0 0c-7.44,0.55 -11.4,1.14 -19.43,1.69 0.55,-7.44 0.55,-11.41 0.55,-18.3 7.48,-1.13 11.44,-1.13 18.88,-1.69 0,6.84 0,10.27 0,18.3l0 0zm-19.43 -17.2l0 0c0,7.48 0,11.44 -0.59,19.43 8.63,-0.54 12.59,-1.09 20.62,-2.23 0,-8.03 0,-11.45 0,-18.89 -8.03,0.59 -11.99,1.15 -20.02,1.69l0 0zm9.17 10.31c0,2.28 0,2.83 0,5.15 -1.73,0 -2.33,0 -4.01,0 0,0.6 0,0.6 0,1.15 4.01,0 5.7,-0.54 9.17,-0.54 0,-0.6 0,-1.19 0,-1.19 -1.73,0 -2.33,0 -4.01,0 0,-1.73 0,-2.83 0,-4.56 2.83,-0.55 4.56,-2.83 4.56,-5.7l0 -4.02c-4.02,0.59 -6.3,0.59 -10.31,1.14l0 4.01c0,2.83 1.74,4.56 4.61,4.56l0 0zm-26.37 7.44c0,0.59 -0.54,1.14 -1.14,1.14 -0.55,0 -0.55,-0.55 -0.55,-1.14 0,0 0,0 0,-0.55 0,-0.59 -0.59,-0.59 -0.59,-0.59 -0.55,0 -1.14,0.59 -1.14,0.59 0,0.55 0,0.55 0,1.14 0,1.09 1.14,1.74 2.28,1.74 1.14,0 2.28,-1.19 2.28,-2.33 0,-2.29 0,-3.97 0,-6.3 2.87,0 4.61,-0.55 8.03,-0.55 -0.59,-4.06 -4.02,-6.29 -8.03,-6.29 0,0 0,0 0,-0.59 0,-0.56 -0.55,-0.56 -0.55,-0.56 -0.59,0 -0.59,0.56 -0.59,0.56 0,0.59 0,0.59 0,1.14 -4.01,0.59 -6.84,3.42 -7.43,7.44 2.87,-0.55 4.61,-0.55 7.43,-1.15 0,2.87 0,4.01 0,6.3l0 0zm-77.86 -82.34l81.33 -4.01 64.09 3.46 -0.55 0 -83.61 4.56 -60.12 -4.02 -1.14 0zm60.72 5.16l0 90.91 -60.72 -10.85 0 -84.07 60.72 4.01zm84.7 -4.61l0 85.8 -84.16 10.27 0.59 0 0 -91.46 24.04 -1.14 0.55 24.58 2.87 -4.6 3.42 4.6 1.73 -4.6 2.88 4.01 1.69 -4.56 2.87 4.56 1.73 -5.11 2.28 4.56 0 -24.63 39.5 -2.28z"/>
   <path class="fil2" d="M166.23 70.53l0 0c-1.19,-1.06 -1.31,-2.87 -0.3,-4.1l0.37 -0.44 -0.51 -0.27c-1.41,-0.75 -1.96,-2.48 -1.26,-3.91l0.26 -0.52 -0.56 -0.15c-1.54,-0.39 -2.49,-1.95 -2.14,-3.5l0.13 -0.57 -0.58 -0.01c-1.59,-0.02 -2.88,-1.31 -2.91,-2.91l-0.01 -0.58 0 0c-1.87,0.42 -3.74,-0.72 -4.21,-2.57l0 -0 -0.01 0c-1.72,0.85 -3.8,0.18 -4.7,-1.51l-0 -0 0 0c-1.47,1.23 -3.65,1.07 -4.93,-0.35 -0.96,1.46 -2.98,1.77 -4.33,0.67l0 0 0 0c-0.63,1.63 -2.53,2.35 -4.09,1.56l-0 0 0 0c-0.28,1.73 -1.98,2.84 -3.67,2.39 0.09,1.75 -1.35,3.19 -3.1,3.1l0 0c0.44,1.69 -0.66,3.39 -2.39,3.67l0 0 0 0.01c0.79,1.56 0.06,3.45 -1.57,4.09l-0 0 0 0c1.1,1.35 0.79,3.37 -0.67,4.33l-0 0 0.43 0.39c1.19,1.06 1.32,2.87 0.3,4.1l-0.37 0.44 0.51 0.27c1.4,0.75 1.96,2.48 1.25,3.91l-0.26 0.52 0.56 0.15c1.54,0.39 2.5,1.95 2.14,3.5l-0.13 0.57 0.58 0.01c1.59,0.03 2.88,1.31 2.91,2.91l0.01 0.58 0.56 -0.13c1.56,-0.35 3.11,0.6 3.5,2.14l0.14 0.56 0.53 -0.26c1.43,-0.7 3.16,-0.15 3.91,1.25l0.27 0.51 0.44 -0.37c1.22,-1.02 3.04,-0.89 4.1,0.29l0.39 0.43 0 -0c0.96,-1.46 2.97,-1.77 4.33,-0.67l0 0 0 -0c0.63,-1.63 2.53,-2.35 4.09,-1.57l0 0 0 0c0.28,-1.73 1.98,-2.84 3.67,-2.39l0 0c-0.09,-1.74 1.35,-3.19 3.09,-3.1l0 0 0 -0c-0.44,-1.69 0.67,-3.39 2.39,-3.67l0 0 0 -0.01c-0.79,-1.56 -0.06,-3.45 1.56,-4.09l0.01 -0 -0.01 -0c-1.1,-1.35 -0.79,-3.36 0.67,-4.33l0.01 -0 -0.43 -0.39z"/>
   <path class="fil3" d="M154.78 64.76l-5.48 5.48 5.23 5.23 -3.4 3.4 -5.23 -5.23 -5.22 5.23 -3.65 -3.65 5.22 -5.23 -4.97 -5.48 3.15 -3.15 5.22 5.22 5.48 -5.48 3.65 3.65zm-20.37 -6.24c6.29,-6.29 16.48,-6.56 23,-0.05 6.27,6.27 6.27,16.73 -0.02,23.02 -6.26,6.27 -16.72,6.26 -22.99,-0 -6.52,-6.52 -6.25,-16.7 0.02,-22.97l0 0z"/>
  </g>
 </g>
</svg>
