<?xml version="1.0" encoding="UTF-8"?>
<!DOCTYPE svg PUBLIC "-//W3C//DTD SVG 1.1//EN" "http://www.w3.org/Graphics/SVG/1.1/DTD/svg11.dtd">
<!-- Creator: CorelDRAW 2019 (64-Bit) -->
<svg xmlns="http://www.w3.org/2000/svg" xml:space="preserve" width="0.166661in" height="0.166661in" version="1.1" style="shape-rendering:geometricPrecision; text-rendering:geometricPrecision; image-rendering:optimizeQuality; fill-rule:evenodd; clip-rule:evenodd"
viewBox="0 0 166.66 166.66"
 xmlns:xlink="http://www.w3.org/1999/xlink"
 xmlns:xodm="http://www.corel.com/coreldraw/odm/2003">
 <defs>
  <style type="text/css">
   <![CDATA[
    .fil0 {fill:none}
    .fil1 {fill:#FBB457;fill-rule:nonzero}
   ]]>
  </style>
 </defs>
 <g id="Layer_x0020_1">
  <metadata id="CorelCorpID_0Corel-Layer"/>
  <rect class="fil0" x="-0" y="-0" width="166.67" height="166.67"/>
  <g id="_2315238187952">
   <rect class="fil0" x="-0" y="-0" width="166.67" height="166.67"/>
   <g>
    <g>
     <path class="fil1" d="M120.57 128.69l-74.49 0c-1.23,0 -2.23,-1 -2.23,-2.23l0 -101.29c0,-1.24 1,-2.23 2.23,-2.23l74.49 0c1.23,0 2.23,1 2.23,2.23l0 101.29c0,1.23 -1,2.23 -2.23,2.23zm-72.26 -4.46l0 0 70.03 0 0 -96.83 -70.03 0 0 96.83z"/>
    </g>
    <g>
     <path class="fil1" d="M44.38 166.67c-10.24,0 -18.57,-8.33 -18.57,-18.57 0,-2.46 2,-4.46 4.46,-4.46 2.46,0 4.46,2 4.46,4.46 0,5.32 4.33,9.65 9.65,9.65 2.46,0 4.46,2 4.46,4.46 0,2.46 -2,4.46 -4.46,4.46z"/>
    </g>
    <g>
     <path class="fil1" d="M30.28 23.02c-2.46,0 -4.46,-2 -4.46,-4.46 0,-10.24 8.33,-18.57 18.56,-18.57 2.46,0 4.46,2 4.46,4.46 0,2.46 -2,4.46 -4.46,4.46 -5.31,0 -9.64,4.33 -9.64,9.64 0,2.46 -2,4.46 -4.46,4.46l0 0.01z"/>
    </g>
    <g>
     <path class="fil1" d="M136.39 23.03c-2.47,0 -4.46,-2 -4.46,-4.46 0,-5.32 -4.32,-9.65 -9.64,-9.65 -2.46,0 -4.46,-2 -4.46,-4.46 0,-2.46 2,-4.46 4.46,-4.46 10.24,0 18.56,8.33 18.56,18.57 0,2.46 -2,4.46 -4.46,4.46l0 0z"/>
    </g>
    <g>
     <path class="fil1" d="M122.28 166.67c-2.47,0 -4.46,-2 -4.46,-4.46 0,-2.47 2,-4.46 4.46,-4.46 5.31,0 9.64,-4.33 9.64,-9.65 0,-2.46 2,-4.46 4.46,-4.46 2.46,0 4.46,2 4.46,4.46 0,10.24 -8.33,18.57 -18.57,18.57l0.01 0z"/>
    </g>
    <g>
     <path class="fil1" d="M122.28 166.67l-77.91 0c-2.47,0 -4.46,-2 -4.46,-4.46 0,-2.47 2,-4.46 4.46,-4.46l77.91 0c2.46,0 4.46,2 4.46,4.46 0,2.46 -2,4.46 -4.46,4.46z"/>
    </g>
    <g>
     <path class="fil1" d="M30.28 152.56c-2.46,0 -4.46,-2 -4.46,-4.46l0 -129.53c0,-2.46 2,-4.46 4.46,-4.46 2.47,0 4.46,2 4.46,4.46l0 129.53c0,2.47 -2,4.46 -4.46,4.46z"/>
    </g>
    <g>
     <path class="fil1" d="M122.29 8.92l-77.91 0c-2.47,0 -4.46,-2 -4.46,-4.46 0,-2.46 2,-4.46 4.46,-4.46l77.91 0c2.47,0 4.46,2 4.46,4.46 0,2.46 -1.99,4.46 -4.46,4.46z"/>
    </g>
    <g>
     <path class="fil1" d="M136.39 152.56c-2.47,0 -4.46,-2 -4.46,-4.46l0 -129.52c0,-2.46 2,-4.46 4.46,-4.46 2.46,0 4.46,2 4.46,4.46l0 129.52c0,2.47 -2,4.46 -4.46,4.46z"/>
    </g>
    <g>
     <path class="fil1" d="M83.33 153.91c-5.81,0 -10.53,-4.72 -10.53,-10.52 0,-5.81 4.72,-10.54 10.53,-10.54 5.8,0 10.53,4.73 10.53,10.54 0,5.8 -4.72,10.52 -10.53,10.52zm0 -16.59l0 0c-3.35,0 -6.07,2.72 -6.07,6.07 0,3.34 2.72,6.06 6.07,6.06 3.34,0 6.06,-2.72 6.06,-6.06 0,-3.35 -2.72,-6.07 -6.06,-6.07z"/>
    </g>
   </g>
  </g>
 </g>
</svg>
