<?xml version="1.0" encoding="UTF-8"?>
<!DOCTYPE svg PUBLIC "-//W3C//DTD SVG 1.1//EN" "http://www.w3.org/Graphics/SVG/1.1/DTD/svg11.dtd">
<!-- Creator: CorelDRAW 2019 (64-Bit) -->
<svg xmlns="http://www.w3.org/2000/svg" xml:space="preserve" width="0.166661in" height="0.166661in" version="1.1" style="shape-rendering:geometricPrecision; text-rendering:geometricPrecision; image-rendering:optimizeQuality; fill-rule:evenodd; clip-rule:evenodd"
viewBox="0 0 166.66 166.66"
 xmlns:xlink="http://www.w3.org/1999/xlink"
 xmlns:xodm="http://www.corel.com/coreldraw/odm/2003">
 <defs>
  <style type="text/css">
   <![CDATA[
    .fil0 {fill:none}
    .fil1 {fill:#FBB457;fill-rule:nonzero}
   ]]>
  </style>
 </defs>
 <g id="Layer_x0020_1">
  <metadata id="CorelCorpID_0Corel-Layer"/>
  <rect class="fil0" x="-0.01" y="-0" width="166.67" height="166.67"/>
  <path class="fil1" d="M52.72 0.49c4.6,1.74 6.43,5.61 7.43,9.97 1.99,8.7 3.87,17.44 5.74,26.16 0.29,1.33 0.36,2.71 0.39,4.06 0.06,4.19 -1.9,7.01 -5.85,8.43 -2.75,0.99 -5.53,1.93 -8.32,2.79 -2.72,0.81 -4.22,2.69 -4.86,5.31 -0.85,3.51 -0.75,6.98 0.43,10.44 6.71,19.67 18.35,35.98 34.03,49.45 3.19,2.73 6.8,5.04 10.42,7.18 2.3,1.39 5.07,1.67 7.8,1.39 1.94,-0.19 3.54,-1.06 4.68,-2.73 1.54,-2.26 3.13,-4.46 4.69,-6.69 3.14,-4.55 6.8,-5.74 11.93,-3.54 2.78,1.17 5.4,2.73 8.06,4.17 5,2.73 9.99,5.48 14.98,8.26 1.27,0.7 2.52,1.46 3.74,2.28 3.35,2.22 6.03,4.91 6.38,9.21 -0.16,1.1 -0.32,2.2 -0.48,3.3 -1.1,2.52 -2.02,5.16 -3.34,7.55 -5.89,10.63 -14.78,17.11 -26.91,18.86 -2.42,0.34 -4.91,0.25 -7.36,0.34 -1.9,-0.27 -3.8,-0.55 -5.7,-0.81 -2.26,-0.7 -4.55,-1.33 -6.77,-2.13 -11.17,-4.04 -20.59,-10.82 -29.37,-18.61 -10.52,-9.33 -19.63,-19.94 -28.09,-31.13 -10.36,-13.7 -19.75,-28 -26.54,-43.86 -3.78,-8.81 -6.63,-17.89 -7.35,-27.52 -0.21,-2.8 -0.15,-5.63 -0.21,-8.43 0.27,-1.9 0.55,-3.81 0.82,-5.71 0.16,-0.41 0.35,-0.83 0.47,-1.27 3.75,-13.89 12.89,-22.35 26.62,-25.95 2.98,-0.78 6.14,-0.85 9.22,-1.25 1.1,0.17 2.2,0.32 3.3,0.49z"/>
 </g>
</svg>
