<?xml version="1.0" encoding="UTF-8"?>
<!DOCTYPE svg PUBLIC "-//W3C//DTD SVG 1.1//EN" "http://www.w3.org/Graphics/SVG/1.1/DTD/svg11.dtd">
<!-- Creator: CorelDRAW 2019 (64-Bit) -->
<svg xmlns="http://www.w3.org/2000/svg" xml:space="preserve" width="8.5in" height="11in" version="1.1" style="shape-rendering:geometricPrecision; text-rendering:geometricPrecision; image-rendering:optimizeQuality; fill-rule:evenodd; clip-rule:evenodd"
viewBox="0 0 8500 11000"
 xmlns:xlink="http://www.w3.org/1999/xlink"
 xmlns:xodm="http://www.corel.com/coreldraw/odm/2003">
 <defs>
  <style type="text/css">
   <![CDATA[
    .fil0 {fill:none}
    .fil1 {fill:#ED3237}
    .fil2 {fill:#AA3235}
   ]]>
  </style>
 </defs>
 <g id="Layer_x0020_1">
  <metadata id="CorelCorpID_0Corel-Layer"/>
  <g id="_2315279264704">
   <rect class="fil0" x="3875.92" y="5493.17" width="166.67" height="166.67"/>
   <g>
    <path class="fil1" d="M3916.46 5540.19l83.52 0c5.58,0 10.99,4.63 10.15,10.15l-15.14 99.36c-0.84,5.52 -4.57,10.15 -10.15,10.15l-53.23 0c-5.58,0 -9.31,-4.63 -10.15,-10.15l-15.14 -99.36c-0.84,-5.52 4.57,-10.15 10.15,-10.15l-0 0z"/>
    <path class="fil2" d="M3958.22 5540.19l41.76 0c5.58,0 10.99,4.63 10.15,10.15l-15.14 99.36c-0.84,5.52 -4.57,10.15 -10.15,10.15l-26.62 0 0 -119.65 0 -0.01z"/>
    <path class="fil2" d="M3902.54 5534.94l111.37 0c2.2,0 4,1.8 4,4.01l0 4.44c0,2.2 -1.8,4 -4,4l-111.37 0c-2.2,0 -4,-1.8 -4,-4l0 -4.44c0,-2.2 1.8,-4.01 4,-4.01z"/>
    <path class="fil1" d="M3958.22 5534.94l57.06 0c1.45,0 2.63,1.8 2.63,4.01l0 4.44c0,2.2 -1.18,4 -2.63,4l-57.06 0 0 -12.45 0 -0z"/>
    <path class="fil2" d="M3971.96 5497.46l-13.48 -3.24c-2.56,-0.61 -5.13,-0.13 -7.22,1.15 -2.08,1.28 -3.69,3.35 -4.3,5.91l-1.02 4.22 3.86 0.93 1.02 -4.22c0.35,-1.49 1.29,-2.7 2.52,-3.45 1.22,-0.75 2.72,-1.03 4.21,-0.68l13.48 3.24c1.48,0.36 2.7,1.29 3.44,2.52 0.75,1.22 1.03,2.72 0.68,4.21l-1.02 4.22 3.86 0.93 1.01 -4.22c0.61,-2.56 0.13,-5.13 -1.15,-7.22 -1.28,-2.09 -3.35,-3.69 -5.9,-4.3l0.01 0z"/>
    <path class="fil1" d="M3971.96 5497.46l-6.74 -1.62 -0.93 3.86 6.74 1.62c1.48,0.36 2.7,1.29 3.44,2.52 0.75,1.22 1.03,2.72 0.68,4.21l-1.02 4.22 3.86 0.93 1.01 -4.22c0.61,-2.56 0.13,-5.13 -1.15,-7.22 -1.28,-2.09 -3.35,-3.69 -5.9,-4.3l0 0z"/>
    <path class="fil1" d="M3908.57 5493.29l108.29 25.98c2.15,0.52 3.47,2.69 2.96,4.83l-1.04 4.31c-0.52,2.14 -2.69,3.47 -4.83,2.96l-108.29 -26c-2.14,-0.51 -3.48,-2.69 -2.96,-4.83l1.04 -4.31c0.51,-2.14 2.69,-3.47 4.83,-2.96l0 0.01z"/>
    <path class="fil2" d="M3962.72 5506.28l55.48 13.31c1.41,0.33 2.13,2.37 1.62,4.5l-1.04 4.31c-0.52,2.14 -2.08,3.62 -3.49,3.28l-55.48 -13.32 2.91 -12.09 0 0.01z"/>
   </g>
  </g>
 </g>
</svg>
