<?xml version="1.0" encoding="UTF-8"?>
<!DOCTYPE svg PUBLIC "-//W3C//DTD SVG 1.1//EN" "http://www.w3.org/Graphics/SVG/1.1/DTD/svg11.dtd">
<!-- Creator: CorelDRAW 2019 (64-Bit) -->
<svg xmlns="http://www.w3.org/2000/svg" xml:space="preserve" width="0.166661in" height="0.166661in" version="1.1" style="shape-rendering:geometricPrecision; text-rendering:geometricPrecision; image-rendering:optimizeQuality; fill-rule:evenodd; clip-rule:evenodd"
viewBox="0 0 166.66 166.66"
 xmlns:xlink="http://www.w3.org/1999/xlink"
 xmlns:xodm="http://www.corel.com/coreldraw/odm/2003">
 <defs>
  <style type="text/css">
   <![CDATA[
    .fil0 {fill:none}
    .fil1 {fill:#FBB457;fill-rule:nonzero}
   ]]>
  </style>
 </defs>
 <g id="Camada_x0020_1">
  <metadata id="CorelCorpID_0Corel-Layer"/>
  <rect class="fil0" x="-0" y="-0.01" width="166.67" height="166.67"/>
  <g id="_2315193348640">
   <path class="fil1" d="M104.41 46.95l0 9.82c0,0 -0.07,0.02 -0.19,0.06 -0.94,0.32 -5.12,1.65 -8.17,1.77 -0.64,0.03 -1.61,-0.43 -2.76,-1.19 -4.33,-2.85 -11.22,-9.96 -13.06,-11.89 -1.78,-0.31 -3.04,-0.9 -3.04,-0.9l1.11 -7.2c0,0 -0.91,-0.33 -1.35,-1.25 -0.44,-0.92 -0.1,-1.56 0.85,-1.16 0.95,0.41 2.78,-0.17 3.49,1.02 0.52,0.87 1.63,3.21 2.18,4.4l14.14 9.34 4.01 -1.67 2.78 -1.16 0.01 -0z"/>
   <path class="fil1" d="M75.51 35.39c0,0 -0.89,-0.3 -1.53,0.64 -0.64,0.94 0.1,1.88 0.94,2.31 0.84,0.43 4.12,1.96 4.61,0.97 0.48,-0.99 -0.88,-2 -1.43,-2.27 0,0 -1.3,-0.48 -1.41,-1.27l-1.18 -0.38z"/>
   <path class="fil1" d="M74.19 37.67c0,0 -0.69,1.12 -0.26,2.3 0.43,1.17 2.62,1.69 3.56,1.99 0.94,0.31 1.96,-0.56 2.14,-1.22 0.18,-0.66 -0.65,-1.22 -0.65,-1.22 0,0 -4.13,-1.46 -4.79,-1.84z"/>
   <path class="fil1" d="M74.19 40.4c0,0 -0.26,1.68 0.33,2.39 0.58,0.71 2.85,0.81 3.36,0.66 0.51,-0.15 0.99,-0.71 0.99,-1.04 0,-0.33 -0.46,-0.51 -0.46,-0.51 0,0 -0.36,0.16 -1.45,-0.15 -1.09,-0.3 -2.77,-1.35 -2.77,-1.35z"/>
   <path class="fil1" d="M104.4 46.96l-0.19 9.88c-0.94,0.32 -5.12,1.65 -8.17,1.77 -0.64,0.03 -1.61,-0.43 -2.76,-1.19 0.74,-0.31 2.08,-0.78 3.15,-0.7 1.57,0.12 1.78,0.91 3.39,0.25 1.37,-0.56 1.72,-6.97 1.8,-8.85l2.78 -1.16z"/>
   <path class="fil1" d="M68.07 34.46c0,0 -0.33,1.09 -0.33,1.65l9.3 0.46 -2.89 -0.77 -6.08 -1.34z"/>
   <path class="fil1" d="M75.11 43.18c0,0 0.14,0.91 1.03,1.4 0.89,0.48 2.17,0.15 2.6,-0.15 0.43,-0.31 0.48,-0.56 0.3,-0.91 -0.18,-0.34 -0.77,-0.46 -0.77,-0.46 0,0 -1.22,0.86 -3.17,0.12z"/>
   <path class="fil1" d="M76.83 35.13c0,0 1.19,1.35 2.83,1.49 1.63,0.14 2.43,3.36 2.49,4.24 0.06,0.88 -0.36,1.61 -0.36,1.61 0,0 1.41,0.67 1.24,1.19 -0.17,0.52 -1.76,-0.5 -2.3,-0.28 -0.54,0.22 -1.44,1.65 -2.1,1.75 -0.66,0.1 -1.21,-2.22 -1.31,-3.75 -0.09,-1.52 0.58,-2.21 0.3,-3.09 -0.28,-0.88 -1.8,-2.63 -0.78,-3.18z"/>
   <path class="fil1" d="M77.17 36.62c0,0 -6.9,-1.56 -10.31,-2.3l1.02 -1.7c0,0 5.16,1.19 8.95,2.52 0,0 0.25,1.29 0.34,1.49z"/>
   <path class="fil1" d="M76.95 36.3c0,0 -8.78,-2.85 -10.43,-3.11 0,0 2.54,-2.98 3,-3.43 0,0 4.96,1.62 8.12,5.13 0,0 -0.82,-0.21 -0.69,1.41z"/>
   <path class="fil1" d="M112.69 128.35l13.33 25.06 9.22 -6.41c0,0 -7.5,-16.77 -9.22,-20.91 -1.71,-4.15 -4.08,-9.32 -4.08,-9.32 0,0 2.28,-35.34 2.28,-38.9l-10.39 0c-3.44,13.51 -1.76,47.09 -1.14,50.48z"/>
   <polygon class="fil1" points="103.45,74.43 103.45,77.88 124.22,77.88 124.22,74.32 "/>
   <path class="fil1" d="M116.22 20.48l1.47 6.11 -9.55 2.33 -0.2 -1.03 -0.65 -3.31c0,0 -2.17,0.44 -3.98,0.37l-0.02 0c-0,0 -0,0 -0.01,0 -1.11,-0.04 -2.08,-0.28 -2.32,-0.93 -0.64,-1.72 -0.94,-6 -0.94,-6l-0.56 -1.11c-0.28,-0.54 -0.07,-1.2 0.44,-1.52 0.22,-0.14 0.47,-0.32 0.72,-0.56 0.92,-0.85 0.74,-2.57 1.1,-5.14 0.37,-2.57 1.29,-4.28 1.29,-4.28 0,0 3.24,-1.9 7.52,-1.59 4.28,0.31 8.02,2.81 8.02,6.85 0,4.04 -2.32,9.79 -2.32,9.79z"/>
   <path class="fil1" d="M113.31 22.7c-1.91,2.36 -4.2,4.95 -4.99,5.2 -0.09,0.03 -0.22,0.03 -0.39,0l-0.65 -3.31c0,0 -2.17,0.44 -3.98,0.37l-0.1 -0.57c0,0 4.75,-0.81 6.5,-2.47 1.75,-1.66 2.01,-2.9 2.01,-2.9 0,0 1.59,-0.33 2.63,0 1.04,0.33 0.88,1.31 -1.02,3.68z"/>
   <path class="fil1" d="M118.83 25.94c0,0 -0.89,-2.33 -1.43,-2.52 -0.53,-0.19 -9.63,2.75 -10,3.03 -0.37,0.28 -0.46,3.76 -0.46,3.76l11.89 -4.27z"/>
   <path class="fil1" d="M125.12 73.83c-0.05,0.96 -0.85,1.72 -1.81,1.72l-19.04 0c-1,0 -1.82,-0.81 -1.82,-1.82 0,-0.59 0.01,-1.29 0.03,-2.08 0.21,-8.43 1.37,-26.84 1.32,-30.25 -0.06,-4.34 3.15,-11.19 3.15,-11.19l11.87 -4.27 0 0c0,0 4.8,2.72 6.44,8 1.58,5.06 0.24,32.68 -0.15,39.88z"/>
   <path class="fil1" d="M107.62 19.87c-0.33,2.3 -1.56,4.46 -4.34,5.09 -0,0 -0,0 -0.01,0 -0.95,-0.03 -1.8,-0.21 -2.17,-0.68 -0.07,-0.07 -0.11,-0.16 -0.15,-0.25 -0.5,-1.33 -0.79,-4.2 -0.9,-5.43 -0.03,-0.35 -0.04,-0.57 -0.04,-0.57l-0.56 -1.11c-0.15,-0.31 -0.16,-0.65 -0.04,-0.94 0.09,-0.23 0.26,-0.44 0.48,-0.57 0.22,-0.14 0.47,-0.32 0.72,-0.56 0,0 2.11,1.19 4.38,1.74 0.38,0.09 0.72,0.18 1.02,0.28 1.46,0.46 1.89,1.07 1.61,2.98z"/>
   <path class="fil1" d="M90.24 70.92l-23.79 0c-2.55,0 -4.62,-2.07 -4.62,-4.62l0 -15.84c0,-2.55 2.07,-4.62 4.62,-4.62l23.79 0c2.55,0 4.62,2.07 4.62,4.62l0 15.84c0,2.55 -2.07,4.62 -4.62,4.62z"/>
   <polygon class="fil1" points="79.41,70.92 76.9,70.92 76.9,45.84 79.41,45.84 "/>
   <polygon class="fil1" points="94.86,58.38 61.83,58.38 61.83,56.55 94.86,56.55 "/>
   <path class="fil1" d="M71.35 50.8l-3.32 0c-0.28,0 -0.51,-0.23 -0.51,-0.51l0 -1.51c0,-0.28 0.23,-0.51 0.51,-0.51l3.32 0c0.28,0 0.51,0.22 0.51,0.51l0 1.51c0,0.28 -0.23,0.51 -0.51,0.51z"/>
   <path class="fil1" d="M113.07 18.99l3.26 1.2c0,0 3.02,-3.73 3.53,-8.65 0.51,-4.92 -3.53,-6.99 -3.53,-6.99 -3.67,-3.56 -10.89,-2.81 -13.91,-1.66 -3.02,1.15 -3.87,4.34 -3.09,5.43 0.78,1.09 1.7,-0.48 1.7,-0.48 0,0 -0.27,1.63 0.85,2.04 1.12,0.41 1.49,-1.49 1.49,-1.49 0,0 0.1,1.59 0.79,2 0.69,0.41 1.17,-1.22 1.17,-1.22 0.43,1.5 2.65,1.91 2.65,1.91 0,0 0.19,1.61 0.96,2.25 0.76,0.64 1.2,0.76 1.2,0.76l-0.25 2.48c0,0 0.16,0.26 0.83,-0.46 0.67,-0.71 0.78,-1.56 0.78,-1.56 0,0 0.26,-1.56 1.54,-1.56 1.28,-0 1.37,1.26 1.31,1.87 -0.05,0.62 -0.4,2.03 -0.4,2.28 -0.01,0.25 -0.31,1.52 -0.86,1.86z"/>
   <path class="fil1" d="M121.72 42.76c-0.49,5.02 -1.24,14.26 -1.72,17.44 -0.2,1.31 -0.29,2.74 -0.54,4.02 -0.36,1.83 -1.06,3.38 -2.93,3.88 -0.09,0.03 -0.2,0.06 -0.32,0.09 -0.4,0.11 -0.95,0.26 -1.63,0.43 -5.13,1.33 -17.22,4.4 -21.13,4.94 -0.13,0.07 -0.26,0.16 -0.41,0.24 -0,0 -0,0 -0,0 -1.04,0.62 -2.49,1.44 -3.78,2.04 -0.82,0.38 -1.57,0.67 -2.12,0.75 -2.12,0.32 -3.24,-0.77 -3.24,-0.77 0,0 0,0 -1.12,-0.24 -1.12,-0.23 -1.71,-1.3 -1.71,-1.3 -0.91,-0.12 -1.54,-1.33 -0.8,-1.59 0.74,-0.26 1.18,0.21 2.33,0.21 0.23,0 0.46,-0.03 0.7,-0.07 0.89,-0.19 1.75,-0.63 1.85,-0.69l-1.87 0.27 -0.07 0.01c0,0 -2.24,-0.29 -2.77,-0.46 -0.53,-0.18 -0.94,-1.12 0,-1.41 0.42,-0.13 1.05,-0.13 1.72,-0.12 0.85,0.01 1.76,0.03 2.4,-0.2 1.15,-0.41 3.01,-1.44 2.78,-1.56 -0.16,-0.08 -0.93,0.01 -1.76,0.09 -0.35,0.04 -0.72,0.07 -1.05,0.08 -1.12,0.06 -1.62,-1.18 -0.83,-1.32 0.76,-0.14 2.16,-0.71 3.47,-0.89 0.06,-0.01 0.13,-0.02 0.19,-0.03 1.36,-0.15 5.21,0.77 5.33,0.82l16.98 -7.42c0,0 -0.03,-14.44 0,-14.93 0.03,-0.49 -1.01,-8.93 0,-11.38l12.02 1.13c0,0 0.49,2.91 0,7.93z"/>
   <path class="fil1" d="M121.94 49.51l-13 0.44c0,0 -0.16,-1.37 -0.31,-3.3 -0.16,-2.03 -0.3,-4.68 -0.23,-7.02 0.06,-1.98 0.31,-3.63 0.57,-4.86 0.42,-1.95 1.86,-3.54 3.77,-4.11 1.17,-0.35 2.28,-0.51 3.28,-0.49 3.13,0.05 5.32,1.77 5.92,4.36 0.57,2.43 0,14.98 0,14.98z"/>
   <path class="fil1" d="M121.94 49.51l-13 0.44c0,0 -0.16,-1.37 -0.31,-3.3 0.99,0.17 2.17,0.26 3.42,0.09 3.22,-0.44 3.29,0.17 5.65,-0.38 2.36,-0.55 0.18,-3.33 1.14,-6.03 0.97,-2.7 0.72,-5.59 -2.25,-9.22 -0.31,-0.38 -0.49,-0.7 -0.56,-0.94 3.13,0.05 5.32,1.77 5.92,4.36 0.57,2.43 0,14.98 0,14.98z"/>
   <path class="fil1" d="M124.22 77.88c0,0 -0.04,0.74 -0.13,2.34 -0.11,2 -0.29,5.35 -0.57,10.25 -0.01,0.19 -0.02,0.38 -0.03,0.57 -0.04,0.69 -0.1,1.41 -0.17,2.15 -0.77,7.57 -3.26,17.68 -4.15,21.13 -0.19,0.77 -0.31,1.21 -0.31,1.21 0,0 0.02,1.11 0.04,2.76 0.04,3.58 0.09,9.72 -0.04,12.69 -0.13,3 -0.08,13.67 -0.04,19.95 0.02,2.8 0.04,4.72 0.04,4.72l-12.81 0c0,0 -0.08,-1.61 -0.19,-4.16 -0.45,-9.57 -1.5,-32.48 -1.5,-34.27 0,-2.26 -0.94,-15.07 -0.89,-21.67 0.04,-4.87 0.02,-12.19 0.01,-15.69 -0,-1.24 -0.01,-2 -0.01,-2l20.77 0z"/>
   <path class="fil1" d="M115.94 165.72c-1.48,0.21 -12.15,-0.04 -13.21,0 -1.06,0.04 -4.52,0.35 -5.41,-0.21 -0.88,-0.56 0.74,-1.56 0.96,-2.01 0.21,-0.46 0.95,-0.74 2.08,-1.09 1.13,-0.35 8.62,-3.78 8.62,-3.78l-0.07 -1.84 -0.04 -1.1 8.16 0c0,0 0.06,0.57 0.13,1.41 0.16,1.6 0.41,4.17 0.57,5.57 0.25,2.12 -0.31,2.86 -1.8,3.07z"/>
   <path class="fil1" d="M118.27 166.07c-0.32,0.25 -20.31,0.99 -22.46,0.32 -0.63,-0.2 -0.52,-1.04 0.05,-2.08 1.38,-2.53 5.5,-6.24 8.5,-4.84 1,0.46 1.48,2.37 2.02,3.92 0.53,1.56 10.81,0.46 11.66,1.17 0.3,0.25 0.46,0.48 0.52,0.69 0.12,0.38 -0.07,0.67 -0.28,0.83z"/>
   <path class="fil1" d="M127.38 152.46c0,0 1.92,1.56 1.92,2.83 0,1.27 -0.96,4.71 -0.96,4.71l4.07 2.07c0,0 4.71,-3.44 6.45,-4.81 1.74,-1.36 1.32,-3.11 0.66,-3.86 -0.66,-0.75 -4.79,-5.09 -5.13,-5.82l-7.02 4.87z"/>
   <path class="fil1" d="M128.22 156.94c0,0 3.68,2.26 4.57,2.78 0.89,0.52 7.63,-5.56 8.2,-5.28 0.56,0.28 0.89,0.85 0.52,1.46 -0.38,0.61 -6.78,6.17 -9.04,7.96 -2.49,1.97 -8.97,2.8 -9.46,1.54 -0.37,-0.93 0.7,-3.39 1.93,-5.27 1.22,-1.89 1.98,-3.33 3.3,-3.19z"/>
   <path class="fil1" d="M80.46 70.55c0.42,-0.13 1.05,-0.13 1.72,-0.12 0.42,0.25 0.77,0.53 0.91,0.78 0.17,0.32 0.19,0.74 0.2,1.2l-0.07 0.01c0,0 -2.24,-0.29 -2.77,-0.46 -0.53,-0.18 -0.94,-1.12 0,-1.41z"/>
   <path class="fil1" d="M89.28 75.85c-0.82,0.38 -1.57,0.67 -2.12,0.75 -2.12,0.32 -3.24,-0.77 -3.24,-0.77 0,0 0,0 -1.12,-0.24 -1.12,-0.23 -1.71,-1.3 -1.71,-1.3 -0.91,-0.12 -1.54,-1.33 -0.8,-1.59 0.74,-0.26 1.18,0.21 2.33,0.21 0.23,0 0.46,-0.03 0.7,-0.07 0.02,0.56 0.07,1.16 0.36,1.69 0.5,0.89 3.9,1.27 5.6,1.33z"/>
   <path class="fil1" d="M119 83.97c0.44,3.08 0.11,2.64 0.88,4.73 0.5,1.37 2.37,1.7 3.64,1.77 -0.01,0.19 -0.02,0.38 -0.03,0.57 -0.04,0.69 -0.1,1.41 -0.17,2.15 -1.82,0.23 -4.78,0.06 -5.08,0.91 -0.44,1.22 -0.55,3.07 -1.93,6.37 -1.38,3.3 -1.7,12.66 -1.04,13.87 0.48,0.88 2.67,0.26 3.89,-0.03 -0.19,0.77 -0.31,1.21 -0.31,1.21 0,0 0.02,1.11 0.04,2.76 -1.41,0.85 -4.02,1.49 -4.18,2.77 -0.22,1.76 -0.66,5.17 0.11,9.47 0.77,4.3 -0.88,14.97 0.45,18.37 0.71,1.81 2.25,2.13 3.54,2.02 0.02,2.8 0.04,4.72 0.04,4.72l-12.81 0c0,0 -0.08,-1.61 -0.19,-4.16 1.52,-0.49 4.44,-1.74 5.01,-4.28 0.77,-3.47 -1.1,-16.79 -1.1,-18.78 0,-1.98 0.55,-8.15 -0.11,-9.86 -0.66,-1.71 0.11,-3.24 0.22,-4.67 0.11,-1.43 -0.55,-2.31 0.22,-9.47 0.77,-7.16 2.98,-18.94 1.1,-21.47 -1.58,-2.14 -6.29,-2.91 -7.72,-3.1 -0,-1.24 -0.01,-2 -0.01,-2l20.77 0c0,0 -0.04,0.74 -0.13,2.34 -2.18,0.55 -5.39,1.7 -5.09,3.75z"/>
   <path class="fil1" d="M125.12 73.83c-0.05,0.96 -0.85,1.72 -1.81,1.72l-19.04 0c-1,0 -1.82,-0.81 -1.82,-1.82 0,-0.59 0.01,-1.29 0.03,-2.08 0.95,0.65 2.32,1.28 4.07,1.33 3.63,0.09 7.61,-1.4 11.13,-1.37 3.51,0.04 4.24,-4.43 5.37,-11.17 1.12,-6.74 0.79,-28.75 -3.17,-31.51 -1.52,-1.06 -1.57,-2.1 -1.06,-2.98l0 0c0,0 4.8,2.72 6.44,8 1.58,5.06 0.24,32.68 -0.15,39.88z"/>
   <path class="fil1" d="M116.22 68.19c-0.4,0.11 -0.95,0.26 -1.63,0.43 -5.13,1.33 -17.22,4.4 -21.13,4.94 -0.13,0.07 -0.26,0.16 -0.41,0.24 0.09,-0.14 0.15,-0.26 0.15,-0.37 0,-0.69 -0.45,-3.17 -0.21,-3.58 0.25,-0.41 1.12,2.4 1.49,2.6 0.37,0.2 19.94,-4.54 21.89,-5.74 0.84,-0.52 0.51,0.33 -0.16,1.48z"/>
   <path class="fil1" d="M87.2 66.63c-0.06,0.96 -0.83,1.66 -1.59,2.13 -0.35,0.04 -0.72,0.07 -1.05,0.08 -1.12,0.06 -1.62,-1.18 -0.83,-1.32 0.76,-0.14 2.16,-0.71 3.47,-0.89z"/>
   <path class="fil1" d="M100.05 18.61c-0.03,-0.35 -0.04,-0.57 -0.04,-0.57l-0.56 -1.11c-0.15,-0.31 -0.16,-0.65 -0.04,-0.94 0.45,0.19 2.57,1.07 2.71,1.34 0.15,0.28 -1.3,1.42 -2.07,1.28z"/>
   <path class="fil1" d="M107.62 19.87c-0.33,2.3 -1.56,4.46 -4.34,5.09 -0,0 -0,0 -0.01,0 -0.95,-0.03 -1.8,-0.21 -2.17,-0.68 0.92,0.14 2.58,0.05 3.89,-2 1.56,-2.43 0.94,-4.6 1.02,-5.41 1.46,0.46 1.89,1.07 1.61,2.98z"/>
   <path class="fil1" d="M118.27 166.07c-0.32,0.25 -20.31,0.99 -22.46,0.32 -0.63,-0.2 -0.52,-1.04 0.05,-2.08 0.95,0.45 2.68,0.94 5.09,0.43 3.85,-0.83 1.1,-4.62 2.09,-4.68 0.99,-0.06 1.71,2.04 2.09,3.46 0.38,1.44 3.69,2.11 6.61,2.16 2.31,0.04 5.56,-0.3 6.81,-0.44 0.12,0.38 -0.07,0.67 -0.28,0.83z"/>
   <path class="fil1" d="M116.21 157.47c0,0 0.33,0.66 0,1.98 -0.33,1.32 -1.9,1.98 -1.9,1.98 0,0 -0.04,-3.1 -0.82,-3.43 -0.56,-0.23 -3.11,-0.87 -4.57,-1.23l-0.04 -1.1 8.16 0c0,0 0.06,0.57 0.13,1.41l-0.96 0.39z"/>
   <polygon class="fil1" points="32.11,150.46 31.03,156.91 40.86,157.16 41.6,151.62 "/>
   <path class="fil1" d="M54.53 165.92c-2.65,1.32 -10.71,0.44 -14.17,0.63 -3.46,0.19 -10.52,0 -10.96,-0.88 -0.44,-0.89 0.69,-5.54 0.69,-6.68 0,-0.63 0.13,-1.5 0.26,-2.15 0.03,-0.16 0.11,-0.3 0.21,-0.41 0.19,-0.21 0.49,-0.31 0.8,-0.24 0.85,0.2 2.26,0.47 3.9,0.47 1.94,0 4.26,-0.51 5.35,-0.78 0.38,-0.09 0.77,0.09 0.94,0.44 0.2,0.4 0.47,0.95 0.7,1.48 0.44,1.01 4.79,1.26 8,2.52 2.76,1.08 2.96,2.35 3.44,2.96 0.08,0.1 0.17,0.19 0.28,0.25 0.75,0.44 0.56,2.4 0.56,2.4z"/>
   <path class="fil1" d="M54.53 165.92c-2.65,1.32 -10.71,0.44 -14.17,0.63 -3.46,0.19 -10.52,0 -10.96,-0.88 -0.44,-0.89 0.69,-5.54 0.69,-6.68 0,-0.63 0.13,-1.5 0.26,-2.15 0.03,-0.16 0.11,-0.3 0.21,-0.41 0.91,0.37 2.84,1.01 5.14,0.98 3.21,-0.04 1.81,1.47 -0.74,2.31 -2.56,0.84 -2.96,2.94 -1.83,3.52 1.13,0.58 4.72,-0.76 9.22,0.63 4.5,1.39 10.56,-0.09 11.35,-0.61 0.08,0.1 0.17,0.19 0.28,0.25 0.75,0.44 0.56,2.4 0.56,2.4z"/>
   <path class="fil1" d="M50.76 16.93l-0.56 1.11c0,0 -0.24,3.49 -0.78,5.43 -0.05,0.21 -0.11,0.4 -0.17,0.57 -0.64,1.71 -6.33,0.55 -6.33,0.55l-0.49 2.5 -0.36 1.85 -9.55 -2.33 1.47 -6.11c0,0 -2.32,-5.75 -2.32,-9.79 0,-4.04 3.73,-6.55 8.02,-6.85 4.28,-0.31 7.53,1.59 7.53,1.59 0,0 0.92,1.71 1.28,4.28 0.37,2.57 0.19,4.28 1.1,5.14 0.25,0.24 0.5,0.42 0.72,0.56 0.52,0.32 0.72,0.97 0.44,1.52z"/>
   <path class="fil1" d="M49.43 23.47c-0.05,0.21 -0.11,0.4 -0.17,0.57 -0.64,1.71 -6.33,0.55 -6.33,0.55l-0.49 2.5 -2.66 -0.27 -2.78 -7.74 1.5 0.18c0,0 0.71,2.74 3.39,3.48 1.96,0.55 5.64,0.81 7.54,0.74z"/>
   <path class="fil1" d="M31.38 25.94c0,0 0.89,-2.33 1.43,-2.52 0.53,-0.19 9.63,2.75 10,3.03 0.37,0.28 0.46,3.76 0.46,3.76l-11.89 -4.27z"/>
   <path class="fil1" d="M47.77 75.55l-22.58 0c0,0 -0.36,-16.87 -0.07,-29.12 0.14,-5.74 0.42,-10.47 0.95,-11.97 0.13,-0.37 0.26,-0.73 0.41,-1.07 2.16,-5.4 4.91,-7.44 4.91,-7.44l0.88 0.31 11 3.95c0,0 2.21,3.54 3.37,10.21 0.5,2.85 0.83,17.51 1,26.97 0.02,0.95 0.04,1.85 0.05,2.68 0.01,0.58 0.02,1.13 0.03,1.64 0.04,2.36 0.06,3.84 0.06,3.84z"/>
   <path class="fil1" d="M47.77 75.55l-22.58 0c0,0 -0.78,-36.4 0.88,-41.09 2.2,-6.2 5.31,-8.51 5.31,-8.51l0.88 0.31c-1.46,1.69 -3.35,5.54 -3.55,14.16 -0.32,13.85 1.06,28.85 18.97,29.65 0.06,3.29 0.08,5.48 0.08,5.48z"/>
   <path class="fil1" d="M37.19 19.01l-3.26 1.2c0,0 -3.02,-3.73 -3.53,-8.65 -0.51,-4.92 3.53,-6.99 3.53,-6.99 3.67,-3.56 6.53,-2.46 9.55,-1.3 3.02,1.15 4.78,5.18 4.78,5.18l-3.33 0.74c-0.43,1.49 -2.64,1.91 -2.64,1.91 0,0 -0.2,1.61 -0.96,2.25 -0.76,0.64 -1.2,0.76 -1.2,0.76l0.25 2.48c0,0 -0.16,0.25 -0.83,-0.46 -0.67,-0.71 -0.78,-1.56 -0.78,-1.56 0,0 -0.26,-1.55 -1.54,-1.56 -1.28,-0.01 -1.37,1.26 -1.31,1.87 0.05,0.62 0.4,2.03 0.4,2.28 0.01,0.25 0.32,1.52 0.86,1.86z"/>
   <path class="fil1" d="M62.75 62.46l0 6.24c0,0 -0.34,0.03 -0.95,0.08 -4.07,0.34 -20.03,1.63 -25.86,1.44 -0.84,-0.03 -1.46,-0.09 -1.82,-0.18 -0.1,-0.03 -0.2,-0.06 -0.29,-0.09l-0 0c-2.01,-0.65 -2.8,-2.1 -3.26,-3.95 -0.2,-0.83 -0.34,-1.74 -0.49,-2.69 -0.49,-3.19 -1.1,-15.54 -1.59,-20.56 -0.49,-5.02 0,-7.93 0,-7.93l12.02 -1.13c1.01,2.45 -0.03,10.89 0,11.38 0.03,0.49 0,14.93 0,14.93l18.13 2 3.56 0.39 0.55 0.06z"/>
   <path class="fil1" d="M51.04 16.43c-0,0.17 -0.04,0.33 -0.13,0.49l-0.56 1.11c0,0 -0.01,0.16 -0.03,0.42 -0.1,1.11 -0.39,4.11 -0.9,5.52 -0,0.02 -0.01,0.04 -0.02,0.06 -0.24,0.65 -1.21,0.89 -2.32,0.93 -0,0 -0,0 -0.01,0 -2.78,-0.64 -4,-2.8 -4.34,-5.1 -0.29,-1.97 0.19,-2.56 1.76,-3.03 0.26,-0.08 0.55,-0.16 0.87,-0.24 2.26,-0.55 4.38,-1.74 4.38,-1.74 0.25,0.24 0.5,0.42 0.72,0.56 0.37,0.23 0.57,0.63 0.57,1.03z"/>
   <path class="fil1" d="M41.55 47.62c-0.05,1.35 -0.09,2.25 -0.09,2.25l-13 0.44c0,0 -0.68,-5.74 -0.54,-10.32 0.06,-1.98 0.31,-3.63 0.58,-4.86 0.11,-0.52 0.3,-1.01 0.54,-1.46 0.68,-1.26 1.82,-2.22 3.22,-2.65 4.83,-1.45 8.41,0.45 9.2,3.87 0.42,1.79 0.22,9 0.09,12.73z"/>
   <polygon class="fil1" points="47.77,73.72 47.77,77.86 25.08,77.86 25.08,73.72 "/>
   <path class="fil1" d="M47.92 118.73c-0.02,0.67 -0.04,1.19 -0.06,1.52 -0.05,0.76 -0.2,2.17 -0.43,3.97 -0.82,6.54 -2.57,18.35 -3.44,24.15 -0.31,2.08 -0.51,3.39 -0.51,3.39l-14.57 -0.85 0.69 -4.97 3.15 -22.86 -1.41 -17.24c0,0 -2.24,-5.78 -3.85,-10.26 -0.16,-0.44 -0.31,-0.88 -0.46,-1.28 -0.5,-1.43 -0.89,-2.62 -1.06,-3.29 -0.54,-2.14 -0.76,-8.56 -0.85,-11.56 -0.03,-0.96 -0.04,-1.58 -0.04,-1.58l22.69 0c0,0 0.01,0.7 0.02,1.93 0.06,7.11 0.28,31.79 0.13,38.94z"/>
   <path class="fil1" d="M39.06 147.23c1.2,0.6 3.67,0.98 4.94,1.15 -0.31,2.08 -0.51,3.39 -0.51,3.39l-14.57 -0.85 0.69 -4.97c1.49,-0.35 3.72,-0.93 4.18,-4.5 0.67,-5.18 1.53,-13.77 1.37,-15.31 -0.16,-1.54 -0.72,-0.99 0,-5.28 0.72,-4.3 0.93,-12.22 0,-13.87 -0.93,-1.65 0.06,-3.63 -1.59,-6.28 -1.65,-2.64 -0.11,-3.41 -1.87,-4.18 -1.47,-0.64 -3.17,-0.21 -4.2,-0.95 -0.16,-0.44 -0.31,-0.88 -0.46,-1.28 0.77,-0.64 3.76,-0.59 4.11,-3.34 0.44,-3.45 1.32,-7.86 0.55,-9.29 -0.63,-1.17 -4.96,-1.96 -6.57,-2.22 -0.03,-0.96 -0.04,-1.58 -0.04,-1.58l22.69 0c0,0 0.01,0.7 0.02,1.93 -2.5,1.08 -8.54,4 -9.49,7.48 -1.21,4.41 0.44,17.83 1.76,22.9 1.32,5.07 0.44,6.28 0.44,8.92 0,2.65 0.22,3.3 0.44,4.19 0.22,0.88 -0.66,2.2 -0.99,5.07 -0.33,2.86 0.33,2.42 -0.44,9.25 -0.77,6.82 -2.1,8.81 -0.45,9.63z"/>
   <path class="fil1" d="M41.55 47.62c-0.05,1.35 -0.09,2.25 -0.09,2.25l-13 0.44c0,0 -0.68,-5.74 -0.54,-10.32 0.06,-1.98 0.31,-3.63 0.58,-4.86 0.11,-0.52 0.3,-1.01 0.54,-1.46 0.12,3.86 1.02,10.87 5.76,13.09 2.25,1.05 4.62,1.17 6.76,0.87z"/>
   <path class="fil1" d="M53.24 8.97c0,0 -4.46,-1.31 -5.44,-1.81 -0.98,-0.49 -6.91,1.74 -8.96,1.96 -2.05,0.21 -0.96,0.76 -0.49,0.83 0,0 4.22,0.64 8.17,0.73 3.94,0.09 5.46,-1 6.88,-0.95 0.4,0.01 0.93,0.28 1.03,0.08 0.09,-0.19 0.25,-0.51 -1.19,-0.85z"/>
   <path class="fil1" d="M47.8 7.17c-3.23,1.99 -11.28,2.69 -11.28,2.69l-6.17 0.9c0,0 -0.31,-1.16 -0.33,-2.59 -0.02,-0.98 0.11,-2.1 0.56,-3.04 1.12,-2.29 4.43,-2.71 7.05,-4.08 0.74,-0.39 1.66,-0.68 2.61,-0.85 1.83,-0.33 3.81,-0.26 5.01,0.26 0.37,0.15 0.67,0.35 0.87,0.59 0.94,1.12 1.44,4.28 1.61,5.56 0.05,0.34 0.07,0.55 0.07,0.55z"/>
   <path class="fil1" d="M47.8 7.17c-3.23,1.99 -11.28,2.69 -11.28,2.69l-6.17 0.9c0,0 -0.31,-1.16 -0.33,-2.59 0.72,0.08 2.3,0.2 2.61,-0.37 0.41,-0.74 1.98,-1.04 3.81,-1.78 1.83,-0.74 2.33,-1.65 2.27,-2.48 -0.06,-0.82 0.23,-1.28 1.14,-2.23 0.53,-0.56 0.5,-0.91 0.38,-1.11 1.83,-0.33 3.81,-0.26 5.01,0.26 -0.73,0.06 -1.81,0.33 -2.59,1.38 -1.3,1.74 -1.52,3.76 -1.15,5.25 0.37,1.49 5,-0.21 5.91,-0.42 0.11,-0.03 0.21,-0.05 0.31,-0.06 0.05,0.34 0.07,0.55 0.07,0.55z"/>
   <polygon class="fil1" points="40.53,50.74 29.26,53.34 29.06,50.31 40.53,49.9 "/>
   <path class="fil1" d="M62.2 62.39l-0.41 6.38c-4.66,0.39 -24.87,2.02 -27.68,1.26 -0.1,-0.03 -0.2,-0.06 -0.29,-0.09 6,-0.81 22.64,-3.11 23.79,-3.76 1.11,-0.63 1.08,-3.16 1.02,-4.19l3.56 0.39z"/>
   <path class="fil1" d="M74.49 63.87c-0.2,0.43 -2.22,1.65 -3.07,1.83 -0.04,0.01 -0.09,0.02 -0.13,0.02 -0.35,0.06 -0.8,0.06 -1.22,0.05l-0.05 0.22 1.24 0.04 0.23 0.01c0,0 0.61,-0.2 1.42,-0.64 0.8,-0.44 0.85,-0.35 1.12,-0.21 0.28,0.14 0.23,0.57 -0.14,1.01 -0.37,0.44 -0.89,0.89 -1.9,1.17 -0.3,0.08 -0.69,0.13 -1.1,0.15 -0.41,0.02 -0.83,0.02 -1.19,0.01l-0.07 0.35 0.93 0.16 0.31 0.05c0,0 0.31,-0.23 0.86,-0.37 0.54,-0.14 1.27,-0.07 1.18,0.3 -0.09,0.37 -0.94,1.06 -1.86,1.18 -0.92,0.13 -2.22,0 -2.22,0 -0.01,-0.01 -0.02,-0.03 -0.03,-0.04 -1.47,-0.01 -4.94,-0.03 -4.94,-0.03l-3.21 0.98c0,0 -0.58,-0.49 -0.48,-1.19 0.09,-0.7 -0.19,-1.01 -0.46,-2.36 -0.27,-1.35 0.98,-1.65 0.4,-3.06 -0.58,-1.41 0.31,-2.05 0.31,-2.05 0.02,0 0.04,0.01 0.07,0.02 0.57,0.14 1.68,0.2 1.68,0.2l2.2 -1.04c0,0 0.83,-0.67 1.59,-0.95 0.09,-0.04 0.19,-0.07 0.27,-0.09 0.83,-0.21 3.03,-0.41 3.44,-0.48 0.41,-0.07 0.6,0.73 -0.2,1.1 -0.29,0.13 -0.57,0.26 -0.84,0.37 -0.49,0.21 -0.93,0.36 -1.22,0.39 -0.46,0.04 -0.96,0.9 -0.96,0.9 0,0 -0.1,-0.01 -0.26,-0.03l0.03 0.02 2.36 0.16c0.71,-0.05 1.79,-0.11 2.35,-0.15l0.04 0c0.88,-0.05 2.25,-0.61 2.64,-0.04 0.39,0.58 -0.21,1.04 -1.17,1.29 -0.33,0.09 -0.77,0.2 -1.2,0.3 -0.78,0.19 -1.52,0.36 -1.55,0.37l0.12 0.3 1.49 -0.09 0.08 -0c0,0 2.34,-1.1 2.73,-1.03 0.39,0.06 0.62,0.48 0.41,0.92z"/>
   <path class="fil1" d="M68.6 60.57c-0.98,-0.36 -2.06,-0.71 -2.67,-0.9 0.09,-0.04 0.19,-0.07 0.27,-0.09 0.83,-0.21 3.03,-0.41 3.44,-0.48 0.41,-0.07 0.6,0.73 -0.2,1.1 -0.29,0.13 -0.57,0.26 -0.84,0.37z"/>
   <path class="fil1" d="M72.91 68.02c-0.09,0.37 -0.94,1.06 -1.86,1.18 -0.92,0.13 -2.22,0 -2.22,0 -0.01,-0.01 -0.02,-0.03 -0.03,-0.04 -1.47,-0.01 -4.94,-0.03 -4.94,-0.03l-3.21 0.98c0,0 -0.58,-0.49 -0.48,-1.19 0.09,-0.7 -0.19,-1.01 -0.46,-2.36 -0.27,-1.35 0.98,-1.65 0.4,-3.06 -0.58,-1.41 0.31,-2.05 0.31,-2.05 0.02,0 0.04,0.01 0.07,0.02 0.11,0.47 0.36,1.19 0.87,1.45 0.79,0.41 0.25,1.1 -0.2,1.46 -0.45,0.36 0.22,0.94 0.48,1.47 0.26,0.54 -1.06,1.24 -0.89,1.98 0.17,0.74 7.63,1.53 9.45,0.54 0.15,-0.08 0.28,-0.19 0.4,-0.33l0.31 0.05c0,0 0.31,-0.23 0.86,-0.37 0.54,-0.14 1.27,-0.07 1.18,0.3z"/>
   <path class="fil1" d="M71.2 63.4c-0.08,-0.65 -0.2,-1.21 -0.31,-1.55l0.04 0c0.88,-0.05 2.25,-0.61 2.64,-0.04 0.39,0.58 -0.21,1.04 -1.17,1.29 -0.33,0.09 -0.77,0.2 -1.2,0.3z"/>
   <path class="fil1" d="M73.89 66.2c-0.37,0.44 -0.89,0.89 -1.9,1.17 -0.3,0.08 -0.69,0.13 -1.1,0.15 0.19,-0.42 0.3,-0.93 0.37,-1.48l0.23 0.01c0,0 0.61,-0.2 1.42,-0.64 0.8,-0.44 0.85,-0.35 1.12,-0.21 0.28,0.14 0.23,0.57 -0.14,1.01z"/>
   <path class="fil1" d="M74.49 63.87c-0.2,0.43 -2.22,1.65 -3.07,1.83 -0.04,0.01 -0.09,0.02 -0.13,0.02 0.04,-0.58 0.03,-1.18 -0.02,-1.74l0.08 -0c0,0 2.34,-1.1 2.73,-1.03 0.39,0.06 0.62,0.48 0.41,0.92z"/>
   <path class="fil1" d="M47.77 75.7l0 2.17 -22.69 0 0 -3.94c1.22,0.58 3.99,1.52 9.64,1.86 5.89,0.35 10.69,0.1 13.05,-0.09z"/>
   <path class="fil1" d="M47.92 118.73c-0.02,0.67 -0.04,1.19 -0.06,1.52 -0.05,0.76 -0.2,2.17 -0.43,3.97 -0.37,0.34 -0.87,0.46 -1.54,0.21 -3.14,-1.16 -2.7,-5.29 -2.53,-5.67 0.13,-0.31 3.31,-0.12 4.56,-0.04z"/>
   <path class="fil1" d="M51.04 16.43c-0,0.17 -0.04,0.33 -0.13,0.49l-0.56 1.11c0,0 -0.01,0.16 -0.03,0.42 -0.67,0.09 -1.65,-0.35 -1.63,-0.62 0.02,-0.33 0.46,-0.11 1.07,-0.5 0.45,-0.28 1.01,-0.71 1.26,-0.91z"/>
   <path class="fil1" d="M49.43 23.96c-0,0.02 -0.01,0.04 -0.02,0.06 -0.24,0.65 -1.21,0.89 -2.32,0.93 -0,0 -0,0 -0.01,0 -2.78,-0.64 -4,-2.8 -4.34,-5.1 -0.29,-1.97 0.19,-2.56 1.76,-3.03 -0.27,0.59 -0.65,1.63 -0.62,2.84 0.06,1.85 1.62,2.35 2.26,3.31 0.63,0.96 2.03,1.57 3.12,1.06 0.06,-0.03 0.12,-0.05 0.17,-0.07z"/>
  </g>
 </g>
</svg>
