<?xml version="1.0" encoding="UTF-8"?>
<!DOCTYPE svg PUBLIC "-//W3C//DTD SVG 1.1//EN" "http://www.w3.org/Graphics/SVG/1.1/DTD/svg11.dtd">
<!-- Creator: CorelDRAW 2019 (64-Bit) -->
<svg xmlns="http://www.w3.org/2000/svg" xml:space="preserve" width="0.166661in" height="0.166661in" version="1.1" style="shape-rendering:geometricPrecision; text-rendering:geometricPrecision; image-rendering:optimizeQuality; fill-rule:evenodd; clip-rule:evenodd"
viewBox="0 0 166.66 166.66"
 xmlns:xlink="http://www.w3.org/1999/xlink"
 xmlns:xodm="http://www.corel.com/coreldraw/odm/2003">
 <defs>
  <style type="text/css">
   <![CDATA[
    .fil0 {fill:none}
    .fil1 {fill:#FBB457;fill-rule:nonzero}
   ]]>
  </style>
 </defs>
 <g id="Camada_x0020_1">
  <metadata id="CorelCorpID_0Corel-Layer"/>
  <rect class="fil0" x="-0" y="-0" width="166.67" height="166.67"/>
  <path class="fil1" d="M160.39 38.96l-0.68 -2.46c-1.07,-3.86 -4.12,-9.11 -6.95,-11.94l-11.25 -11.25c-2.85,-2.85 -8.07,-5.81 -11.91,-6.75l-1.44 -0.35c3.02,-1.54 6.51,-2.27 10.33,-1.93 5.85,0.52 11.58,3.33 16.12,7.87 7.89,7.9 9.99,18.98 5.78,26.8zm-93.74 81.03l-19.12 -19.11 80.14 -80.15 18.74 18.74 0.17 0.6 -79.93 79.92zm-34.56 28.46c-1.47,-2.92 -3.39,-5.67 -5.83,-8.11 -2.39,-2.39 -5.06,-4.28 -7.9,-5.73l14.91 -34.38 10.29 2.51 19.72 19.72 2.2 11.8 -33.38 14.19zm83.68 -131.43l7.84 1.92 -79.64 79.65 -7.84 -1.92 79.64 -79.65zm41.75 -7.8c-5.23,-5.22 -11.85,-8.44 -18.67,-9.06 -6.19,-0.56 -11.9,1.09 -16.27,4.68l-11.5 11.02 -80.22 79.52 -30.87 71.19 70.15 -29.81 84.02 -84.7 7.67 -7.83c7.76,-9.39 6.04,-24.66 -4.31,-35.01z"/>
 </g>
</svg>
