<?xml version="1.0" encoding="UTF-8"?>
<!DOCTYPE svg PUBLIC "-//W3C//DTD SVG 1.1//EN" "http://www.w3.org/Graphics/SVG/1.1/DTD/svg11.dtd">
<!-- Creator: CorelDRAW 2019 (64-Bit) -->
<svg xmlns="http://www.w3.org/2000/svg" xml:space="preserve" width="0.166661in" height="0.166661in" version="1.1" style="shape-rendering:geometricPrecision; text-rendering:geometricPrecision; image-rendering:optimizeQuality; fill-rule:evenodd; clip-rule:evenodd"
viewBox="0 0 166.66 166.66"
 xmlns:xlink="http://www.w3.org/1999/xlink"
 xmlns:xodm="http://www.corel.com/coreldraw/odm/2003">
 <defs>
  <style type="text/css">
   <![CDATA[
    .fil0 {fill:none}
    .fil1 {fill:#FBB457;fill-rule:nonzero}
   ]]>
  </style>
 </defs>
 <g id="Layer_x0020_1">
  <metadata id="CorelCorpID_0Corel-Layer"/>
  <rect class="fil0" x="-0.01" y="-0" width="166.67" height="166.67"/>
  <g id="_2351265895840">
   <path class="fil1" d="M66.2 7.79l-58.93 67.52c-2.78,3.19 -0.51,8.17 3.72,8.17l144.66 0c4.23,0 6.5,-4.98 3.71,-8.17l-58.91 -67.52c-9.07,-10.39 -25.21,-10.39 -34.26,0z"/>
   <path class="fil1" d="M149.06 95.88l0 65.85c0,2.72 -2.21,4.93 -4.94,4.93l-49.2 0 0 -52.78 -23.17 0 0 52.78 -49.2 0c-2.72,0 -4.93,-2.21 -4.93,-4.93l0 -65.85 131.44 0z"/>
  </g>
 </g>
</svg>
