<?xml version="1.0" encoding="UTF-8"?>
<!DOCTYPE svg PUBLIC "-//W3C//DTD SVG 1.1//EN" "http://www.w3.org/Graphics/SVG/1.1/DTD/svg11.dtd">
<!-- Creator: CorelDRAW 2019 (64-Bit) -->
<svg xmlns="http://www.w3.org/2000/svg" xml:space="preserve" width="0.166661in" height="0.166661in" version="1.1" style="shape-rendering:geometricPrecision; text-rendering:geometricPrecision; image-rendering:optimizeQuality; fill-rule:evenodd; clip-rule:evenodd"
viewBox="0 0 166.66 166.66"
 xmlns:xlink="http://www.w3.org/1999/xlink"
 xmlns:xodm="http://www.corel.com/coreldraw/odm/2003">
 <defs>
  <style type="text/css">
   <![CDATA[
    .fil0 {fill:none}
    .fil1 {fill:#FBB457;fill-rule:nonzero}
   ]]>
  </style>
 </defs>
 <g id="Layer_x0020_1">
  <metadata id="CorelCorpID_0Corel-Layer"/>
  <g id="_2315197568688">
   <rect class="fil0" x="-0.01" y="-0" width="166.67" height="166.67"/>
   <g>
    <g>
     <path class="fil1" d="M4.21 97.91c-1.18,0 -2.34,-0.49 -3.18,-1.44 -1.52,-1.76 -1.33,-4.41 0.42,-5.93l49.93 -43.37c1.58,-1.37 3.93,-1.37 5.51,0l27.68 24.04 61.31 -51.51c1.78,-1.49 4.43,-1.26 5.93,0.52 1.5,1.78 1.26,4.43 -0.52,5.93l-64.06 53.81c-1.58,1.33 -3.9,1.31 -5.46,-0.05l-27.63 -24 -47.17 40.98c-0.8,0.69 -1.78,1.03 -2.76,1.03z"/>
    </g>
    <g>
     <path class="fil1" d="M162.45 41c-1.09,0 -2.17,-0.43 -2.97,-1.23l-27.76 -27.75c-1.2,-1.2 -1.56,-3.01 -0.91,-4.58 0.65,-1.57 2.19,-2.6 3.89,-2.6l27.76 0c2.33,0 4.21,1.89 4.21,4.21l0 27.75c0,1.7 -1.02,3.23 -2.6,3.88 -0.52,0.22 -1.07,0.32 -1.61,0.32zm-17.6 -27.75l0 0 13.4 13.39 0 -13.39 -13.4 0z"/>
    </g>
    <g>
     <path class="fil1" d="M4.21 139.94c-1.18,0 -2.34,-0.49 -3.18,-1.45 -1.52,-1.75 -1.33,-4.41 0.42,-5.93l49.93 -43.37c1.58,-1.37 3.93,-1.37 5.51,0l27.63 24 75.18 -65.3c1.76,-1.53 4.41,-1.33 5.93,0.42 1.52,1.75 1.33,4.41 -0.42,5.93l-77.94 67.7c-1.58,1.38 -3.93,1.38 -5.51,0l-27.63 -24 -47.17 40.97c-0.8,0.69 -1.78,1.03 -2.76,1.03z"/>
    </g>
    <g>
     <path class="fil1" d="M43.77 161.83l-39.56 0c-2.32,0 -4.2,-1.88 -4.2,-4.2l0 -21.88c0,-2.32 1.88,-4.2 4.2,-4.2 2.32,0 4.21,1.88 4.21,4.2l0 17.68 31.15 0 0 -51.52c0,-2.32 1.88,-4.2 4.2,-4.2 2.32,0 4.2,1.88 4.2,4.2l0 55.73c0,2.32 -1.88,4.2 -4.2,4.2z"/>
    </g>
    <g>
     <path class="fil1" d="M83.33 161.83l-39.56 0c-2.32,0 -4.2,-1.88 -4.2,-4.2 0,-2.32 1.88,-4.2 4.2,-4.2l35.36 0 0 -34.65c0,-2.32 1.88,-4.2 4.2,-4.2 2.32,0 4.2,1.88 4.2,4.2l0 38.85c0,2.32 -1.88,4.2 -4.2,4.2z"/>
    </g>
    <g>
     <path class="fil1" d="M122.89 161.83l-39.56 0c-2.32,0 -4.2,-1.88 -4.2,-4.2 0,-2.32 1.88,-4.2 4.2,-4.2l35.36 0 0 -67.98c0,-2.32 1.88,-4.2 4.2,-4.2 2.32,0 4.2,1.89 4.2,4.2l0 72.19c0,2.32 -1.89,4.2 -4.2,4.2z"/>
    </g>
    <g>
     <path class="fil1" d="M162.45 161.83l-39.56 0c-2.32,0 -4.2,-1.88 -4.2,-4.2 0,-2.32 1.88,-4.2 4.2,-4.2l35.36 0 0 -102.35c0,-2.32 1.88,-4.2 4.2,-4.2 2.33,0 4.21,1.88 4.21,4.2l0 106.55c0,2.32 -1.88,4.2 -4.21,4.2z"/>
    </g>
   </g>
  </g>
 </g>
</svg>
