<?xml version="1.0" encoding="UTF-8"?>
<!DOCTYPE svg PUBLIC "-//W3C//DTD SVG 1.1//EN" "http://www.w3.org/Graphics/SVG/1.1/DTD/svg11.dtd">
<!-- Creator: CorelDRAW 2019 (64-Bit) -->
<svg xmlns="http://www.w3.org/2000/svg" xml:space="preserve" width="0.166661in" height="0.166661in" version="1.1" style="shape-rendering:geometricPrecision; text-rendering:geometricPrecision; image-rendering:optimizeQuality; fill-rule:evenodd; clip-rule:evenodd"
viewBox="0 0 166.66 166.66"
 xmlns:xlink="http://www.w3.org/1999/xlink"
 xmlns:xodm="http://www.corel.com/coreldraw/odm/2003">
 <defs>
  <style type="text/css">
   <![CDATA[
    .fil0 {fill:none}
    .fil1 {fill:#FBB457;fill-rule:nonzero}
   ]]>
  </style>
 </defs>
 <g id="Layer_x0020_1">
  <metadata id="CorelCorpID_0Corel-Layer"/>
  <g id="_2351020629776">
   <rect class="fil0" x="-0.01" y="-0" width="166.67" height="166.67"/>
   <g>
    <g>
     <path class="fil1" d="M140.13 146.71l-113.69 0c-2.44,0 -4.43,-1.98 -4.43,-4.43l0 -65.35c0,-2.45 1.99,-4.43 4.43,-4.43 2.45,0 4.43,1.98 4.43,4.43l0 60.92 104.82 0 0 -60.92c0,-2.45 1.98,-4.43 4.43,-4.43 2.45,0 4.43,1.98 4.43,4.43l0 65.35c0,2.45 -1.98,4.43 -4.43,4.43z"/>
    </g>
    <g>
     <path class="fil1" d="M140.13 47.65l-113.69 0c-2.44,0 -4.43,-1.98 -4.43,-4.43 0,-2.44 1.99,-4.43 4.43,-4.43l113.69 0c2.45,0 4.43,1.98 4.43,4.43 0,2.45 -1.98,4.43 -4.43,4.43z"/>
    </g>
    <g>
     <path class="fil1" d="M152.53 146.71l-138.49 0c-2.45,0 -4.43,-1.98 -4.43,-4.43 0,-2.44 1.98,-4.43 4.43,-4.43l138.49 0c2.45,0 4.43,1.98 4.43,4.43 0,2.45 -1.98,4.43 -4.43,4.43z"/>
    </g>
    <g>
     <path class="fil1" d="M162.23 81.36c-0.03,0 -0.06,0 -0.09,0l-157.7 0c-1.63,0 -3.13,-0.89 -3.9,-2.32 -0.77,-1.43 -0.7,-3.17 0.19,-4.54l21.29 -32.61 0 -17.51c0,-2.45 1.99,-4.43 4.43,-4.43l113.69 0c2.45,0 4.43,1.98 4.43,4.43l0 17.51 20.87 31.98c0.76,0.8 1.22,1.87 1.22,3.06 0,2.44 -1.98,4.43 -4.43,4.43zm-149.61 -8.86l0 0 141.33 0 -17.54 -26.87c-0.47,-0.72 -0.72,-1.56 -0.72,-2.42l0 -14.4 -104.82 0 0 14.4c0,0.86 -0.25,1.7 -0.72,2.43l-17.54 26.86z"/>
    </g>
    <g>
     <g>
      <g>
       <path class="fil1" d="M57.7 136.41c-0.15,0 -0.3,-0.03 -0.44,-0.09l-17.73 -7.32c-0.43,-0.18 -0.72,-0.6 -0.72,-1.07l0 -15.34c0,-0.64 0.52,-1.16 1.16,-1.16 0.64,0 1.16,0.52 1.16,1.16l0 14.57 15.41 6.36 0 -21.77 -17.01 -7.02c-0.59,-0.24 -0.87,-0.92 -0.63,-1.52 0.24,-0.59 0.93,-0.87 1.52,-0.63l17.72 7.32c0.44,0.18 0.72,0.6 0.72,1.07l0 24.28c0,0.39 -0.19,0.75 -0.51,0.96 -0.2,0.13 -0.42,0.2 -0.65,0.2z"/>
      </g>
      <g>
       <path class="fil1" d="M57.7 136.41c-0.23,0 -0.45,-0.07 -0.65,-0.2 -0.32,-0.21 -0.51,-0.57 -0.51,-0.96l0 -24.28c0,-0.47 0.28,-0.89 0.72,-1.07l17.73 -7.32c0.59,-0.24 1.27,0.04 1.52,0.63 0.24,0.59 -0.04,1.27 -0.63,1.52l-17.02 7.02 0 21.77 15.41 -6.36 0 -14.74c0,-0.64 0.52,-1.16 1.16,-1.16 0.64,0 1.16,0.52 1.16,1.16l0 15.52c0,0.47 -0.28,0.89 -0.72,1.07l-17.73 7.32c-0.14,0.06 -0.29,0.09 -0.44,0.09z"/>
      </g>
      <g>
       <path class="fil1" d="M52.67 118.44c-0.15,0 -0.3,-0.03 -0.44,-0.09l-17.73 -7.31c-0.33,-0.14 -0.59,-0.43 -0.68,-0.78 -0.09,-0.35 -0.01,-0.73 0.22,-1.02l5.04 -6.31c0.12,-0.15 0.28,-0.27 0.45,-0.34l17.7 -7.51c0.29,-0.13 0.66,-0.13 0.95,0l17.7 7.5c0.59,0.25 0.87,0.93 0.62,1.52 -0.25,0.59 -0.93,0.87 -1.52,0.62l-16.12 -6.83 0 13.08c0,0.26 -0.09,0.52 -0.25,0.72l-5.04 6.31c-0.22,0.28 -0.56,0.43 -0.91,0.43zm-15.85 -8.96l0 0 15.49 6.39 4.24 -5.31 0 -12.68 -15.85 6.72 -3.89 4.87z"/>
      </g>
      <g>
       <path class="fil1" d="M62.74 118.44c-0.46,0 -0.89,-0.27 -1.07,-0.72 -0.24,-0.59 0.04,-1.27 0.63,-1.51l17.72 -7.31c0.59,-0.24 1.27,0.04 1.52,0.63 0.24,0.59 -0.04,1.27 -0.63,1.52l-17.73 7.31c-0.14,0.06 -0.29,0.09 -0.44,0.09z"/>
      </g>
      <g>
       <path class="fil1" d="M62.74 118.44c-0.34,0 -0.68,-0.15 -0.91,-0.43l-5.04 -6.31c-0.4,-0.5 -0.32,-1.23 0.18,-1.63 0.5,-0.4 1.23,-0.32 1.63,0.18l5.04 6.31c0.4,0.5 0.32,1.23 -0.18,1.63 -0.22,0.17 -0.47,0.25 -0.72,0.25z"/>
      </g>
      <g>
       <path class="fil1" d="M80.47 111.09c-0.34,0 -0.68,-0.15 -0.91,-0.43l-5.04 -6.31c-0.4,-0.5 -0.31,-1.23 0.19,-1.63 0.5,-0.4 1.23,-0.31 1.63,0.19l5.04 6.31c0.4,0.5 0.32,1.23 -0.18,1.63 -0.22,0.17 -0.47,0.25 -0.72,0.25z"/>
      </g>
     </g>
     <g>
      <g>
       <path class="fil1" d="M108.87 136.41c-0.15,0 -0.3,-0.03 -0.44,-0.09l-17.73 -7.32c-0.43,-0.18 -0.72,-0.6 -0.72,-1.07l0 -15.34c0,-0.64 0.52,-1.16 1.16,-1.16 0.64,0 1.16,0.52 1.16,1.16l0 14.57 15.41 6.36 0 -21.77 -17.01 -7.02c-0.59,-0.24 -0.87,-0.92 -0.63,-1.52 0.24,-0.59 0.93,-0.87 1.52,-0.63l17.72 7.32c0.44,0.18 0.72,0.6 0.72,1.07l0 24.28c0,0.39 -0.19,0.75 -0.51,0.96 -0.2,0.13 -0.42,0.2 -0.65,0.2z"/>
      </g>
      <g>
       <path class="fil1" d="M108.87 136.41c-0.22,0 -0.45,-0.07 -0.65,-0.2 -0.32,-0.21 -0.51,-0.57 -0.51,-0.96l0 -24.28c0,-0.47 0.28,-0.89 0.72,-1.07l17.73 -7.32c0.59,-0.24 1.27,0.04 1.52,0.63 0.24,0.59 -0.04,1.27 -0.63,1.52l-17.02 7.02 0 21.77 15.41 -6.36 0 -14.74c0,-0.64 0.52,-1.16 1.16,-1.16 0.64,0 1.16,0.52 1.16,1.16l0 15.52c0,0.47 -0.28,0.89 -0.72,1.07l-17.73 7.32c-0.14,0.06 -0.29,0.09 -0.44,0.09z"/>
      </g>
      <g>
       <path class="fil1" d="M103.83 118.44c-0.15,0 -0.3,-0.03 -0.44,-0.09l-17.72 -7.31c-0.34,-0.14 -0.59,-0.43 -0.68,-0.78 -0.09,-0.35 -0.01,-0.73 0.22,-1.02l5.04 -6.31c0.12,-0.15 0.28,-0.27 0.45,-0.34l17.7 -7.51c0.29,-0.13 0.66,-0.13 0.95,0l17.71 7.5c0.59,0.25 0.86,0.93 0.61,1.52 -0.25,0.59 -0.93,0.87 -1.52,0.62l-16.12 -6.83 0 13.08c0,0.26 -0.09,0.52 -0.25,0.72l-5.04 6.31c-0.22,0.28 -0.56,0.43 -0.91,0.43zm-15.86 -8.96l0 0 15.5 6.39 4.24 -5.31 0 -12.68 -15.85 6.72 -3.89 4.87z"/>
      </g>
      <g>
       <path class="fil1" d="M113.91 118.44c-0.45,0 -0.89,-0.27 -1.07,-0.72 -0.24,-0.59 0.04,-1.27 0.63,-1.51l17.73 -7.31c0.59,-0.24 1.27,0.04 1.51,0.63 0.24,0.59 -0.04,1.27 -0.63,1.52l-17.73 7.31c-0.14,0.06 -0.29,0.09 -0.44,0.09z"/>
      </g>
      <g>
       <path class="fil1" d="M113.91 118.44c-0.34,0 -0.68,-0.15 -0.91,-0.43l-5.04 -6.31c-0.4,-0.5 -0.32,-1.23 0.18,-1.63 0.5,-0.4 1.23,-0.32 1.63,0.18l5.04 6.31c0.4,0.5 0.32,1.23 -0.18,1.63 -0.22,0.17 -0.47,0.25 -0.72,0.25z"/>
      </g>
      <g>
       <path class="fil1" d="M131.63 111.09c-0.34,0 -0.68,-0.15 -0.91,-0.43l-5.04 -6.31c-0.4,-0.5 -0.31,-1.23 0.19,-1.63 0.5,-0.4 1.23,-0.31 1.63,0.19l5.04 6.31c0.4,0.5 0.32,1.23 -0.18,1.63 -0.22,0.17 -0.47,0.25 -0.72,0.25z"/>
      </g>
     </g>
    </g>
    <g>
     <g>
      <path class="fil1" d="M83.33 104.72c-0.07,0 -0.14,-0.02 -0.21,-0.04l-8.3 -3.43c-0.2,-0.08 -0.33,-0.28 -0.33,-0.5l0 -7.19c0,-0.3 0.24,-0.54 0.54,-0.54 0.3,0 0.54,0.24 0.54,0.54l0 6.82 7.22 2.98 0 -10.19 -7.96 -3.29c-0.28,-0.11 -0.41,-0.43 -0.3,-0.71 0.11,-0.28 0.43,-0.41 0.71,-0.29l8.3 3.43c0.2,0.08 0.33,0.28 0.33,0.5l0 11.37c0,0.18 -0.09,0.35 -0.24,0.45 -0.09,0.06 -0.2,0.09 -0.3,0.09z"/>
     </g>
     <g>
      <path class="fil1" d="M83.33 104.72c-0.11,0 -0.21,-0.03 -0.3,-0.09 -0.15,-0.1 -0.24,-0.27 -0.24,-0.45l0 -11.37c0,-0.22 0.13,-0.42 0.33,-0.5l8.3 -3.43c0.28,-0.11 0.6,0.02 0.71,0.29 0.11,0.28 -0.02,0.59 -0.3,0.71l-7.97 3.29 0 10.19 7.22 -2.98 0 -6.9c0,-0.3 0.24,-0.54 0.54,-0.54 0.3,0 0.54,0.24 0.54,0.54l0 7.26c0,0.22 -0.13,0.42 -0.33,0.5l-8.3 3.43c-0.07,0.03 -0.14,0.04 -0.21,0.04z"/>
     </g>
     <g>
      <path class="fil1" d="M80.97 96.31c-0.07,0 -0.14,-0.02 -0.21,-0.04l-8.3 -3.43c-0.16,-0.06 -0.28,-0.2 -0.32,-0.37 -0.04,-0.17 -0.01,-0.34 0.1,-0.47l2.36 -2.96c0.06,-0.07 0.13,-0.13 0.21,-0.16l8.29 -3.52c0.14,-0.06 0.31,-0.06 0.45,0l8.29 3.52c0.28,0.12 0.41,0.44 0.29,0.71 -0.12,0.28 -0.43,0.4 -0.71,0.29l-7.55 -3.2 0 6.13c0,0.13 -0.04,0.24 -0.12,0.34l-2.36 2.96c-0.11,0.13 -0.26,0.2 -0.43,0.2zm-7.43 -4.2l0 0 7.26 3 1.98 -2.49 0 -5.94 -7.42 3.15 -1.82 2.28z"/>
     </g>
     <g>
      <path class="fil1" d="M85.69 96.31c-0.22,0 -0.42,-0.13 -0.5,-0.33 -0.11,-0.28 0.02,-0.59 0.3,-0.71l8.3 -3.43c0.28,-0.11 0.59,0.02 0.71,0.3 0.11,0.28 -0.02,0.59 -0.3,0.71l-8.3 3.43c-0.07,0.03 -0.14,0.04 -0.2,0.04z"/>
     </g>
     <g>
      <path class="fil1" d="M85.69 96.31c-0.16,0 -0.32,-0.07 -0.43,-0.2l-2.36 -2.96c-0.19,-0.23 -0.15,-0.57 0.09,-0.76 0.24,-0.19 0.57,-0.15 0.76,0.08l2.36 2.96c0.19,0.23 0.15,0.57 -0.08,0.76 -0.1,0.08 -0.22,0.12 -0.34,0.12z"/>
     </g>
     <g>
      <path class="fil1" d="M94 92.87c-0.16,0 -0.32,-0.07 -0.43,-0.2l-2.36 -2.96c-0.19,-0.23 -0.15,-0.57 0.09,-0.76 0.24,-0.19 0.57,-0.15 0.76,0.09l2.36 2.96c0.19,0.23 0.15,0.57 -0.09,0.76 -0.1,0.08 -0.22,0.12 -0.33,0.12z"/>
     </g>
    </g>
   </g>
  </g>
 </g>
</svg>
