<?xml version="1.0" encoding="UTF-8"?>
<!DOCTYPE svg PUBLIC "-//W3C//DTD SVG 1.1//EN" "http://www.w3.org/Graphics/SVG/1.1/DTD/svg11.dtd">
<!-- Creator: CorelDRAW 2019 (64-Bit) -->
<svg xmlns="http://www.w3.org/2000/svg" xml:space="preserve" width="0.166661in" height="0.166661in" version="1.1" style="shape-rendering:geometricPrecision; text-rendering:geometricPrecision; image-rendering:optimizeQuality; fill-rule:evenodd; clip-rule:evenodd"
viewBox="0 0 166.66 166.66"
 xmlns:xlink="http://www.w3.org/1999/xlink"
 xmlns:xodm="http://www.corel.com/coreldraw/odm/2003">
 <defs>
  <style type="text/css">
   <![CDATA[
    .fil0 {fill:none}
    .fil1 {fill:#FBB457;fill-rule:nonzero}
   ]]>
  </style>
 </defs>
 <g id="Camada_x0020_1">
  <metadata id="CorelCorpID_0Corel-Layer"/>
  <rect class="fil0" x="-0.01" y="-0" width="166.67" height="166.67"/>
  <path class="fil1" d="M128.51 33.33l-90.35 0c-3.08,0 -5.56,-2.48 -5.56,-5.56 0,-3.07 2.48,-5.56 5.56,-5.56l90.35 0c3.06,0 5.54,2.49 5.54,5.56 0,3.07 -2.48,5.56 -5.54,5.56zm0 27.78l-90.35 0c-3.08,0 -5.56,-2.49 -5.56,-5.56 0,-3.07 2.48,-5.55 5.56,-5.55l90.35 0c3.06,0 5.54,2.48 5.54,5.55 0,3.07 -2.48,5.56 -5.54,5.56zm0 27.78l-90.35 0c-3.08,0 -5.56,-2.48 -5.56,-5.56 0,-3.07 2.48,-5.56 5.56,-5.56l90.35 0c3.06,0 5.54,2.49 5.54,5.56 0,3.07 -2.48,5.56 -5.54,5.56zm0 27.78l-90.35 0c-3.08,0 -5.56,-2.48 -5.56,-5.55 0,-3.07 2.48,-5.56 5.56,-5.56l90.35 0c3.06,0 5.54,2.48 5.54,5.56 0,3.07 -2.48,5.55 -5.54,5.55zm0 27.78l-90.35 0c-3.08,0 -5.56,-2.48 -5.56,-5.56 0,-3.07 2.48,-5.56 5.56,-5.56l90.35 0c3.06,0 5.54,2.49 5.54,5.56 0,3.07 -2.48,5.56 -5.54,5.56zm13.16 -144.44l-116.67 0c-4.5,0 -8.37,2.7 -10.12,6.55 -0.64,1.39 -0.99,2.94 -0.99,4.56l0 144.45c0,6.11 5,11.11 11.11,11.11l116.67 0c1.61,0 3.16,-0.36 4.54,-1 3.86,-1.75 6.57,-5.63 6.57,-10.11l0 -144.45c0,-6.11 -5,-11.11 -11.11,-11.11z"/>
 </g>
</svg>
