<?xml version="1.0" encoding="UTF-8"?>
<!DOCTYPE svg PUBLIC "-//W3C//DTD SVG 1.1//EN" "http://www.w3.org/Graphics/SVG/1.1/DTD/svg11.dtd">
<!-- Creator: CorelDRAW 2019 (64-Bit) -->
<svg xmlns="http://www.w3.org/2000/svg" xml:space="preserve" width="0.166661in" height="0.166661in" version="1.1" style="shape-rendering:geometricPrecision; text-rendering:geometricPrecision; image-rendering:optimizeQuality; fill-rule:evenodd; clip-rule:evenodd"
viewBox="0 0 166.66 166.66"
 xmlns:xlink="http://www.w3.org/1999/xlink"
 xmlns:xodm="http://www.corel.com/coreldraw/odm/2003">
 <defs>
  <style type="text/css">
   <![CDATA[
    .fil0 {fill:none}
    .fil1 {fill:#FBB457;fill-rule:nonzero}
   ]]>
  </style>
 </defs>
 <g id="Camada_x0020_1">
  <metadata id="CorelCorpID_0Corel-Layer"/>
  <rect class="fil0" x="-0.01" y="-0" width="166.67" height="166.67"/>
  <g id="_2315221842704">
   <g>
    <path class="fil1" d="M127.14 40.25l-34.5 0 -0.41 -4.62 0 -33.11 5.45 -2.53 2.43 2.07 32.29 32.29 -2.06 5.64 -3.19 0.25zm-26.49 -8.42l0 0 17.31 0 -17.31 -17.31 0 17.31z"/>
   </g>
   <g>
    <path class="fil1" d="M132.33 166.67l-127 0 0 -166.52 92.85 0 34.15 34.14 0 132.37zm-118.57 -8.42l0 0 110.16 0 0 -120.46 -29.21 -29.21 -80.94 0 0 149.68z"/>
   </g>
   <g>
    <path class="fil1" d="M69.09 37l-38.53 0c-2.33,0 -4.21,-1.89 -4.21,-4.21 0,-2.33 1.89,-4.21 4.21,-4.21l38.53 0c2.33,0 4.21,1.88 4.21,4.21 0,2.33 -1.88,4.21 -4.21,4.21z"/>
   </g>
   <g>
    <path class="fil1" d="M107.62 61.4l-77.06 0c-2.33,0 -4.21,-1.88 -4.21,-4.21 0,-2.33 1.89,-4.21 4.21,-4.21l77.06 0c2.33,0 4.21,1.88 4.21,4.21 0,2.33 -1.88,4.21 -4.21,4.21z"/>
   </g>
   <g>
    <path class="fil1" d="M107.62 88.85l-77.06 0c-2.33,0 -4.21,-1.88 -4.21,-4.21 0,-2.33 1.89,-4.21 4.21,-4.21l77.06 0c2.33,0 4.21,1.88 4.21,4.21 0,2.33 -1.88,4.21 -4.21,4.21z"/>
   </g>
   <g>
    <path class="fil1" d="M107.62 116.31l-77.06 0c-2.33,0 -4.21,-1.88 -4.21,-4.21 0,-2.33 1.89,-4.21 4.21,-4.21l77.06 0c2.33,0 4.21,1.88 4.21,4.21 0,2.33 -1.88,4.21 -4.21,4.21z"/>
   </g>
   <g>
    <path class="fil1" d="M74.19 143.76l-43.63 0c-2.33,0 -4.21,-1.89 -4.21,-4.21 0,-2.33 1.89,-4.21 4.21,-4.21l43.63 0c2.33,0 4.21,1.88 4.21,4.21 0,2.32 -1.88,4.21 -4.21,4.21z"/>
   </g>
   <g>
    <path class="fil1" d="M111.07 156.44l-24.59 -24.59c-1.65,-1.65 -1.65,-4.31 0,-5.95 1.64,-1.65 4.31,-1.65 5.95,0l18.64 18.64 43.07 -43.07c1.64,-1.65 4.31,-1.65 5.95,0 1.65,1.65 1.65,4.31 0,5.95l-49.03 49.03z"/>
   </g>
  </g>
 </g>
</svg>
