<?xml version="1.0" encoding="UTF-8"?>
<!DOCTYPE svg PUBLIC "-//W3C//DTD SVG 1.1//EN" "http://www.w3.org/Graphics/SVG/1.1/DTD/svg11.dtd">
<!-- Creator: CorelDRAW 2019 (64-Bit) -->
<svg xmlns="http://www.w3.org/2000/svg" xml:space="preserve" width="0.166661in" height="0.166661in" version="1.1" style="shape-rendering:geometricPrecision; text-rendering:geometricPrecision; image-rendering:optimizeQuality; fill-rule:evenodd; clip-rule:evenodd"
viewBox="0 0 166.66 166.66"
 xmlns:xlink="http://www.w3.org/1999/xlink"
 xmlns:xodm="http://www.corel.com/coreldraw/odm/2003">
 <defs>
  <style type="text/css">
   <![CDATA[
    .fil0 {fill:none}
    .fil1 {fill:#FBB457;fill-rule:nonzero}
   ]]>
  </style>
 </defs>
 <g id="Camada_x0020_1">
  <metadata id="CorelCorpID_0Corel-Layer"/>
  <rect class="fil0" x="-0.01" y="-0" width="166.67" height="166.67"/>
  <g id="_2315226019664">
   <polygon class="fil1" points="-1.33,104.44 71.09,81.82 58.81,75.76 167.99,11.89 162.31,2.19 52.45,66.46 53.88,52.39 "/>
   <g>
    <path class="fil1" d="M44.06 119.86l-40.15 0c-2.14,0 -3.9,1.75 -3.9,3.9l0 11.38c0,2.15 1.76,3.9 3.9,3.9l40.15 0c2.15,0 3.91,-1.75 3.91,-3.9l0 -11.38c0,-2.15 -1.76,-3.9 -3.91,-3.9z"/>
    <path class="fil1" d="M44.06 145.29l-40.15 0c-2.14,0 -3.9,1.75 -3.9,3.9l0 11.38c0,2.13 1.76,3.9 3.9,3.9l40.15 0c2.15,0 3.91,-1.77 3.91,-3.9l0 -11.38c0,-2.15 -1.76,-3.9 -3.91,-3.9z"/>
    <path class="fil1" d="M100.41 119.86l-40.15 0c-2.15,0 -3.91,1.75 -3.91,3.9l0 11.38c0,2.15 1.76,3.9 3.91,3.9l40.15 0c2.14,0 3.9,-1.75 3.9,-3.9l0 -11.38c0,-2.15 -1.76,-3.9 -3.9,-3.9z"/>
    <path class="fil1" d="M100.41 145.29l-40.15 0c-2.15,0 -3.91,1.75 -3.91,3.9l0 11.38c0,2.13 1.76,3.9 3.91,3.9l40.15 0c2.14,0 3.9,-1.77 3.9,-3.9l0 -11.38c0,-2.15 -1.76,-3.9 -3.9,-3.9z"/>
    <path class="fil1" d="M100.41 94.43l-40.15 0c-2.15,0 -3.91,1.77 -3.91,3.9l0 11.38c0,2.15 1.76,3.9 3.91,3.9l40.15 0c2.14,0 3.9,-1.75 3.9,-3.9l0 -11.38c0,-2.13 -1.76,-3.9 -3.9,-3.9z"/>
    <path class="fil1" d="M162.74 119.86l-40.15 0c-2.15,0 -3.9,1.75 -3.9,3.9l0 11.38c0,2.15 1.76,3.9 3.9,3.9l40.15 0c2.15,0 3.9,-1.75 3.9,-3.9l0 -11.38c0,-2.15 -1.76,-3.9 -3.9,-3.9z"/>
    <path class="fil1" d="M162.74 145.29l-40.15 0c-2.15,0 -3.9,1.75 -3.9,3.9l0 11.38c0,2.13 1.76,3.9 3.9,3.9l40.15 0c2.15,0 3.9,-1.77 3.9,-3.9l0 -11.38c0,-2.15 -1.76,-3.9 -3.9,-3.9z"/>
    <path class="fil1" d="M162.74 94.43l-40.15 0c-2.15,0 -3.9,1.77 -3.9,3.9l0 11.38c0,2.15 1.76,3.9 3.9,3.9l40.15 0c2.15,0 3.9,-1.75 3.9,-3.9l0 -11.38c0,-2.13 -1.76,-3.9 -3.9,-3.9z"/>
    <path class="fil1" d="M162.74 69.02l-40.15 0c-2.15,0 -3.9,1.75 -3.9,3.9l0 11.36c0,2.15 1.76,3.92 3.9,3.92l40.15 0c2.15,0 3.9,-1.77 3.9,-3.92l0 -11.36c0,-2.15 -1.76,-3.9 -3.9,-3.9z"/>
   </g>
  </g>
 </g>
</svg>
