<?xml version="1.0" encoding="UTF-8"?>
<!DOCTYPE svg PUBLIC "-//W3C//DTD SVG 1.1//EN" "http://www.w3.org/Graphics/SVG/1.1/DTD/svg11.dtd">
<!-- Creator: CorelDRAW 2019 (64-Bit) -->
<svg xmlns="http://www.w3.org/2000/svg" xml:space="preserve" width="0.166661in" height="0.166661in" version="1.1" style="shape-rendering:geometricPrecision; text-rendering:geometricPrecision; image-rendering:optimizeQuality; fill-rule:evenodd; clip-rule:evenodd"
viewBox="0 0 166.66 166.66"
 xmlns:xlink="http://www.w3.org/1999/xlink"
 xmlns:xodm="http://www.corel.com/coreldraw/odm/2003">
 <defs>
  <style type="text/css">
   <![CDATA[
    .fil0 {fill:none}
    .fil1 {fill:#FBB457;fill-rule:nonzero}
   ]]>
  </style>
 </defs>
 <g id="Layer_x0020_1">
  <metadata id="CorelCorpID_0Corel-Layer"/>
  <rect class="fil0" x="-0.01" y="-0" width="166.67" height="166.67"/>
  <g id="_2351264924512">
   <g>
    <path class="fil1" d="M118.8 28.21c-3.69,-15.04 12.24,-30.04 27.05,-25.59 13.93,2.76 21.62,20.43 14.08,32.48 -9.41,13.31 -19.26,26.35 -28.79,39.57 -4.11,-15.48 -8.37,-30.95 -12.34,-46.46zm14.84 -12.11l0 0c-6.11,4.31 -5.64,14.5 0.8,18.26 6.55,4.63 17.05,-0.41 17.1,-8.55 1.43,-9.25 -10.91,-15.77 -17.9,-9.72z"/>
   </g>
   <path class="fil1" d="M112.3 53.36c2.91,0.91 5.8,1.8 8.7,2.68 3.02,9.74 5.3,19.7 8.08,29.49 5.33,-7.15 10.37,-14.55 16,-21.49 1.85,0.65 5.54,1.92 7.41,2.57 1.02,5.64 1.93,11.3 2.76,16.97 -14.79,2.19 -26.66,13.07 -32.51,26.48 -2.81,-2.08 -5.59,-4.11 -8.42,-6.13 -0.91,-16.84 -1.77,-33.7 -2.03,-50.57z"/>
   <path class="fil1" d="M23.3 54.01c3.95,1.41 7.9,2.81 11.82,4.24 -2.02,6.21 -3.59,13.15 -1.09,19.49 4.29,11.64 14.94,19.28 25.36,25.13 -0.47,8.89 -1.53,17.72 -2.08,26.61 -15.36,-8.19 -30.82,-20.01 -49.11,-18.76 5.33,-18.84 9.95,-37.83 15.09,-56.7z"/>
   <path class="fil1" d="M71.3 67.78c10.57,-4.89 21.31,-9.43 31.96,-14.13 1.01,16.71 1.64,33.42 2.11,50.15 -3.56,2.16 -7.09,4.34 -10.63,6.52 -1.64,-8.16 3.77,-19.65 -3.74,-25.28 -7.51,1.82 -14.53,5.17 -21.8,7.69 0.52,-8.34 1.27,-16.65 2.11,-24.94z"/>
   <path class="fil1" d="M60.46 92.34c-11.8,-4.91 -23.33,-17.56 -16.5,-30.94 6.13,2.21 12.27,4.42 18.43,6.55 -0.44,8.16 -1.17,16.29 -1.92,24.4z"/>
   <path class="fil1" d="M131.11 115.41c4.37,-10.86 13.23,-21.41 25.75,-22.04 1.77,12.61 3.98,25.15 5.69,37.78 -11.54,-2.81 -21.78,-9.04 -31.44,-15.75z"/>
   <path class="fil1" d="M68.1 103.72c5.82,-2.26 11.67,-4.55 17.51,-6.78 0.06,6.42 0.06,12.83 0,19.25 -6.57,4.03 -12.91,8.47 -19.77,12.01 0.88,-8.16 1.53,-16.32 2.26,-24.48z"/>
   <path class="fil1" d="M64.88 139.37c13.51,-8.52 27.26,-16.71 40.93,-25.02 0.78,10.44 1.12,20.89 1.45,31.34 -14.83,6.39 -29.65,12.83 -44.56,19.05 0.83,-8.44 1.61,-16.89 2.19,-25.36z"/>
   <path class="fil1" d="M114.9 115.57c14.94,10.91 30.76,21.78 49.11,25.83 1.56,6.68 2.42,13.52 2.65,20.37 -17.02,-5.48 -34.12,-10.78 -50.98,-16.73 0.02,-9.82 -0.86,-19.65 -0.78,-29.47z"/>
   <path class="fil1" d="M5.81 120.35c18.53,0.29 35.81,8.47 50.65,19 -0.96,8.47 -1.74,16.97 -2.31,25.49 -18.09,-7.38 -36.12,-14.84 -54.15,-22.35 1.92,-7.38 3.87,-14.76 5.82,-22.14z"/>
  </g>
 </g>
</svg>
