<?xml version="1.0" encoding="UTF-8"?>
<!DOCTYPE svg PUBLIC "-//W3C//DTD SVG 1.1//EN" "http://www.w3.org/Graphics/SVG/1.1/DTD/svg11.dtd">
<!-- Creator: CorelDRAW 2019 (64-Bit) -->
<svg xmlns="http://www.w3.org/2000/svg" xml:space="preserve" width="0.166661in" height="0.166661in" version="1.1" style="shape-rendering:geometricPrecision; text-rendering:geometricPrecision; image-rendering:optimizeQuality; fill-rule:evenodd; clip-rule:evenodd"
viewBox="0 0 166.66 166.66"
 xmlns:xlink="http://www.w3.org/1999/xlink"
 xmlns:xodm="http://www.corel.com/coreldraw/odm/2003">
 <defs>
  <style type="text/css">
   <![CDATA[
    .fil0 {fill:none}
    .fil1 {fill:#FBB457}
   ]]>
  </style>
 </defs>
 <g id="Layer_x0020_1">
  <metadata id="CorelCorpID_0Corel-Layer"/>
  <rect class="fil0" x="-0.01" y="-0" width="166.67" height="166.67"/>
  <path class="fil1" d="M72.82 88.12c24.25,0 49.19,0 73.5,0l20.33 -51.76 -114.18 0 3.29 10.51 19.67 0 3.97 10.46 -19.03 0 3.93 9.83 19.71 0 3.92 11.13 -19.03 0 3.93 9.83zm1.98 31.43c-5.91,1.35 -11.19,6.58 -12.49,12.49 -1.31,9.83 5.28,17.72 12.49,18.97 12.44,1.99 20.34,-8.47 19.04,-18.97 -1.31,-8.52 -9.83,-13.75 -19.04,-12.49l0 0zm51.81 0c-5.91,1.35 -11.13,6.58 -11.81,12.49 -1.94,9.83 4.59,17.72 11.81,18.97 13.12,1.99 21.02,-8.47 19.03,-18.97 -1.31,-8.52 -9.83,-13.75 -19.03,-12.49l0 0zm19.03 -20.29l-78.73 0c-13.12,-27.5 -24.94,-56.36 -37.38,-83.86l-29.54 0 0 10.46 22.32 0c11.81,28.23 24.26,55.73 36.75,83.23l86.57 0c0.68,-2.62 0,-7.22 0,-9.83l0 0z"/>
 </g>
</svg>
