<?xml version="1.0" encoding="UTF-8"?>
<!DOCTYPE svg PUBLIC "-//W3C//DTD SVG 1.1//EN" "http://www.w3.org/Graphics/SVG/1.1/DTD/svg11.dtd">
<!-- Creator: CorelDRAW 2019 (64-Bit) -->
<svg xmlns="http://www.w3.org/2000/svg" xml:space="preserve" width="0.166661in" height="0.166661in" version="1.1" style="shape-rendering:geometricPrecision; text-rendering:geometricPrecision; image-rendering:optimizeQuality; fill-rule:evenodd; clip-rule:evenodd"
viewBox="0 0 166.66 166.66"
 xmlns:xlink="http://www.w3.org/1999/xlink"
 xmlns:xodm="http://www.corel.com/coreldraw/odm/2003">
 <defs>
  <style type="text/css">
   <![CDATA[
    .fil0 {fill:none}
    .fil1 {fill:#FBB457}
   ]]>
  </style>
 </defs>
 <g id="Layer_x0020_1">
  <metadata id="CorelCorpID_0Corel-Layer"/>
  <rect class="fil0" x="-0.01" y="-0" width="166.67" height="166.67"/>
  <path class="fil1" d="M101.05 127.3l0 0c-9.2,0.62 -13.75,1.25 -22.26,1.93 0,-8.52 0,-13.12 0,-21.59 9.14,-0.73 13.06,-1.36 22.26,-1.99 0,8.47 0,12.44 0,21.65l0 0zm-22.95 -20.39l0 0c0,9.2 0,13.8 0,23 9.2,-0.68 13.75,-1.35 23.63,-2.6 0,-9.2 0,-13.18 0,-22.33 -9.2,0.68 -13.8,1.31 -23.63,1.94l0 0zm82.65 13.8l0 0c-8.52,0.63 -12.44,1.31 -21.65,2 0,-8.58 0,-12.5 0,-21.02 8.52,-0.62 13.12,-0.62 21.65,-1.98 0,8.57 0,12.44 0,21.01l0 0zm-22.27 -19.03l0 0c0,8.52 0,12.44 0.63,21.65 8.52,-0.62 13.12,-1.31 22.32,-1.99 0,-9.2 0,-13.69 0,-22.26 -9.2,1.35 -13.8,1.35 -22.94,2.61l0 0zm20.33 16.42l0 0c-6.58,0.63 -10.5,1.26 -17.09,1.98 0,0.62 0,0.62 0,1.25 6.59,-0.63 10.51,-1.25 17.09,-1.98 0,-0.63 0,-0.63 0,-1.26l0 0zm-4.59 -0.69l0 0c0.63,0 1.3,0 1.3,0 0,-3.92 0,-5.9 0,-9.77 1.3,0 1.99,0 3.29,0 -1.3,-2.67 -2.67,-3.97 -3.97,-5.96 -1.31,2.62 -1.93,3.98 -3.24,6.59 1.31,-0.62 1.93,-0.62 2.62,-0.62 0,3.87 0,5.85 0,9.77l0 0zm-9.83 0.69c0.63,0 0.63,0 1.31,0 0,-3.98 0,-5.96 0,-9.83 1.3,0 1.94,0 3.24,0 -1.3,-1.98 -2.61,-3.29 -3.91,-5.9 -1.31,2.61 -1.94,3.92 -3.3,6.54 0.68,0 1.35,0 2.67,0 0,3.24 0,5.22 0,9.2l0 0zm-13.17 5.91l0 0c-8.52,0.63 -13.07,1.31 -22.27,1.93 0.63,-8.52 0.63,-13.07 0.63,-20.96 8.57,-1.3 13.12,-1.3 21.64,-1.93 0,7.84 0,11.76 0,20.96l0 0zm-22.27 -19.71l0 0c0,8.57 0,13.12 -0.69,22.26 9.89,-0.62 14.43,-1.25 23.63,-2.56 0,-9.2 0,-13.13 0,-21.64 -9.2,0.68 -13.74,1.31 -22.95,1.93l0 0zm10.5 11.81c0,2.61 0,3.24 0,5.9 -1.98,0 -2.67,0 -4.59,0 0,0.69 0,0.69 0,1.31 4.59,0 6.54,-0.62 10.5,-0.62 0,-0.69 0,-1.37 0,-1.37 -1.98,0 -2.67,0 -4.6,0 0,-1.98 0,-3.24 0,-5.22 3.24,-0.63 5.23,-3.24 5.23,-6.54l0 -4.6c-4.6,0.68 -7.22,0.68 -11.82,1.31l0 4.6c0,3.24 1.99,5.23 5.28,5.23l0 0zm-30.21 8.52c0,0.68 -0.62,1.3 -1.31,1.3 -0.63,0 -0.63,-0.63 -0.63,-1.3 0,0 0,0 0,-0.63 0,-0.68 -0.68,-0.68 -0.68,-0.68 -0.63,0 -1.31,0.68 -1.31,0.68 0,0.63 0,0.63 0,1.31 0,1.25 1.31,1.99 2.61,1.99 1.31,0 2.62,-1.37 2.62,-2.67 0,-2.62 0,-4.55 0,-7.22 3.29,0 5.28,-0.63 9.2,-0.63 -0.68,-4.65 -4.6,-7.21 -9.2,-7.21 0,0 0,0 0,-0.68 0,-0.63 -0.63,-0.63 -0.63,-0.63 -0.68,0 -0.68,0.63 -0.68,0.63 0,0.68 0,0.68 0,1.3 -4.6,0.68 -7.84,3.92 -8.52,8.52 3.3,-0.63 5.28,-0.63 8.52,-1.31 0,3.29 0,4.6 0,7.22l0 0zm-89.23 -94.36l93.2 -4.6 73.45 3.97 -0.63 0 -95.83 5.23 -68.9 -4.6 -1.3 0zm69.58 5.91l0 104.19 -69.58 -12.44 0 -96.34 69.58 4.59zm97.07 -5.28l0 98.33 -96.45 11.77 0.68 0 0 -104.82 27.55 -1.3 0.63 28.17 3.29 -5.27 3.92 5.27 1.98 -5.27 3.3 4.6 1.93 -5.22 3.29 5.22 1.99 -5.85 2.62 5.23 0 -28.24 45.27 -2.61z"/>
 </g>
</svg>
