<?xml version="1.0" encoding="UTF-8"?>
<!DOCTYPE svg PUBLIC "-//W3C//DTD SVG 1.1//EN" "http://www.w3.org/Graphics/SVG/1.1/DTD/svg11.dtd">
<!-- Creator: CorelDRAW 2019 (64-Bit) -->
<svg xmlns="http://www.w3.org/2000/svg" xml:space="preserve" width="0.166661in" height="0.166661in" version="1.1" style="shape-rendering:geometricPrecision; text-rendering:geometricPrecision; image-rendering:optimizeQuality; fill-rule:evenodd; clip-rule:evenodd"
viewBox="0 0 166.66 166.66"
 xmlns:xlink="http://www.w3.org/1999/xlink"
 xmlns:xodm="http://www.corel.com/coreldraw/odm/2003">
 <defs>
  <style type="text/css">
   <![CDATA[
    .fil0 {fill:none}
    .fil1 {fill:#FBB457;fill-rule:nonzero}
   ]]>
  </style>
 </defs>
 <g id="Layer_x0020_1">
  <metadata id="CorelCorpID_0Corel-Layer"/>
  <g id="_2315200425152">
   <rect class="fil0" x="-0.01" y="-0" width="166.67" height="166.67"/>
   <g>
    <g>
     <path class="fil1" d="M148.57 84.03c-0.94,0 -1.88,-0.31 -2.66,-0.95l-33.3 -27.24 -27.71 24.07c-1.58,1.37 -3.94,1.37 -5.52,0l-77.94 -67.69c-1.76,-1.52 -1.94,-4.18 -0.42,-5.93 1.52,-1.76 4.17,-1.94 5.93,-0.42l75.18 65.3 27.63 -24c1.54,-1.35 3.83,-1.38 5.42,-0.08l36.04 29.49c1.8,1.47 2.06,4.12 0.59,5.92 -0.83,1.02 -2.04,1.54 -3.26,1.54z"/>
    </g>
    <g>
     <path class="fil1" d="M162.46 97.91l-27.76 0c-1.7,0 -3.23,-1.02 -3.88,-2.59 -0.65,-1.57 -0.29,-3.38 0.91,-4.58l27.76 -27.75c1.2,-1.2 3.01,-1.57 4.58,-0.91 1.57,0.65 2.6,2.19 2.6,3.89l0 27.75c0,2.32 -1.89,4.2 -4.2,4.2zm-17.61 -8.41l0 0 13.4 0 0 -13.39 -13.4 13.39z"/>
    </g>
    <g>
     <path class="fil1" d="M162.45 139.95c-0.98,0 -1.96,-0.34 -2.75,-1.03l-47.17 -40.97 -27.63 24c-1.58,1.38 -3.93,1.38 -5.52,0l-77.93 -67.69c-1.75,-1.52 -1.94,-4.18 -0.42,-5.93 1.52,-1.76 4.18,-1.95 5.93,-0.42l75.17 65.29 27.63 -24c1.58,-1.37 3.93,-1.37 5.52,0l49.92 43.37c1.75,1.52 1.94,4.18 0.41,5.93 -0.83,0.96 -2,1.45 -3.18,1.45z"/>
    </g>
    <g>
     <path class="fil1" d="M162.45 161.83l-39.56 0c-2.32,0 -4.2,-1.88 -4.2,-4.2l0 -55.72c0,-2.32 1.88,-4.2 4.2,-4.2 2.32,0 4.2,1.89 4.2,4.2l0 51.52 31.15 0 0 -17.67c0,-2.32 1.88,-4.2 4.2,-4.2 2.32,0 4.2,1.88 4.2,4.2l0 21.88c0,2.32 -1.88,4.2 -4.2,4.2z"/>
    </g>
    <g>
     <path class="fil1" d="M122.89 161.83l-39.56 0c-2.32,0 -4.2,-1.88 -4.2,-4.2l0 -38.85c0,-2.32 1.88,-4.2 4.2,-4.2 2.32,0 4.2,1.88 4.2,4.2l0 34.65 35.36 0c2.32,0 4.2,1.88 4.2,4.2 0,2.32 -1.88,4.2 -4.2,4.2z"/>
    </g>
    <g>
     <path class="fil1" d="M83.33 161.83l-39.56 0c-2.32,0 -4.2,-1.88 -4.2,-4.2l0 -72.18c0,-2.32 1.88,-4.2 4.2,-4.2 2.32,0 4.2,1.88 4.2,4.2l0 67.98 35.35 0c2.32,0 4.2,1.88 4.2,4.2 0,2.32 -1.88,4.2 -4.2,4.2z"/>
    </g>
    <g>
     <path class="fil1" d="M43.77 161.83l-39.56 0c-2.32,0 -4.2,-1.88 -4.2,-4.2l0 -106.54c0,-2.32 1.89,-4.2 4.2,-4.2 2.32,0 4.21,1.88 4.21,4.2l0 102.34 35.35 0c2.32,0 4.2,1.88 4.2,4.2 0,2.32 -1.88,4.2 -4.2,4.2z"/>
    </g>
   </g>
  </g>
 </g>
</svg>
