<?xml version="1.0" encoding="UTF-8"?>
<!DOCTYPE svg PUBLIC "-//W3C//DTD SVG 1.1//EN" "http://www.w3.org/Graphics/SVG/1.1/DTD/svg11.dtd">
<!-- Creator: CorelDRAW 2019 (64-Bit) -->
<svg xmlns="http://www.w3.org/2000/svg" xml:space="preserve" width="0.166661in" height="0.166661in" version="1.1" style="shape-rendering:geometricPrecision; text-rendering:geometricPrecision; image-rendering:optimizeQuality; fill-rule:evenodd; clip-rule:evenodd"
viewBox="0 0 166.66 166.66"
 xmlns:xlink="http://www.w3.org/1999/xlink"
 xmlns:xodm="http://www.corel.com/coreldraw/odm/2003">
 <defs>
  <style type="text/css">
   <![CDATA[
    .fil0 {fill:none}
    .fil1 {fill:#FBB457}
    .fil3 {fill:#FEFEFE;fill-rule:nonzero}
    .fil2 {fill:#FBB457;fill-rule:nonzero}
    .fil4 {fill:#FBB457;fill-rule:nonzero}
   ]]>
  </style>
 </defs>
 <g id="Layer_x0020_1">
  <metadata id="CorelCorpID_0Corel-Layer"/>
  <rect class="fil0" x="-0.01" y="-0" width="166.67" height="166.67"/>
  <rect class="fil0" x="-0.01" y="-0" width="166.67" height="166.67"/>
  <g id="_2315221843184">
   <path class="fil1" d="M87.87 121.57l0 0c-7.99,0.54 -11.96,1.09 -19.36,1.68 0,-7.42 0,-11.41 0,-18.78 7.95,-0.64 11.36,-1.19 19.36,-1.72 0,7.37 0,10.82 0,18.83l0 0 0 -0zm-19.95 -17.74l0 0c0,8 0,12 0,20 8,-0.59 11.96,-1.18 20.56,-2.26 0,-8 0,-11.46 0,-19.41 -8.02,0.59 -12,1.14 -20.56,1.68l0 0 0 -0.01zm71.88 12l0 0c-7.42,0.55 -10.82,1.14 -18.83,1.73 0,-7.45 0,-10.87 0,-18.28 7.41,-0.54 11.41,-0.54 18.83,-1.72 0,7.46 0,10.81 0,18.27l0 0 0 -0zm-19.37 -16.54l0 0c0,7.42 0,10.82 0.55,18.83 7.41,-0.54 11.41,-1.15 19.41,-1.72 0,-8 0,-11.91 0,-19.36 -8,1.18 -12,1.18 -19.95,2.27l0 0 -0.01 -0.01zm17.68 14.28l0 0c-5.72,0.55 -9.14,1.09 -14.86,1.72 0,0.54 0,0.54 0,1.09 5.72,-0.55 9.14,-1.09 14.86,-1.72 0,-0.55 0,-0.55 0,-1.09l0 0zm-4 -0.6l0 0c0.55,0 1.14,0 1.14,0 0,-3.41 0,-5.13 0,-8.5 1.14,0 1.72,0 2.86,0 -1.14,-2.32 -2.31,-3.45 -3.45,-5.19 -1.15,2.27 -1.68,3.46 -2.82,5.72 1.14,-0.54 1.68,-0.54 2.27,-0.54 0,3.37 0,5.09 0,8.5l0 0zm-8.55 0.6c0.55,0 0.55,0 1.14,0 0,-3.46 0,-5.19 0,-8.55 1.14,0 1.68,0 2.81,0 -1.13,-1.72 -2.28,-2.86 -3.41,-5.13 -1.14,2.28 -1.68,3.41 -2.86,5.69 0.59,0 1.18,0 2.31,0 0,2.81 0,4.54 0,8l0 0 0.01 -0zm-11.46 5.13l0 0c-7.42,0.55 -11.37,1.14 -19.37,1.69 0.55,-7.42 0.55,-11.37 0.55,-18.24 7.45,-1.13 11.4,-1.13 18.82,-1.69 0,6.81 0,10.24 0,18.24l0 0 -0 0zm-19.37 -17.14l0 0c0,7.46 0,11.4 -0.59,19.37 8.6,-0.54 12.55,-1.09 20.55,-2.22 0,-8 0,-11.41 0,-18.82 -8,0.59 -11.95,1.15 -19.95,1.68l0 0 -0.01 0zm9.14 10.27c0,2.27 0,2.82 0,5.13 -1.72,0 -2.32,0 -4,0 0,0.59 0,0.59 0,1.15 4,0 5.68,-0.54 9.14,-0.54 0,-0.59 0,-1.19 0,-1.19 -1.72,0 -2.32,0 -4,0 0,-1.72 0,-2.82 0,-4.54 2.82,-0.55 4.55,-2.82 4.55,-5.68l0 -4c-4.01,0.59 -6.28,0.59 -10.28,1.14l0 4c0,2.82 1.74,4.54 4.59,4.54l0 0 -0 -0zm-26.28 7.42c0,0.59 -0.54,1.14 -1.14,1.14 -0.55,0 -0.55,-0.55 -0.55,-1.14 0,0 0,0 0,-0.55 0,-0.59 -0.59,-0.59 -0.59,-0.59 -0.55,0 -1.14,0.59 -1.14,0.59 0,0.55 0,0.55 0,1.14 0,1.09 1.14,1.74 2.27,1.74 1.14,0 2.27,-1.19 2.27,-2.32 0,-2.28 0,-3.96 0,-6.28 2.86,0 4.59,-0.55 8,-0.55 -0.59,-4.05 -4.01,-6.27 -8,-6.27 0,0 0,0 0,-0.59 0,-0.56 -0.55,-0.56 -0.55,-0.56 -0.59,0 -0.59,0.56 -0.59,0.56 0,0.59 0,0.59 0,1.14 -4,0.59 -6.81,3.41 -7.41,7.41 2.86,-0.55 4.59,-0.55 7.41,-1.15 0,2.86 0,4 0,6.28l0 0 0.01 0zm-77.6 -82.06l81.06 -4 63.87 3.45 -0.55 0 -83.33 4.54 -59.92 -4.01 -1.14 0 0 0.01zm60.52 5.14l0 90.6 -60.52 -10.81 0 -83.79 60.52 4zm84.42 -4.59l0 85.51 -83.88 10.24 0.59 0 0 -91.15 23.96 -1.14 0.55 24.5 2.86 -4.58 3.41 4.58 1.72 -4.58 2.87 4 1.69 -4.54 2.86 4.54 1.72 -5.09 2.27 4.54 0 -24.55 39.37 -2.27 0.01 0z"/>
   <path class="fil2" d="M143.33 86.38l0 0c-11.09,0 -20.12,-9.03 -20.12,-20.12 0,-11.09 9.02,-20.12 20.12,-20.12 11.09,0 20.12,9.02 20.12,20.12 0,11.09 -9.03,20.12 -20.12,20.12z"/>
   <path class="fil3" d="M166.18 66.95l0 0c-1.33,-1.19 -1.48,-3.22 -0.33,-4.59l0.41 -0.5 -0.57 -0.31c-1.57,-0.84 -2.19,-2.78 -1.41,-4.38l0.29 -0.59 -0.63 -0.16c-1.73,-0.44 -2.79,-2.19 -2.4,-3.93l0.14 -0.63 -0.65 -0.01c-1.78,-0.03 -3.22,-1.47 -3.25,-3.26l-0.01 -0.65 0 0c-2.09,0.47 -4.19,-0.81 -4.72,-2.89l0 0 -0 0c-1.93,0.95 -4.25,0.2 -5.26,-1.69l-0 -0 0 0c-1.65,1.38 -4.09,1.2 -5.52,-0.4 -1.08,1.64 -3.33,1.98 -4.85,0.75l0 0 -0 0c-0.71,1.82 -2.83,2.64 -4.58,1.75l-0 0 0 0c-0.31,1.93 -2.22,3.18 -4.11,2.67 0.1,1.96 -1.52,3.57 -3.47,3.47l0 0c0.5,1.89 -0.74,3.8 -2.68,4.11l0 0 0 0.01c0.88,1.74 0.07,3.87 -1.75,4.58l-0.01 0 0 0c1.24,1.52 0.89,3.77 -0.74,4.85l-0.01 0 0.48 0.43c1.33,1.19 1.48,3.22 0.33,4.59l-0.42 0.5 0.57 0.31c1.57,0.84 2.19,2.78 1.41,4.38l-0.29 0.59 0.63 0.16c1.73,0.44 2.79,2.19 2.4,3.93l-0.14 0.63 0.65 0.01c1.78,0.03 3.23,1.47 3.26,3.26l0.01 0.65 0.63 -0.14c1.74,-0.39 3.48,0.67 3.93,2.4l0.16 0.63 0.59 -0.29c1.6,-0.79 3.54,-0.17 4.38,1.41l0.31 0.57 0.5 -0.42c1.37,-1.15 3.4,-1 4.59,0.33l0.43 0.48 0 -0.01c1.08,-1.63 3.33,-1.98 4.85,-0.74l0.01 0 0 -0c0.71,-1.83 2.83,-2.64 4.58,-1.75l0.01 0 0 0c0.31,-1.93 2.22,-3.18 4.11,-2.68l0 0c-0.1,-1.96 1.52,-3.57 3.47,-3.47l0 0 0 0c-0.5,-1.89 0.74,-3.8 2.67,-4.11l0 0 -0 -0.01c-0.89,-1.74 -0.07,-3.87 1.75,-4.58l0 -0 -0 -0c-1.23,-1.52 -0.89,-3.77 0.74,-4.85l0.01 -0 -0.48 -0.43z"/>
   <path class="fil4" d="M143.36 74.85l-9.81 -9.81 3.09 -3.09 6.72 6.72 14.12 -14.12c-3.37,-4.04 -8.44,-6.63 -14.12,-6.63 -10.14,0 -18.37,8.22 -18.37,18.37 0,10.14 8.22,18.37 18.37,18.37 10.14,0 18.37,-8.22 18.37,-18.37 0,-2.87 -0.66,-5.57 -1.82,-8l-16.54 16.54 0 0.01z"/>
  </g>
 </g>
</svg>
