<?xml version="1.0" encoding="UTF-8"?>
<!DOCTYPE svg PUBLIC "-//W3C//DTD SVG 1.1//EN" "http://www.w3.org/Graphics/SVG/1.1/DTD/svg11.dtd">
<!-- Creator: CorelDRAW 2019 (64-Bit) -->
<svg xmlns="http://www.w3.org/2000/svg" xml:space="preserve" width="0.166661in" height="0.166661in" version="1.1" style="shape-rendering:geometricPrecision; text-rendering:geometricPrecision; image-rendering:optimizeQuality; fill-rule:evenodd; clip-rule:evenodd"
viewBox="0 0 166.66 166.66"
 xmlns:xlink="http://www.w3.org/1999/xlink"
 xmlns:xodm="http://www.corel.com/coreldraw/odm/2003">
 <defs>
  <style type="text/css">
   <![CDATA[
    .fil0 {fill:none}
    .fil1 {fill:#FBB457}
   ]]>
  </style>
 </defs>
 <g id="Layer_x0020_1">
  <metadata id="CorelCorpID_0Corel-Layer"/>
  <g id="_2315234973408">
   <rect class="fil0" x="-0.01" y="-0" width="166.67" height="166.67"/>
   <rect class="fil0" x="-0.01" y="-0" width="166.67" height="166.67"/>
   <path class="fil1" d="M101.05 127.3l0 0c-9.19,0.62 -13.75,1.25 -22.26,1.93 0,-8.53 0,-13.12 0,-21.59 9.15,-0.74 13.07,-1.36 22.26,-1.98 0,8.47 0,12.44 0,21.65l0 0 0 -0.01zm-22.94 -20.4l0 0c0,9.2 0,13.8 0,23 9.2,-0.68 13.75,-1.35 23.63,-2.61 0,-9.2 0,-13.18 0,-22.32 -9.22,0.68 -13.8,1.31 -23.63,1.93l0 0 0 -0.01zm82.65 13.8l0 0c-8.53,0.63 -12.44,1.31 -21.65,1.99 0,-8.57 0,-12.5 0,-21.02 8.53,-0.62 13.12,-0.62 21.65,-1.98 0,8.57 0,12.43 0,21.01l0 0 0 -0zm-22.26 -19.02l0 0c0,8.53 0,12.44 0.63,21.65 8.53,-0.62 13.12,-1.32 22.33,-1.98 0,-9.2 0,-13.7 0,-22.27 -9.2,1.35 -13.8,1.35 -22.94,2.61l0 0 -0.01 -0.01zm20.33 16.42l0 0c-6.58,0.63 -10.51,1.25 -17.09,1.98 0,0.62 0,0.62 0,1.25 6.58,-0.63 10.51,-1.25 17.09,-1.98 0,-0.63 0,-0.63 0,-1.25l0 0zm-4.6 -0.69l0 0c0.63,0 1.31,0 1.31,0 0,-3.92 0,-5.9 0,-9.78 1.31,0 1.98,0 3.29,0 -1.31,-2.67 -2.66,-3.97 -3.97,-5.96 -1.31,2.61 -1.93,3.98 -3.24,6.58 1.31,-0.62 1.94,-0.62 2.61,-0.62 0,3.87 0,5.85 0,9.78l0 0zm-9.83 0.69c0.63,0 0.63,0 1.31,0 0,-3.98 0,-5.96 0,-9.83 1.31,0 1.94,0 3.23,0 -1.3,-1.98 -2.61,-3.29 -3.92,-5.9 -1.31,2.61 -1.94,3.92 -3.29,6.54 0.68,0 1.35,0 2.66,0 0,3.23 0,5.22 0,9.2l0 0 0.02 -0zm-13.18 5.91l0 0c-8.53,0.63 -13.07,1.31 -22.27,1.93 0.63,-8.53 0.63,-13.07 0.63,-20.97 8.57,-1.29 13.11,-1.29 21.64,-1.93 0,7.84 0,11.77 0,20.97l0 0 -0 0zm-22.27 -19.71l0 0c0,8.57 0,13.11 -0.68,22.26 9.89,-0.62 14.43,-1.25 23.63,-2.55 0,-9.2 0,-13.12 0,-21.65 -9.2,0.68 -13.74,1.32 -22.94,1.94l0 0 -0.01 0zm10.51 11.81c0,2.61 0,3.24 0,5.9 -1.98,0 -2.67,0 -4.6,0 0,0.69 0,0.69 0,1.32 4.6,0 6.54,-0.62 10.51,-0.62 0,-0.69 0,-1.36 0,-1.36 -1.98,0 -2.67,0 -4.6,0 0,-1.98 0,-3.24 0,-5.23 3.24,-0.63 5.22,-3.24 5.22,-6.53l0 -4.61c-4.61,0.68 -7.22,0.68 -11.82,1.31l0 4.6c0,3.24 2,5.22 5.28,5.22l0 0 -0 -0zm-30.22 8.53c0,0.68 -0.62,1.31 -1.31,1.31 -0.63,0 -0.63,-0.63 -0.63,-1.31 0,0 0,0 0,-0.63 0,-0.68 -0.68,-0.68 -0.68,-0.68 -0.63,0 -1.31,0.68 -1.31,0.68 0,0.63 0,0.63 0,1.31 0,1.25 1.31,1.99 2.61,1.99 1.31,0 2.61,-1.36 2.61,-2.67 0,-2.63 0,-4.55 0,-7.22 3.29,0 5.28,-0.63 9.2,-0.63 -0.68,-4.65 -4.61,-7.21 -9.2,-7.21 0,0 0,0 0,-0.67 0,-0.64 -0.63,-0.64 -0.63,-0.64 -0.68,0 -0.68,0.64 -0.68,0.64 0,0.67 0,0.67 0,1.31 -4.6,0.68 -7.84,3.92 -8.52,8.53 3.29,-0.63 5.28,-0.63 8.52,-1.32 0,3.29 0,4.6 0,7.22l0 0 0.01 0zm-89.24 -94.37l93.21 -4.6 73.45 3.97 -0.63 0 -95.82 5.22 -68.9 -4.61 -1.31 0 0 0.01zm69.59 5.91l0 104.19 -69.59 -12.43 0 -96.35 69.59 4.6zm97.07 -5.28l0 98.33 -96.45 11.77 0.68 0 0 -104.82 27.55 -1.31 0.63 28.17 3.29 -5.27 3.92 5.27 1.98 -5.27 3.3 4.59 1.93 -5.22 3.29 5.22 1.98 -5.85 2.61 5.22 0 -28.23 45.27 -2.61 0.01 0z"/>
  </g>
 </g>
</svg>
