<?xml version="1.0" encoding="UTF-8"?>
<!DOCTYPE svg PUBLIC "-//W3C//DTD SVG 1.1//EN" "http://www.w3.org/Graphics/SVG/1.1/DTD/svg11.dtd">
<!-- Creator: CorelDRAW 2019 (64-Bit) -->
<svg xmlns="http://www.w3.org/2000/svg" xml:space="preserve" width="0.166661in" height="0.166661in" version="1.1" style="shape-rendering:geometricPrecision; text-rendering:geometricPrecision; image-rendering:optimizeQuality; fill-rule:evenodd; clip-rule:evenodd"
viewBox="0 0 166.66 166.66"
 xmlns:xlink="http://www.w3.org/1999/xlink"
 xmlns:xodm="http://www.corel.com/coreldraw/odm/2003">
 <defs>
  <style type="text/css">
   <![CDATA[
    .fil0 {fill:none}
    .fil1 {fill:#FBB457;fill-rule:nonzero}
   ]]>
  </style>
 </defs>
 <g id="Layer_x0020_1">
  <metadata id="CorelCorpID_0Corel-Layer"/>
  <rect class="fil0" x="-0.01" y="-0" width="166.67" height="166.67"/>
  <path class="fil1" d="M151.49 32.97c-0.06,-1.7 -0.72,-2.26 -2.12,-2.57 -23.18,-5.27 -44.32,-15.55 -63.71,-29.65 -0.67,-0.48 -1.27,-0.72 -1.84,-0.7l0 0 0 -0.06c-0.57,0.02 -0.97,0.31 -1.63,0.74 -6.77,4.39 -13.42,8.98 -20.44,12.9 -14.12,7.86 -28.93,13.9 -44.68,17.29 -1.12,0.23 -1.9,0.56 -1.94,2.15 -0.35,12.94 0.4,25.58 3.06,38.24 1.18,5.62 2.68,11.06 4.44,16.17l0.1 0 -0.1 0.25c6.02,18.09 15.24,34.47 27.52,49.21 9.5,11.43 20.61,21.42 32.54,29.72l0 -0.06c21.02,-13.87 37.36,-31.74 49.81,-53.66 4.59,-8.09 8.42,-16.38 11.31,-24.9l0.05 0c5.89,-17.6 8.32,-35.92 7.63,-55.07z"/>
 </g>
</svg>
