<?xml version="1.0" encoding="UTF-8"?>
<!DOCTYPE svg PUBLIC "-//W3C//DTD SVG 1.1//EN" "http://www.w3.org/Graphics/SVG/1.1/DTD/svg11.dtd">
<!-- Creator: CorelDRAW 2019 (64-Bit) -->
<svg xmlns="http://www.w3.org/2000/svg" xml:space="preserve" width="0.166661in" height="0.166661in" version="1.1" style="shape-rendering:geometricPrecision; text-rendering:geometricPrecision; image-rendering:optimizeQuality; fill-rule:evenodd; clip-rule:evenodd"
viewBox="0 0 166.66 166.66"
 xmlns:xlink="http://www.w3.org/1999/xlink"
 xmlns:xodm="http://www.corel.com/coreldraw/odm/2003">
 <defs>
  <style type="text/css">
   <![CDATA[
    .fil0 {fill:none}
    .fil1 {fill:#FBB457}
    .fil2 {fill:#FEFEFE;fill-rule:nonzero}
   ]]>
  </style>
 </defs>
 <g id="Layer_x0020_1">
  <metadata id="CorelCorpID_0Corel-Layer"/>
  <rect class="fil0" x="-0.01" y="-0" width="166.67" height="166.67"/>
  <g id="_2315017945568">
   <path class="fil1" d="M47.24 44.87c7.89,-37.98 63.62,-37.98 72.13,0l-34.74 28.83 -37.39 -28.83zm72.13 -15.72c-17.03,-25.55 -55.06,-25.55 -72.13,0 13.16,-32.07 58.4,-32.07 72.13,0l0 0zm26.9 15.72l-18.33 0 0 -0.69c0,-58.91 -89.16,-58.91 -89.16,0l0 0.69 -18.39 0 -11.17 121.8 148.23 0 -11.17 -121.8z"/>
   <g>
    <path class="fil2" d="M61.49 95.3c2.31,-2.27 4.5,-4.42 6.77,-6.65 0.66,0.62 24.46,24.33 35.63,35.52 0.77,0.78 1.57,1.57 2.15,2.48 1.28,2.02 1.07,4.07 -0.57,5.78 -1.65,1.7 -3.66,1.96 -5.75,0.8 -0.69,-0.39 -1.31,-0.92 -1.87,-1.48 -11.82,-11.81 -36.02,-36 -36.37,-36.44z"/>
    <path class="fil2" d="M71.55 77.64c0,0 -13.87,13.83 -20.78,20.73 -1.43,-1.65 -3.24,-3.28 -4.5,-5.25 -2.29,-3.59 -1.7,-7.95 1.34,-11.31 2.01,-2.22 4.17,-4.3 6.31,-6.38 4.76,-4.61 10.31,-4.87 15.1,-0.33 0.93,0.89 2.53,2.54 2.53,2.54z"/>
    <path class="fil2" d="M54.62 102.05c0,0 2.18,-2.38 3.24,-3.54 0.94,0.92 1.61,1.62 2.31,2.32 11.17,11.17 22.35,22.34 33.52,33.52 0.64,0.63 1.79,1.6 2,2.37 0.25,0.9 0.09,1.84 -0.59,2.52 -0.48,0.48 -1.43,0.74 -2.32,0.59 -0.59,-0.1 -1.44,-1.04 -1.94,-1.52 -11.74,-11.74 -23.48,-23.48 -35.2,-35.23 -0.28,-0.28 -1.02,-1.03 -1.02,-1.03z"/>
    <path class="fil2" d="M71.38 85.28c0,0 2.18,-2.38 3.24,-3.54 0.94,0.92 1.61,1.63 2.31,2.32 11.17,11.17 22.35,22.34 33.52,33.52 0.63,0.64 1.79,1.6 2,2.37 0.24,0.91 0.08,1.84 -0.59,2.52 -0.48,0.48 -1.43,0.74 -2.32,0.59 -0.59,-0.09 -1.44,-1.03 -1.94,-1.52 -11.74,-11.73 -23.47,-23.48 -35.2,-35.23 -0.28,-0.28 -1.01,-1.03 -1.01,-1.03z"/>
    <path class="fil2" d="M98.98 143.16c0.8,-3.19 2.28,-4.44 5.37,-4.8 3.99,-0.46 6.25,-3.43 7.17,-8.35 0.26,-1.41 1.19,-2.59 2.49,-3.19 0.63,-0.29 1.3,-0.59 2.02,-0.93 1.91,7.62 3.77,15.02 5.76,22.95 -7.82,-1.95 -15.28,-3.8 -22.8,-5.68z"/>
   </g>
  </g>
 </g>
</svg>
