<?xml version="1.0" encoding="UTF-8"?>
<!DOCTYPE svg PUBLIC "-//W3C//DTD SVG 1.1//EN" "http://www.w3.org/Graphics/SVG/1.1/DTD/svg11.dtd">
<!-- Creator: CorelDRAW 2019 (64-Bit) -->
<svg xmlns="http://www.w3.org/2000/svg" xml:space="preserve" width="0.166661in" height="0.166661in" version="1.1" style="shape-rendering:geometricPrecision; text-rendering:geometricPrecision; image-rendering:optimizeQuality; fill-rule:evenodd; clip-rule:evenodd"
viewBox="0 0 166.66 166.66"
 xmlns:xlink="http://www.w3.org/1999/xlink"
 xmlns:xodm="http://www.corel.com/coreldraw/odm/2003">
 <defs>
  <style type="text/css">
   <![CDATA[
    .fil0 {fill:none}
    .fil1 {fill:#FBB457}
    .fil2 {fill:#FEFEFE;fill-rule:nonzero}
   ]]>
  </style>
 </defs>
 <g id="Layer_x0020_1">
  <metadata id="CorelCorpID_0Corel-Layer"/>
  <rect class="fil0" x="-0.01" y="-0" width="166.67" height="166.67"/>
  <g id="_2315028502320">
   <path class="fil1" d="M148.26 109.19l15.74 0 0 3.97 -15.06 0c0,-0.73 0,-0.73 0,-1.36 0,-0.63 0,-1.3 -0.68,-2.61l0 0zm10.5 -8.48l-1.99 0 0 -8.57 1.99 0 0 8.57zm-44.59 9.78c-0.68,1.3 -0.68,1.93 -0.68,2.67 0,0.63 0,1.26 0,1.93l-57.7 0 0 -4.6 58.39 0zm16.37 8.52c-2.62,0 -5.91,-3.24 -5.91,-6.59 0,-3.24 3.29,-5.85 5.91,-5.85 3.92,0 6.58,2.62 6.58,5.85 0,3.35 -2.66,6.59 -6.58,6.59l0 0zm-73.45 -79.93l-1.3 0 0 70.11 58.39 0c1.94,-7.85 8.47,-13.07 17.05,-13.07 7.21,0 13.75,4.59 16.36,11.81l15.11 0 0 -15.79 3.97 0 0 -53.06 -109.57 0zm73.45 59.65c-7.21,0 -13.75,6.53 -13.75,13.69 0,7.95 6.54,14.43 13.75,14.43 7.89,0 14.43,-6.48 14.43,-14.43 0,-7.16 -6.54,-13.69 -14.43,-13.69l0 0zm-128.6 1.25c0,-1.25 1.31,-1.94 1.93,-1.94 1.36,0 2.67,0.69 2.67,1.94l0 3.97c0,1.31 -1.31,1.99 -2.67,1.99 -0.62,0 -1.93,-0.68 -1.93,-1.99l0 -3.97zm9.15 -26.14l9.89 -17.04c1.3,-1.98 1.98,-2.61 5.9,-2.61l18.41 0c1.93,0 2.56,1.26 2.56,2.61l0 17.04c0,1.26 -0.63,2.61 -2.56,2.61l-32.2 -0.68c-1.31,0 -1.99,-0.67 -1.99,-1.93l0 0zm19.08 32.1c-3.3,0 -6.59,3.24 -6.59,6.48 0,3.98 3.3,6.59 6.59,6.59 3.92,0 6.54,-2.61 6.54,-6.59 0,-3.24 -2.61,-6.48 -6.54,-6.48l0 0zm0 -8.57c-7.89,0 -15.11,7.21 -15.11,15.05 0,8.57 7.21,15.16 15.11,15.16 7.84,0 14.43,-6.59 14.43,-15.16 0,-7.84 -6.58,-15.05 -14.43,-15.05l0 0zm-30.17 -17.67l0 27.49c0,1.37 1.26,2 2.61,2l9.82 0c0.63,-3.24 2.62,-6.54 5.23,-9.2 3.3,-3.24 7.21,-4.54 12.5,-4.54 4.55,0 9.15,1.3 12.49,4.54 2.62,2.66 3.87,5.96 4.55,9.2l5.28 0c1.26,0 2.56,-0.63 2.56,-2l0 -54.99c0,-1.31 -1.3,-1.99 -2.56,-1.99l-30.22 0c-1.99,0 -3.29,0 -5.23,1.99l-17.04 27.5z"/>
   <path class="fil2" d="M119.01 68.11c-9.74,-2.03 -16.06,2.08 -18.29,3.91l9.65 6.5 -31.95 -0.12 0.23 -0.39c0.01,0 0.01,0 0.01,0l16.54 -26.8 0.37 10.24c2.96,-1.84 12.51,-6.68 25.67,-2.25 17.89,6.04 19.11,22.92 19.17,24.2 0,0 0.01,0 0.01,0 0,0.05 0,0.07 0,0.07 0,0 -3.65,-11.66 -21.41,-15.36z"/>
  </g>
 </g>
</svg>
