<?xml version="1.0" encoding="UTF-8"?>
<!DOCTYPE svg PUBLIC "-//W3C//DTD SVG 1.1//EN" "http://www.w3.org/Graphics/SVG/1.1/DTD/svg11.dtd">
<!-- Creator: CorelDRAW 2019 (64-Bit) -->
<svg xmlns="http://www.w3.org/2000/svg" xml:space="preserve" width="0.166661in" height="0.166661in" version="1.1" style="shape-rendering:geometricPrecision; text-rendering:geometricPrecision; image-rendering:optimizeQuality; fill-rule:evenodd; clip-rule:evenodd"
viewBox="0 0 166.66 166.66"
 xmlns:xlink="http://www.w3.org/1999/xlink"
 xmlns:xodm="http://www.corel.com/coreldraw/odm/2003">
 <defs>
  <style type="text/css">
   <![CDATA[
    .fil0 {fill:none}
    .fil1 {fill:#FBB457}
   ]]>
  </style>
 </defs>
 <g id="Layer_x0020_1">
  <metadata id="CorelCorpID_0Corel-Layer"/>
  <rect class="fil0" x="-0" y="-0.01" width="166.67" height="166.67"/>
  <path class="fil1" d="M14.43 67.25c0,2.62 1.98,4.6 4.6,4.6l63 0c2.67,0 5.28,-1.98 5.28,-4.6 -0.69,-2.6 -2.62,-5.22 -5.28,-5.22l-63 0c-2.62,0 -4.6,2.62 -4.6,5.22l0 0zm0 -21.63c0,2.61 1.98,5.28 4.6,5.28l63 0c2.67,0 5.28,-2.67 5.28,-5.28 -0.69,-2.62 -2.62,-4.6 -5.28,-4.6l-63 0c-2.62,0 -4.6,1.98 -4.6,4.6l0 0zm101.74 13.12l28.86 0 9.83 28.17 -25.56 0 0 -5.91 -13.13 0 0 -22.27zm3.98 64.88c0,5.22 3.87,8.52 9.15,8.52 4.6,0 8.52,-3.3 8.52,-8.52 0,-4.6 -3.92,-8.52 -8.52,-8.52 -5.28,0 -9.15,3.92 -9.15,8.52l0 0zm4.5 0c0,2.61 2.04,4.59 4.65,4.59 2.56,0 3.92,-1.98 3.92,-4.59 0,-2.61 -1.36,-4.6 -3.92,-4.6 -2.61,0 -4.65,1.99 -4.65,4.6l0 0zm-96.41 0c0,5.22 3.92,8.52 8.52,8.52 5.28,0 9.15,-3.3 9.15,-8.52 0,-4.6 -3.86,-8.52 -9.15,-8.52 -4.6,0 -8.52,3.92 -8.52,8.52l0 0zm-7.21 0c0,8.52 7.21,15.74 15.73,15.74 9.15,0 16.42,-7.22 16.42,-15.74 0,-8.52 -7.27,-15.69 -16.42,-15.69 -8.52,0 -15.73,7.16 -15.73,15.69l0 0zm11.13 0c0,2.61 1.99,4.59 4.6,4.59 2.62,0 4.6,-1.98 4.6,-4.59 0,-2.61 -1.98,-4.6 -4.6,-4.6 -2.61,0 -4.6,1.99 -4.6,4.6l0 0zm80.77 0c0,8.52 7.22,15.74 16.37,15.74 8.52,0 15.74,-7.22 15.74,-15.74 0,-8.52 -7.22,-15.69 -15.74,-15.69 -9.15,0 -16.37,7.16 -16.37,15.69l0 0zm-107.65 -7.22l0 -82.61c0,-3.24 2.62,-6.48 6.54,-6.48l86.63 0c3.3,0 5.91,3.24 5.91,6.48l0 37.44 5.85 0 0 -17.78 37.43 0 13.12 33.46 0 9.21c1.36,0 2.67,1.25 2.67,3.24l0 3.97 0.63 0 0 13.07c1.99,0.67 2.61,1.98 2.61,3.97 0,1.93 -1.98,3.92 -3.92,3.92l-16.46 0 0 -0.68c0,-4.6 -2.56,-8.52 -5.18,-11.81l0 0c-3.29,-3.24 -7.21,-5.23 -11.81,-5.23 -4.65,0 -9.15,1.98 -12.5,5.23l0 0c-2.62,3.29 -4.55,7.21 -4.55,11.81l0 0.68 -58.45 0 0 -0.68c0,-4.6 -1.94,-8.52 -5.23,-11.81 -2.67,-3.24 -7.21,-5.23 -11.81,-5.23 -4.6,0 -8.52,1.98 -11.81,5.23 -3.3,3.29 -4.55,7.21 -4.55,11.81l0 0.68 -15.79 0c-2.61,0 -4.6,-1.99 -4.6,-3.92 0,-1.99 1.99,-3.97 4.6,-3.97l0.68 0z"/>
 </g>
</svg>
