<?xml version="1.0" encoding="UTF-8"?>
<!DOCTYPE svg PUBLIC "-//W3C//DTD SVG 1.1//EN" "http://www.w3.org/Graphics/SVG/1.1/DTD/svg11.dtd">
<!-- Creator: CorelDRAW 2019 (64-Bit) -->
<svg xmlns="http://www.w3.org/2000/svg" xml:space="preserve" width="0.166661in" height="0.166661in" version="1.1" style="shape-rendering:geometricPrecision; text-rendering:geometricPrecision; image-rendering:optimizeQuality; fill-rule:evenodd; clip-rule:evenodd"
viewBox="0 0 166.66 166.66"
 xmlns:xlink="http://www.w3.org/1999/xlink"
 xmlns:xodm="http://www.corel.com/coreldraw/odm/2003">
 <defs>
  <style type="text/css">
   <![CDATA[
    .fil0 {fill:none}
    .fil1 {fill:#FBB457;fill-rule:nonzero}
   ]]>
  </style>
 </defs>
 <g id="Camada_x0020_1">
  <metadata id="CorelCorpID_0Corel-Layer"/>
  <rect class="fil0" x="-0" y="-0" width="166.67" height="166.67"/>
  <g id="_2316041688992">
   <g>
    <path class="fil1" d="M162.37 86.11c-1.91,0 -3.65,-1.28 -4.15,-3.21l-15.35 -59.1 -120.91 0 -13.2 57.14c-0.53,2.31 -2.84,3.74 -5.14,3.21 -2.31,-0.54 -3.74,-2.83 -3.21,-5.15l13.96 -60.46c0.45,-1.94 2.18,-3.32 4.18,-3.32l127.63 0c1.95,0 3.66,1.31 4.15,3.21l16.19 62.3c0.59,2.29 -0.78,4.63 -3.07,5.23 -0.36,0.09 -0.72,0.14 -1.08,0.14z"/>
   </g>
   <g>
    <path class="fil1" d="M23.08 83.11c-0.17,0 -0.33,-0.02 -0.5,-0.06 -1.15,-0.28 -1.86,-1.43 -1.59,-2.59l14.76 -61.44c0.28,-1.15 1.43,-1.87 2.59,-1.59 1.15,0.28 1.86,1.43 1.58,2.59l-14.76 61.44c-0.24,0.98 -1.11,1.65 -2.08,1.65z"/>
   </g>
   <g>
    <path class="fil1" d="M43.82 85.25c-0.24,0 -0.5,-0.02 -0.75,-0.06 -2.33,-0.41 -3.89,-2.63 -3.48,-4.96l10.78 -61.44c0.41,-2.33 2.61,-3.89 4.96,-3.48 2.33,0.41 3.89,2.63 3.48,4.96l-10.78 61.44c-0.36,2.08 -2.17,3.54 -4.22,3.54z"/>
   </g>
   <g>
    <path class="fil1" d="M63.43 83.11c-0.07,0 -0.15,-0 -0.22,-0.01 -1.18,-0.12 -2.04,-1.17 -1.92,-2.35l5.99 -58.72c0.12,-1.18 1.22,-1.99 2.35,-1.91 1.18,0.12 2.04,1.17 1.92,2.35l-5.99 58.72c-0.11,1.1 -1.05,1.93 -2.13,1.93z"/>
   </g>
   <g>
    <path class="fil1" d="M144.46 83.54c-0.94,0 -1.81,-0.63 -2.07,-1.58l-16.6 -61.45c-0.31,-1.14 0.37,-2.32 1.51,-2.63 1.13,-0.3 2.32,0.37 2.63,1.51l16.59 61.45c0.31,1.14 -0.37,2.32 -1.51,2.63 -0.19,0.05 -0.37,0.07 -0.56,0.07z"/>
   </g>
   <g>
    <path class="fil1" d="M124.35 85.68c-2.04,0 -3.85,-1.46 -4.22,-3.54l-10.65 -60.11c-0.41,-2.33 1.14,-4.55 3.47,-4.97 2.35,-0.41 4.56,1.15 4.97,3.48l10.65 60.11c0.41,2.33 -1.14,4.56 -3.47,4.97 -0.26,0.04 -0.5,0.06 -0.75,0.06z"/>
   </g>
   <g>
    <path class="fil1" d="M104.7 83.54c-1.08,0 -2.01,-0.81 -2.13,-1.91l-6.53 -59.15c-0.13,-1.18 0.72,-2.24 1.9,-2.37 1.19,-0.15 2.23,0.72 2.37,1.89l6.52 59.16c0.13,1.18 -0.72,2.24 -1.89,2.37 -0.08,0.01 -0.16,0.01 -0.24,0.01z"/>
   </g>
   <g>
    <path class="fil1" d="M83.42 87.02c-2.37,0 -4.29,-1.92 -4.29,-4.29l0 -61.45c0,-2.37 1.92,-4.28 4.29,-4.28 2.37,0 4.28,1.92 4.28,4.28l0 61.45c0,2.37 -1.92,4.29 -4.28,4.29z"/>
   </g>
   <g>
    <path class="fil1" d="M146.02 151.43l-124.47 0c-2.37,0 -4.29,-1.92 -4.29,-4.29l0 -59.56c0,-2.37 1.92,-4.28 4.29,-4.28 2.37,0 4.29,1.92 4.29,4.28l0 55.28 115.89 0 0 -55.28c0,-2.37 1.92,-4.28 4.29,-4.28 2.37,0 4.29,1.92 4.29,4.28l0 59.56c0,2.37 -1.92,4.29 -4.29,4.29z"/>
   </g>
   <g>
    <path class="fil1" d="M101.44 149.28l-30.11 0c-1.18,0 -2.14,-0.96 -2.14,-2.14l0 -48.06c0,-1.19 0.96,-2.14 2.14,-2.14l30.11 0c1.19,0 2.14,0.96 2.14,2.14l0 48.06c0,1.18 -0.96,2.14 -2.14,2.14zm-27.96 -4.29l0 0 25.82 0 0 -43.76 -25.82 0 0 43.76z"/>
   </g>
   <g>
    <path class="fil1" d="M14.12 89.05c-4.76,0 -9.3,-1.8 -12.77,-5.06 -1.72,-1.62 -1.81,-4.33 -0.19,-6.06 1.62,-1.73 4.34,-1.81 6.06,-0.19 3.43,3.22 8.98,3.57 12.73,0.87 1.92,-1.38 4.6,-0.94 5.98,0.98 1.38,1.92 0.94,4.6 -0.98,5.98 -3.16,2.28 -6.91,3.48 -10.83,3.48z"/>
   </g>
   <g>
    <path class="fil1" d="M33.73 89.35c-4.76,0 -9.3,-1.8 -12.77,-5.07 -1.72,-1.63 -1.81,-4.33 -0.18,-6.06 1.62,-1.72 4.33,-1.8 6.06,-0.18 3.42,3.22 8.96,3.57 12.73,0.87 1.93,-1.38 4.6,-0.94 5.98,0.98 1.38,1.93 0.94,4.6 -0.98,5.98 -3.17,2.27 -6.91,3.47 -10.83,3.47z"/>
   </g>
   <g>
    <path class="fil1" d="M53.65 89.65c-4.77,0 -9.31,-1.8 -12.78,-5.07 -1.72,-1.63 -1.8,-4.34 -0.17,-6.06 1.63,-1.72 4.34,-1.8 6.06,-0.18 3.4,3.21 8.95,3.57 12.72,0.87 1.93,-1.38 4.6,-0.94 5.98,0.98 1.38,1.92 0.94,4.6 -0.98,5.98 -3.17,2.28 -6.92,3.48 -10.83,3.48z"/>
   </g>
   <g>
    <path class="fil1" d="M73.26 89.95c-4.77,0 -9.3,-1.8 -12.77,-5.07 -1.72,-1.62 -1.81,-4.33 -0.19,-6.06 1.63,-1.73 4.34,-1.8 6.06,-0.18 3.42,3.22 8.97,3.57 12.73,0.87 1.91,-1.39 4.6,-0.94 5.98,0.98 1.38,1.92 0.94,4.6 -0.98,5.98 -3.17,2.28 -6.91,3.48 -10.84,3.48z"/>
   </g>
   <g>
    <path class="fil1" d="M93.61 89.71c-4.76,0 -9.3,-1.8 -12.77,-5.07 -1.72,-1.63 -1.8,-4.34 -0.18,-6.06 1.62,-1.73 4.34,-1.8 6.06,-0.19 3.41,3.22 8.96,3.58 12.73,0.87 1.93,-1.38 4.6,-0.94 5.98,0.98 1.38,1.92 0.94,4.6 -0.98,5.98 -3.17,2.27 -6.91,3.48 -10.83,3.48z"/>
   </g>
   <g>
    <path class="fil1" d="M113.23 90.01c-4.78,0 -9.31,-1.8 -12.77,-5.07 -1.72,-1.63 -1.8,-4.34 -0.17,-6.06 1.63,-1.72 4.34,-1.8 6.06,-0.17 3.39,3.21 8.94,3.57 12.73,0.86 1.93,-1.38 4.6,-0.94 5.98,0.99 1.38,1.93 0.93,4.6 -0.99,5.98 -3.17,2.27 -6.92,3.47 -10.83,3.47z"/>
   </g>
   <g>
    <path class="fil1" d="M133.14 90.31c-4.77,0 -9.3,-1.8 -12.77,-5.07 -1.72,-1.63 -1.8,-4.34 -0.18,-6.06 1.63,-1.73 4.34,-1.8 6.06,-0.19 3.41,3.22 8.97,3.57 12.73,0.87 1.92,-1.39 4.6,-0.95 5.98,0.98 1.38,1.92 0.94,4.6 -0.98,5.98 -3.16,2.27 -6.91,3.48 -10.83,3.48z"/>
   </g>
   <g>
    <path class="fil1" d="M152.75 90.61c-4.76,0 -9.3,-1.8 -12.77,-5.07 -1.72,-1.62 -1.81,-4.33 -0.19,-6.06 1.63,-1.72 4.34,-1.8 6.06,-0.18 3.42,3.22 8.96,3.57 12.73,0.87 1.93,-1.39 4.6,-0.94 5.98,0.98 1.38,1.93 0.94,4.6 -0.98,5.98 -3.17,2.27 -6.91,3.47 -10.83,3.47z"/>
   </g>
  </g>
 </g>
</svg>
