<?xml version="1.0" encoding="UTF-8"?>
<!DOCTYPE svg PUBLIC "-//W3C//DTD SVG 1.1//EN" "http://www.w3.org/Graphics/SVG/1.1/DTD/svg11.dtd">
<!-- Creator: CorelDRAW 2019 (64-Bit) -->
<svg xmlns="http://www.w3.org/2000/svg" xml:space="preserve" width="0.166661in" height="0.166661in" version="1.1" style="shape-rendering:geometricPrecision; text-rendering:geometricPrecision; image-rendering:optimizeQuality; fill-rule:evenodd; clip-rule:evenodd"
viewBox="0 0 166.66 166.66"
 xmlns:xlink="http://www.w3.org/1999/xlink"
 xmlns:xodm="http://www.corel.com/coreldraw/odm/2003">
 <defs>
  <style type="text/css">
   <![CDATA[
    .fil0 {fill:none}
    .fil1 {fill:#FBB457;fill-rule:nonzero}
   ]]>
  </style>
 </defs>
 <g id="Camada_x0020_1">
  <metadata id="CorelCorpID_0Corel-Layer"/>
  <rect class="fil0" x="-0" y="-0" width="166.67" height="166.67"/>
  <g id="_2351020581200">
   <path class="fil1" d="M89.9 89.89c-18.67,18.68 -48.95,18.68 -67.62,0 -18.67,-18.67 -18.67,-48.95 0,-67.61 18.67,-18.68 48.95,-18.68 67.62,0 18.67,18.67 18.67,48.95 0,67.61zm-73.47 -73.46c-21.91,21.91 -21.91,57.4 0,79.31 20.32,20.33 52.38,21.78 74.38,4.37l16.46 16.44 9.3 -9.29 -16.46 -16.45c17.41,-22.01 15.94,-54.06 -4.36,-74.39 -21.92,-21.89 -57.4,-21.89 -79.31,0z"/>
   <path class="fil1" d="M85.91 85.91c-16.44,16.45 -43.21,16.45 -59.65,0 -16.46,-16.44 -16.46,-43.21 0,-59.65 16.44,-16.45 43.21,-16.45 59.65,0 16.44,16.44 16.44,43.21 0,59.65zm-61.55 -61.54c-17.47,17.5 -17.47,45.95 0,63.43 17.49,17.48 45.93,17.48 63.43,0 17.49,-17.48 17.49,-45.93 0,-63.43 -17.47,-17.48 -45.94,-17.48 -63.43,0z"/>
   <path class="fil1" d="M125.14 103.15l-22 22c-2.75,2.74 -2.75,7.19 0,9.94 2.74,2.76 7.21,2.76 9.95,0l22 -22c2.74,-2.74 2.74,-7.19 0,-9.94 -2.75,-2.76 -7.21,-2.76 -9.96,0z"/>
   <path class="fil1" d="M143.37 162.65c5.33,5.33 13.96,5.33 19.29,0 5.33,-5.32 5.33,-13.95 0,-19.28l-26.52 -26.51 -19.29 19.28 26.52 26.51z"/>
  </g>
 </g>
</svg>
