<?xml version="1.0" encoding="UTF-8"?>
<!DOCTYPE svg PUBLIC "-//W3C//DTD SVG 1.1//EN" "http://www.w3.org/Graphics/SVG/1.1/DTD/svg11.dtd">
<!-- Creator: CorelDRAW 2019 (64-Bit) -->
<svg xmlns="http://www.w3.org/2000/svg" xml:space="preserve" width="0.166661in" height="0.166661in" version="1.1" style="shape-rendering:geometricPrecision; text-rendering:geometricPrecision; image-rendering:optimizeQuality; fill-rule:evenodd; clip-rule:evenodd"
viewBox="0 0 166.66 166.66"
 xmlns:xlink="http://www.w3.org/1999/xlink"
 xmlns:xodm="http://www.corel.com/coreldraw/odm/2003">
 <defs>
  <style type="text/css">
   <![CDATA[
    .fil0 {fill:none}
    .fil2 {fill:#FEFEFE;fill-rule:nonzero}
    .fil1 {fill:#FBB457;fill-rule:nonzero}
   ]]>
  </style>
 </defs>
 <g id="Camada_x0020_1">
  <metadata id="CorelCorpID_0Corel-Layer"/>
  <g id="_2315229937040">
   <rect class="fil0" x="-0" y="-0.01" width="166.67" height="166.67"/>
   <g>
    <path class="fil1" d="M91.44 95.51l-84.83 0c-0.72,0 -1.3,-0.58 -1.3,-1.29l0 -67.32c0,-0.71 0.57,-1.29 1.3,-1.29l84.83 0c0.7,0 1.29,0.58 1.29,1.29l0 67.32c0,0.71 -0.59,1.29 -1.29,1.29z"/>
    <path class="fil1" d="M166.66 86.36c0,3 -2.13,5.44 -4.74,5.44l-0.86 0c-2.64,0 -4.76,-2.44 -4.76,-5.44l0 0c0,-3 2.12,-5.43 4.76,-5.43l0.86 0c2.62,0 4.74,2.43 4.74,5.43l0 0z"/>
    <path class="fil1" d="M162.56 101.19c0.09,-0.08 0.03,-0.22 0.03,-0.46l0 -19.96c0,-0.77 -0.06,-1.41 -0.75,-1.51 -0.07,-0.06 -0.08,-0.11 -0.18,-0.17l-18.32 -12.72c-0.33,-0.24 -0.8,-0.45 -1.31,-0.61 -2.63,-26.24 -15.86,-31.96 -18.76,-32.85 -5.88,-1.8 -22.44,-1.11 -22.44,-1.11 -0.86,0.04 -1.5,0.77 -1.5,1.62l0 32.12c0,0.09 0,0.17 0.02,0.23 -0.02,0.06 -0.02,0.14 -0.02,0.23l0 13.47c0,0.05 0,0.1 0,0.15 0,0.04 0,0.09 0,0.14l0 20.98c0,0.29 -0.03,0.32 0.11,0.32l-97.74 0c-0.86,0 -1.71,0.89 -1.71,1.74l0 14.9c0,0.86 0.85,1.63 1.71,1.63l159.73 0c0.86,0 1.61,-0.78 1.61,-1.63l0 -15.93c0,-0.38 -0.27,-0.53 -0.5,-0.57zm-59.68 -38.76l0 -26.94c0,0 14.64,-0.28 19.46,1.04 2.87,0.79 12.67,7.32 15.6,25.91l-35.07 0z"/>
    <path class="fil1" d="M54.78 122.87c0,10.04 -8.21,18.18 -18.33,18.18l0 0c-10.14,0 -18.35,-8.14 -18.35,-18.18l0 0c0,-10.04 8.21,-18.18 18.35,-18.18l0 0c10.12,0 18.33,8.14 18.33,18.18l0 0z"/>
    <path class="fil1" d="M149.22 122.87c0,10.04 -8.21,18.18 -18.33,18.18l0 0c-10.14,0 -18.35,-8.14 -18.35,-18.18l0 0c0,-10.04 8.21,-18.18 18.35,-18.18l0 0c10.13,0 18.33,8.14 18.33,18.18l0 0zm-3.66 0c0,8.03 -6.58,14.54 -14.68,14.54l0 0c-8.11,0 -14.67,-6.5 -14.67,-14.54l0 0c0,-8.03 6.56,-14.54 14.67,-14.54l0 0c8.1,0 14.68,6.51 14.68,14.54l0 0z"/>
    <path class="fil2" d="M51.1 122.87c0,8.03 -6.56,14.54 -14.66,14.54l0 0c-8.11,0 -14.68,-6.5 -14.68,-14.54l0 0c0,-8.03 6.56,-14.54 14.68,-14.54l0 0c8.09,0 14.66,6.51 14.66,14.54l0 0z"/>
    <path class="fil2" d="M145.56 122.87c0,8.03 -6.58,14.54 -14.68,14.54l0 0c-8.11,0 -14.67,-6.5 -14.67,-14.54l0 0c0,-8.03 6.56,-14.54 14.67,-14.54l0 0c8.1,0 14.68,6.51 14.68,14.54l0 0z"/>
   </g>
  </g>
 </g>
</svg>
