<?xml version="1.0" encoding="UTF-8"?>
<!DOCTYPE svg PUBLIC "-//W3C//DTD SVG 1.1//EN" "http://www.w3.org/Graphics/SVG/1.1/DTD/svg11.dtd">
<!-- Creator: CorelDRAW 2019 (64-Bit) -->
<svg xmlns="http://www.w3.org/2000/svg" xml:space="preserve" width="0.166661in" height="0.166661in" version="1.1" style="shape-rendering:geometricPrecision; text-rendering:geometricPrecision; image-rendering:optimizeQuality; fill-rule:evenodd; clip-rule:evenodd"
viewBox="0 0 166.66 166.66"
 xmlns:xlink="http://www.w3.org/1999/xlink"
 xmlns:xodm="http://www.corel.com/coreldraw/odm/2003">
 <defs>
  <style type="text/css">
   <![CDATA[
    .fil0 {fill:none}
    .fil1 {fill:#FBB457;fill-rule:nonzero}
   ]]>
  </style>
 </defs>
 <g id="Layer_x0020_1">
  <metadata id="CorelCorpID_0Corel-Layer"/>
  <rect class="fil0" x="-0.01" y="-0" width="166.67" height="166.67"/>
  <g id="_2315011601792">
   <path class="fil1" d="M78.09 0.76c7.3,-2.62 17.24,1.63 16.93,10.28 0.02,28.14 0.26,56.28 -0.11,84.4 -0.57,9.61 -14.09,12.98 -20.51,6.75 -4.02,-3.27 -3.5,-8.8 -3.61,-13.42 0.23,-25.94 -0.13,-51.87 0.15,-77.8 -0.1,-4.49 3.04,-8.59 7.14,-10.2z"/>
   <path class="fil1" d="M8.67 91.21c0,-29.18 19.26,-56.41 45.9,-67.7 0.06,7.58 0.08,15.19 0,22.77 -14.2,9.4 -24.48,25.03 -25.41,42.24 -1.69,18.22 6.85,36.78 21.5,47.66 16.38,12.62 40.21,14.43 58.33,4.49 16.28,-8.57 27.49,-25.81 28.69,-44.19 1.74,-20.17 -9.3,-40 -26.27,-50.65 -0.11,-7.53 -0.11,-15.06 -0.03,-22.56 17.21,7.4 31.96,20.8 39.74,37.93 9.19,19.5 9.22,42.94 0.16,62.48 -9.92,22.02 -31.2,38.74 -55.14,42.45 -13.83,0.78 -28.43,1.58 -41.3,-4.47 -27.91,-11.08 -47.19,-40.39 -46.16,-70.46z"/>
  </g>
 </g>
</svg>
