<?xml version="1.0" encoding="UTF-8"?>
<!DOCTYPE svg PUBLIC "-//W3C//DTD SVG 1.1//EN" "http://www.w3.org/Graphics/SVG/1.1/DTD/svg11.dtd">
<!-- Creator: CorelDRAW 2019 (64-Bit) -->
<svg xmlns="http://www.w3.org/2000/svg" xml:space="preserve" width="0.166661in" height="0.166661in" version="1.1" style="shape-rendering:geometricPrecision; text-rendering:geometricPrecision; image-rendering:optimizeQuality; fill-rule:evenodd; clip-rule:evenodd"
viewBox="0 0 166.66 166.66"
 xmlns:xlink="http://www.w3.org/1999/xlink"
 xmlns:xodm="http://www.corel.com/coreldraw/odm/2003">
 <defs>
  <style type="text/css">
   <![CDATA[
    .fil0 {fill:none}
    .fil1 {fill:#FBB457;fill-rule:nonzero}
   ]]>
  </style>
 </defs>
 <g id="Layer_x0020_1">
  <metadata id="CorelCorpID_0Corel-Layer"/>
  <rect class="fil0" x="-0.01" y="-0" width="166.67" height="166.67"/>
  <g id="_2315011478304">
   <g>
    <path class="fil1" d="M14.99 0.23c45.35,-0.28 90.73,0.16 136.11,-0.23 3.17,7.46 1.85,15.7 2.03,23.59 0,44.23 -0.07,88.49 0.06,132.75 0.05,3.12 -0.24,6.22 -0.83,9.31 -3.9,1.4 -8.17,0.85 -12.22,1.01 -41.84,-0.1 -83.68,-0.16 -125.52,0 -1.8,-9.44 -0.99,-19.09 -1.09,-28.63 -0.06,-41.66 0.1,-83.35 -0.08,-125.03 -0.11,-4.31 0.52,-8.58 1.56,-12.77zm11.47 20.54l0 0c0.16,43.35 -0.16,86.7 0.16,130.02 -0.63,5.36 6.37,3.59 9.52,4.06 34.61,-0.57 69.3,0.86 103.86,-0.75 -0.05,-47.02 0.36,-94.03 -0.21,-141.05 -36.3,-0.99 -72.66,-0.44 -108.98,-0.31 -5.1,-0.83 -4.19,4.92 -4.34,8.04z"/>
   </g>
   <path class="fil1" d="M40.42 34.12c-1.25,-4.37 1.09,-8.27 5.93,-7.15 10.04,-0.07 20.1,-0.44 30.11,0.31 0.39,1.61 1.19,4.83 1.59,6.45 -12.54,0.65 -25.07,0.23 -37.63,0.39z"/>
   <path class="fil1" d="M43.8 49.43c-5.05,1.8 -4.84,-8.58 0.18,-6.76 26.7,-0.05 53.46,-0.39 80.15,0.16 0.44,1.61 1.3,4.83 1.74,6.42 -27.33,0.83 -54.74,0.65 -82.07,0.18z"/>
   <path class="fil1" d="M41.7 58.2c27.48,-0.96 55.15,-0.86 82.64,-0.02l1.58 1.84c-0.23,1.15 -0.67,3.46 -0.91,4.61 -27.95,0.52 -55.96,0.6 -83.91,-0.06 0.15,-1.58 0.44,-4.76 0.6,-6.37z"/>
   <path class="fil1" d="M41.72 73.91c26.78,-1.28 53.7,-0.42 80.51,-0.44 5.17,-1.69 5.67,9.05 -0.16,7.02 -27.15,0.13 -54.3,0.18 -81.44,-0.08 0.26,-1.64 0.83,-4.89 1.09,-6.5z"/>
   <g>
    <path class="fil1" d="M96.3 99.13c7.91,-11.65 27.31,-10.93 34.35,1.25 6.42,9.39 2.6,21.66 -5.33,28.79 2.7,4.94 5.33,9.93 7.78,15 -1.93,-0.57 -5.78,-1.72 -7.7,-2.26 -0.83,1.85 -2.52,5.59 -3.35,7.46 -3.07,-5.46 -6.03,-10.98 -8.97,-16.49 -3.04,5.49 -5.93,11.08 -9.15,16.46 -0.81,-1.85 -2.42,-5.56 -3.22,-7.44 -1.95,0.55 -5.88,1.64 -7.83,2.19 2.63,-4.99 5.18,-10.04 7.88,-15 -8.45,-7.33 -11.86,-20.7 -4.45,-29.96zm13.94 -3.9l0 0c-12.46,1.56 -18.36,18.67 -9.34,27.48 7.41,8.92 23.09,6.14 27.26,-4.6 5.82,-11.31 -5.67,-25.56 -17.92,-22.88z"/>
   </g>
   <path class="fil1" d="M106.86 99.26c8.66,-4.73 20.49,2.47 19.89,12.43 0.39,10.27 -12.61,17.5 -21.06,11.44 -8.89,-5.04 -8.19,-19.71 1.17,-23.87z"/>
  </g>
 </g>
</svg>
