<?xml version="1.0" encoding="UTF-8"?>
<!DOCTYPE svg PUBLIC "-//W3C//DTD SVG 1.0//EN" "http://www.w3.org/TR/2001/REC-SVG-20010904/DTD/svg10.dtd">
<!-- Creator: CorelDRAW 2019 (64-Bit) -->
<svg xmlns="http://www.w3.org/2000/svg" xml:space="preserve" width="1.66666in" height="1.66666in" version="1.0" style="shape-rendering:geometricPrecision; text-rendering:geometricPrecision; image-rendering:optimizeQuality; fill-rule:evenodd; clip-rule:evenodd"
viewBox="0 0 1666.66 1666.66"
 xmlns:xlink="http://www.w3.org/1999/xlink"
 xmlns:xodm="http://www.corel.com/coreldraw/odm/2003">
 <defs>
  <style type="text/css">
   <![CDATA[
    .fil0 {fill:#F58634;fill-rule:nonzero}
   ]]>
  </style>
 </defs>
 <g id="Layer_x0020_1">
  <metadata id="CorelCorpID_0Corel-Layer"/>
  <g id="_3109834436688">
   <g>
    <path class="fil0" d="M1401.36 1467.19l-1137 0c-24.41,0 -44.3,-19.81 -44.3,-44.3l0 -653.57c0,-24.49 19.88,-44.3 44.3,-44.3 24.49,0 44.3,19.8 44.3,44.3l0 609.27 1048.29 0 0 -609.27c0,-24.49 19.81,-44.3 44.3,-44.3 24.49,0 44.3,19.8 44.3,44.3l0 653.57c0,24.49 -19.81,44.3 -44.3,44.3l0.12 0z"/>
   </g>
   <g>
    <path class="fil0" d="M1401.36 476.47l-1137 0c-24.41,0 -44.3,-19.81 -44.3,-44.3 0,-24.41 19.88,-44.3 44.3,-44.3l1137 0c24.49,0 44.3,19.8 44.3,44.3 0,24.49 -19.81,44.3 -44.3,44.3z"/>
   </g>
   <g>
    <path class="fil0" d="M1525.39 1467.19l-1385.05 0c-24.49,0 -44.3,-19.81 -44.3,-44.3 0,-24.41 19.8,-44.3 44.3,-44.3l1385.05 0c24.49,0 44.3,19.8 44.3,44.3 0,24.49 -19.81,44.3 -44.3,44.3z"/>
   </g>
   <g>
    <path class="fil0" d="M1622.41 813.63c-0.31,0 -0.59,0 -0.91,0l-1577.16 0c-16.3,0 -31.3,-8.9 -39.02,-23.19 -7.72,-14.29 -7.01,-31.69 1.89,-45.4l212.93 -326.13 0 -175.13c0,-24.49 19.88,-44.3 44.3,-44.3l1137 0c24.49,0 44.3,19.81 44.3,44.3l0 175.13 208.72 319.83c7.6,7.99 12.2,18.7 12.2,30.59 0,24.41 -19.81,44.3 -44.3,44.3l0.04 0zm-1496.24 -88.63l0 0 1413.44 0 -175.41 -268.73c-4.69,-7.2 -7.21,-15.59 -7.21,-24.21l0 -144.03 -1048.29 0 0 144.03c0,8.58 -2.52,17.01 -7.2,24.29l-175.41 268.61 0.08 0.04z"/>
   </g>
   <g>
    <g>
     <g>
      <path class="fil0" d="M576.99 1364.15c-1.5,0 -3,-0.31 -4.41,-0.91l-177.3 -73.19c-4.29,-1.81 -7.2,-5.99 -7.2,-10.71l0 -153.4c0,-6.42 5.2,-11.62 11.61,-11.62 6.42,0 11.62,5.2 11.62,11.62l0 145.72 154.11 63.59 0 -217.74 -170.13 -70.2c-5.91,-2.4 -8.7,-9.22 -6.3,-15.2 2.4,-5.91 9.29,-8.7 15.2,-6.3l177.22 73.2c4.41,1.81 7.2,5.98 7.2,10.71l0 242.82c0,3.9 -1.89,7.52 -5.12,9.61 -2.01,1.3 -4.21,2.01 -6.5,2.01z"/>
     </g>
     <g>
      <path class="fil0" d="M576.99 1364.15c-2.28,0 -4.49,-0.71 -6.5,-2.01 -3.19,-2.09 -5.12,-5.71 -5.12,-9.61l0 -242.82c0,-4.69 2.8,-8.9 7.2,-10.71l177.3 -73.2c5.91,-2.4 12.72,0.39 15.2,6.3 2.4,5.91 -0.39,12.72 -6.3,15.2l-170.21 70.2 0 217.74 154.11 -63.59 0 -147.42c0,-6.42 5.2,-11.61 11.61,-11.61 6.42,0 11.61,5.2 11.61,11.61l0 155.21c0,4.69 -2.8,8.9 -7.2,10.71l-177.3 73.19c-1.42,0.59 -2.91,0.91 -4.41,0.91l0 -0.12z"/>
     </g>
     <g>
      <path class="fil0" d="M526.67 1184.45c-1.5,0 -2.99,-0.31 -4.41,-0.91l-177.3 -73.12c-3.31,-1.42 -5.91,-4.29 -6.81,-7.8 -0.91,-3.5 -0.12,-7.28 2.2,-10.2l50.4 -63.12c1.18,-1.5 2.8,-2.72 4.49,-3.39l177.02 -75.13c2.92,-1.3 6.62,-1.3 9.49,0l177.02 75.01c5.91,2.52 8.7,9.29 6.18,15.2 -2.52,5.91 -9.29,8.7 -15.2,6.19l-161.24 -68.31 0 130.8c0,2.6 -0.91,5.2 -2.52,7.2l-50.4 63.12c-2.2,2.8 -5.59,4.29 -9.1,4.29l0.16 0.16zm-158.52 -89.61l0 0 154.89 63.9 42.41 -53.11 0 -126.82 -158.52 67.21 -38.9 48.7 0.12 0.12z"/>
     </g>
     <g>
      <path class="fil0" d="M627.39 1184.45c-4.61,0 -8.9,-2.72 -10.71,-7.2 -2.41,-5.91 0.39,-12.72 6.3,-15.12l177.22 -73.11c5.91,-2.4 12.72,0.39 15.2,6.3 2.4,5.91 -0.39,12.72 -6.3,15.2l-177.3 73.12c-1.42,0.59 -2.91,0.91 -4.41,0.91l0 -0.08z"/>
     </g>
     <g>
      <path class="fil0" d="M627.39 1184.45c-3.39,0 -6.81,-1.5 -9.09,-4.29l-50.4 -63.12c-4.02,-5 -3.19,-12.28 1.81,-16.3 5,-4.02 12.29,-3.19 16.3,1.81l50.4 63.11c4.02,5 3.19,12.29 -1.81,16.3 -2.2,1.69 -4.69,2.52 -7.2,2.52l0 -0.04z"/>
     </g>
     <g>
      <path class="fil0" d="M804.73 1110.94c-3.39,0 -6.81,-1.5 -9.09,-4.29l-50.4 -63.11c-4.02,-5 -3.11,-12.29 1.89,-16.3 5,-4.02 12.28,-3.11 16.3,1.89l50.4 63.12c4.02,5 3.19,12.28 -1.81,16.3 -2.2,1.69 -4.69,2.52 -7.2,2.52l-0.08 -0.12z"/>
     </g>
    </g>
    <g>
     <g>
      <path class="fil0" d="M1088.73 1364.15c-1.5,0 -2.99,-0.31 -4.41,-0.91l-177.3 -73.19c-4.3,-1.81 -7.21,-5.99 -7.21,-10.71l0 -153.4c0,-6.42 5.2,-11.62 11.62,-11.62 6.42,0 11.61,5.2 11.61,11.62l0 145.72 154.11 63.59 0 -217.74 -170.13 -70.2c-5.91,-2.4 -8.7,-9.22 -6.3,-15.2 2.4,-5.91 9.3,-8.7 15.2,-6.3l177.22 73.2c4.41,1.81 7.2,5.98 7.2,10.71l0 242.82c0,3.9 -1.89,7.52 -5.12,9.61 -2.01,1.3 -4.21,2.01 -6.5,2.01z"/>
     </g>
     <g>
      <path class="fil0" d="M1088.73 1364.15c-2.2,0 -4.49,-0.71 -6.5,-2.01 -3.19,-2.09 -5.12,-5.71 -5.12,-9.61l0 -242.82c0,-4.69 2.8,-8.9 7.2,-10.71l177.3 -73.2c5.91,-2.4 12.72,0.39 15.2,6.3 2.41,5.91 -0.39,12.72 -6.3,15.2l-170.21 70.2 0 217.74 154.11 -63.59 0 -147.42c0,-6.42 5.2,-11.61 11.61,-11.61 6.42,0 11.61,5.2 11.61,11.61l0 155.21c0,4.69 -2.8,8.9 -7.2,10.71l-177.3 73.19c-1.42,0.59 -2.91,0.91 -4.41,0.91l0 -0.12z"/>
     </g>
     <g>
      <path class="fil0" d="M1038.33 1184.45c-1.5,0 -2.99,-0.31 -4.41,-0.91l-177.22 -73.12c-3.39,-1.42 -5.91,-4.29 -6.81,-7.8 -0.91,-3.5 -0.12,-7.28 2.2,-10.2l50.4 -63.12c1.18,-1.5 2.8,-2.72 4.49,-3.39l177.02 -75.13c2.91,-1.3 6.61,-1.3 9.49,0l177.1 75.01c5.91,2.52 8.59,9.29 6.1,15.2 -2.52,5.91 -9.29,8.7 -15.2,6.19l-161.24 -68.31 0 130.8c0,2.6 -0.91,5.2 -2.52,7.2l-50.4 63.12c-2.2,2.8 -5.59,4.29 -9.09,4.29l0.08 0.16zm-158.6 -89.61l0 0 155.02 63.9 42.41 -53.11 0 -126.82 -158.52 67.21 -38.9 48.7 0 0.12z"/>
     </g>
     <g>
      <path class="fil0" d="M1139.13 1184.45c-4.49,0 -8.9,-2.72 -10.71,-7.2 -2.4,-5.91 0.39,-12.72 6.3,-15.12l177.3 -73.11c5.91,-2.4 12.72,0.39 15.12,6.3 2.4,5.91 -0.39,12.72 -6.3,15.2l-177.3 73.12c-1.42,0.59 -2.91,0.91 -4.41,0.91l0 -0.08z"/>
     </g>
     <g>
      <path class="fil0" d="M1139.13 1184.45c-3.39,0 -6.81,-1.5 -9.09,-4.29l-50.4 -63.12c-4.02,-5 -3.19,-12.28 1.81,-16.3 5,-4.02 12.28,-3.19 16.3,1.81l50.4 63.11c4.02,5 3.19,12.29 -1.81,16.3 -2.2,1.69 -4.69,2.52 -7.2,2.52l0 -0.04z"/>
     </g>
     <g>
      <path class="fil0" d="M1316.35 1110.94c-3.39,0 -6.81,-1.5 -9.09,-4.29l-50.4 -63.11c-4.02,-5 -3.11,-12.29 1.89,-16.3 5,-4.02 12.28,-3.11 16.3,1.89l50.4 63.12c4.02,5 3.19,12.28 -1.81,16.3 -2.2,1.69 -4.69,2.52 -7.21,2.52l-0.08 -0.12z"/>
     </g>
    </g>
   </g>
   <g>
    <g>
     <path class="fil0" d="M833.31 1047.23c-0.71,0 -1.42,-0.2 -2.09,-0.39l-83 -34.3c-2.01,-0.79 -3.31,-2.8 -3.31,-5l0 -71.9c0,-2.99 2.4,-5.39 5.39,-5.39 2.99,0 5.39,2.4 5.39,5.39l0 68.2 72.21 29.8 0 -101.9 -79.61 -32.92c-2.8,-1.1 -4.09,-4.29 -2.99,-7.09 1.1,-2.8 4.29,-4.09 7.09,-2.91l83 34.3c2.01,0.79 3.31,2.8 3.31,5l0 113.71c0,1.81 -0.91,3.5 -2.4,4.49 -0.91,0.59 -2.01,0.91 -2.99,0.91z"/>
    </g>
    <g>
     <path class="fil0" d="M833.31 1047.23c-1.1,0 -2.09,-0.31 -2.99,-0.91 -1.5,-0.98 -2.4,-2.72 -2.4,-4.49l0 -113.71c0,-2.2 1.3,-4.21 3.31,-5l83 -34.3c2.8,-1.1 5.98,0.2 7.09,2.91 1.1,2.8 -0.2,5.91 -2.99,7.09l-79.69 32.92 0 101.9 72.21 -29.8 0 -69.02c0,-2.99 2.4,-5.39 5.39,-5.39 2.99,0 5.39,2.4 5.39,5.39l0 72.61c0,2.2 -1.3,4.21 -3.31,5l-83 34.3c-0.71,0.31 -1.42,0.39 -2.09,0.39l0.08 0.12z"/>
    </g>
    <g>
     <path class="fil0" d="M809.73 963.13c-0.71,0 -1.42,-0.2 -2.09,-0.39l-83 -34.3c-1.61,-0.59 -2.8,-2.01 -3.19,-3.7 -0.39,-1.69 -0.12,-3.39 0.98,-4.69l23.59 -29.61c0.59,-0.71 1.3,-1.3 2.09,-1.61l82.92 -35.2c1.42,-0.59 3.11,-0.59 4.49,0l82.92 35.2c2.8,1.18 4.09,4.41 2.91,7.09 -1.18,2.8 -4.29,4.02 -7.09,2.91l-75.52 -32.01 0 61.31c0,1.3 -0.39,2.4 -1.18,3.39l-23.59 29.61c-1.1,1.3 -2.6,2.01 -4.29,2.01l0.04 0zm-74.34 -42.01l0 0 72.61 30 19.81 -24.88 0 -59.42 -74.22 31.5 -18.19 22.8z"/>
    </g>
    <g>
     <path class="fil0" d="M856.9 963.13c-2.2,0 -4.21,-1.3 -5,-3.31 -1.1,-2.8 0.2,-5.91 2.99,-7.09l83 -34.29c2.8,-1.1 5.91,0.2 7.09,2.99 1.1,2.8 -0.2,5.91 -2.99,7.09l-83 34.3c-0.71,0.31 -1.42,0.39 -2.01,0.39l-0.08 -0.08z"/>
    </g>
    <g>
     <path class="fil0" d="M856.9 963.13c-1.61,0 -3.19,-0.71 -4.29,-2.01l-23.58 -29.61c-1.89,-2.28 -1.5,-5.71 0.91,-7.6 2.4,-1.89 5.71,-1.5 7.6,0.79l23.58 29.61c1.89,2.28 1.5,5.71 -0.79,7.6 -0.98,0.79 -2.2,1.18 -3.39,1.18l-0.04 0.04z"/>
    </g>
    <g>
     <path class="fil0" d="M940.02 928.72c-1.61,0 -3.19,-0.71 -4.29,-2.01l-23.58 -29.61c-1.89,-2.28 -1.5,-5.71 0.91,-7.6 2.4,-1.89 5.71,-1.5 7.6,0.91l23.58 29.61c1.89,2.28 1.5,5.71 -0.91,7.6 -0.98,0.79 -2.2,1.18 -3.31,1.18l0 -0.08z"/>
    </g>
   </g>
  </g>
 </g>
</svg>
