<?xml version="1.0"?>
<svg xmlns="http://www.w3.org/2000/svg" xmlns:xlink="http://www.w3.org/1999/xlink" xmlns:svgjs="http://svgjs.com/svgjs" version="1.1" width="512" height="512" x="0" y="0" viewBox="0 0 512 512" style="enable-background:new 0 0 512 512" xml:space="preserve" class=""><g>
<g xmlns="http://www.w3.org/2000/svg">
	<g>
		<path d="M467.14,465.191c-0.13-0.64-0.32-1.27-0.57-1.88c-0.25-0.6-0.56-1.18-0.92-1.72c-0.36-0.55-0.78-1.061-1.24-1.521    c-0.46-0.46-0.98-0.88-1.52-1.25c-0.55-0.359-1.13-0.659-1.73-0.909c-0.6-0.25-1.23-0.45-1.87-0.58c-1.29-0.261-2.62-0.261-3.91,0    c-0.64,0.13-1.27,0.33-1.87,0.58c-0.6,0.25-1.18,0.55-1.73,0.909c-0.54,0.37-1.05,0.79-1.52,1.25    c-0.46,0.46-0.88,0.971-1.24,1.521c-0.36,0.54-0.67,1.12-0.92,1.72c-0.25,0.61-0.44,1.24-0.57,1.88    c-0.13,0.641-0.2,1.301-0.2,1.95c0,2.63,1.07,5.21,2.93,7.07c0.47,0.46,0.98,0.88,1.52,1.24c0.55,0.36,1.13,0.67,1.73,0.92    c0.6,0.25,1.23,0.449,1.87,0.569c0.65,0.13,1.3,0.2,1.95,0.2c2.64,0,5.21-1.071,7.07-2.929c0.47-0.46,0.88-0.969,1.25-1.52    c0.36-0.541,0.67-1.121,0.92-1.73c0.25-0.6,0.44-1.23,0.57-1.87c0.131-0.639,0.191-1.3,0.191-1.95    C467.331,466.492,467.27,465.832,467.14,465.191z" fill="#214dbb" data-original="#000000" style="" class=""/>
	</g>
</g>
<g xmlns="http://www.w3.org/2000/svg">
	<g>
		<path d="M222,465.191c-0.13-0.64-0.32-1.27-0.57-1.88c-0.25-0.6-0.56-1.18-0.92-1.72c-0.36-0.55-0.78-1.061-1.24-1.521    c-2.33-2.319-5.78-3.389-9.03-2.739c-0.64,0.13-1.27,0.33-1.87,0.58c-0.6,0.25-1.18,0.55-1.72,0.909    c-0.55,0.37-1.06,0.79-1.53,1.25c-0.46,0.46-0.87,0.971-1.24,1.521c-0.36,0.54-0.67,1.12-0.92,1.72    c-0.25,0.61-0.44,1.24-0.57,1.88c-0.13,0.641-0.19,1.301-0.19,1.95c0,0.65,0.06,1.31,0.19,1.95c0.13,0.64,0.32,1.269,0.57,1.87    c0.25,0.61,0.56,1.19,0.92,1.73c0.37,0.55,0.78,1.06,1.24,1.52c0.47,0.46,0.98,0.88,1.53,1.24c0.54,0.36,1.12,0.67,1.72,0.92    s1.23,0.449,1.87,0.569c0.65,0.13,1.3,0.2,1.96,0.2c2.63,0,5.2-1.071,7.07-2.929c0.46-0.46,0.88-0.969,1.24-1.52    c0.36-0.541,0.67-1.121,0.92-1.73c0.25-0.6,0.44-1.23,0.57-1.87c0.13-0.639,0.19-1.3,0.19-1.95    C222.19,466.492,222.13,465.832,222,465.191z" fill="#214dbb" data-original="#000000" style="" class=""/>
	</g>
</g>
<g xmlns="http://www.w3.org/2000/svg">
	<g>
		<path d="M502,246.004H389V10.035c0-5.523-4.477-10-10-10H133c-5.523,0-10,4.477-10,10v235.969H10c-5.523,0-10,4.477-10,10v245.961    c0,5.522,4.477,10,10,10h492c5.523,0,10-4.478,10-10V256.004C512,250.481,507.523,246.004,502,246.004z M413.121,266.004v63.716    l-6.375-4.421c-3.426-2.378-7.968-2.378-11.396-0.002L379,336.631l-16.352-11.334c-1.713-1.188-3.705-1.781-5.697-1.781    s-3.985,0.595-5.699,1.782l-6.375,4.421v-63.715h0.001H413.121z M221.878,20.035h68.244v63.716l-6.375-4.421    c-3.427-2.377-7.969-2.376-11.396-0.001L256,90.663l-16.352-11.334c-1.713-1.188-3.705-1.781-5.697-1.781    s-3.985,0.595-5.699,1.782l-6.374,4.421V20.035z M143,20.035h58.878v82.82c0,3.721,2.066,7.134,5.362,8.859    c3.297,1.727,7.279,1.479,10.336-0.642l16.376-11.357l16.35,11.334c3.427,2.375,7.967,2.375,11.394,0l16.35-11.334l16.376,11.357    c1.705,1.183,3.698,1.782,5.7,1.782c1.586,0,3.179-0.377,4.637-1.141c3.296-1.725,5.362-5.139,5.362-8.859v-82.82H369v225.969H143    V20.035z M98.878,266.004h68.244v63.716l-6.374-4.421c-3.426-2.378-7.968-2.378-11.396-0.002L133,336.631l-16.352-11.334    c-1.713-1.188-3.705-1.781-5.697-1.781s-3.985,0.595-5.699,1.782l-6.374,4.421V266.004z M246,491.964H20v-14.825h151.895    c5.523,0,10-4.478,10-10c0-5.522-4.477-10-10-10H20V266.004h58.878v82.819c0,3.721,2.066,7.134,5.362,8.859    c3.297,1.728,7.279,1.48,10.336-0.642l16.376-11.357l16.35,11.334c3.427,2.375,7.967,2.375,11.394,0l16.35-11.333l16.376,11.356    c1.705,1.184,3.698,1.783,5.7,1.783c1.586,0,3.179-0.377,4.636-1.141c3.297-1.726,5.363-5.139,5.363-8.859v-82.82H246V491.964z     M492,491.965H266v-14.826h151.035c5.523,0,10-4.478,10-10c0-5.522-4.477-10-10-10H266V266.004h58.878v82.819    c0,3.721,2.066,7.134,5.362,8.859c3.297,1.728,7.279,1.48,10.336-0.642l16.376-11.357l16.35,11.334    c3.427,2.375,7.967,2.375,11.394,0l16.35-11.333l16.376,11.356c1.705,1.184,3.698,1.783,5.7,1.783    c1.586,0,3.179-0.377,4.636-1.141c3.297-1.726,5.363-5.139,5.363-8.859v-82.82H492V491.965z" fill="#214dbb" data-original="#000000" style="" class=""/>
	</g>
</g>
<g xmlns="http://www.w3.org/2000/svg">
</g>
<g xmlns="http://www.w3.org/2000/svg">
</g>
<g xmlns="http://www.w3.org/2000/svg">
</g>
<g xmlns="http://www.w3.org/2000/svg">
</g>
<g xmlns="http://www.w3.org/2000/svg">
</g>
<g xmlns="http://www.w3.org/2000/svg">
</g>
<g xmlns="http://www.w3.org/2000/svg">
</g>
<g xmlns="http://www.w3.org/2000/svg">
</g>
<g xmlns="http://www.w3.org/2000/svg">
</g>
<g xmlns="http://www.w3.org/2000/svg">
</g>
<g xmlns="http://www.w3.org/2000/svg">
</g>
<g xmlns="http://www.w3.org/2000/svg">
</g>
<g xmlns="http://www.w3.org/2000/svg">
</g>
<g xmlns="http://www.w3.org/2000/svg">
</g>
<g xmlns="http://www.w3.org/2000/svg">
</g>
</g></svg>
