<?xml version="1.0"?>
<svg xmlns="http://www.w3.org/2000/svg" xmlns:xlink="http://www.w3.org/1999/xlink" xmlns:svgjs="http://svgjs.com/svgjs" version="1.1" width="512" height="512" x="0" y="0" viewBox="0 0 512 512" style="enable-background:new 0 0 512 512" xml:space="preserve" class=""><g><path xmlns="http://www.w3.org/2000/svg" d="m396.382812 122.796875 99.632813-36.347656-240.015625-86.449219-97.675781 35.179688 238.410156 86.648437zm0 0" fill="#23d9a6" data-original="#000000" style="" class=""/><path xmlns="http://www.w3.org/2000/svg" d="m114.214844 51.066406-95.097656 34.253906 236.949218 88.664063 97.992188-35.75zm0 0" fill="#23d9a6" data-original="#000000" style="" class=""/><path xmlns="http://www.w3.org/2000/svg" d="m271 363.867188c16.425781-57.933594 69.789062-100.496094 132.914062-100.496094 43.714844 0 82.746094 20.421875 108.074219 52.21875l.011719-203.039063-241 87.921875zm0 0" fill="#23d9a6" data-original="#000000" style="" class=""/><path xmlns="http://www.w3.org/2000/svg" d="m271 502.085938 28.496094-10.265626c-13.058594-15.074218-22.910156-32.996093-28.496094-52.691406zm0 0" fill="#23d9a6" data-original="#000000" style="" class=""/><path xmlns="http://www.w3.org/2000/svg" d="m0 415.285156 241 86.804688v-301.710938l-241-90.183594zm0 0" fill="#23d9a6" data-original="#000000" style="" class=""/><path xmlns="http://www.w3.org/2000/svg" d="m403.304688 292.351562c-60.035157 0-108.699219 48.664063-108.699219 108.695313s48.664062 108.699219 108.699219 108.699219c60.03125 0 108.695312-48.667969 108.695312-108.699219s-48.664062-108.695313-108.695312-108.695313zm1.625 155.3125-43.390626-43.390624 21.210938-21.214844 14.816406 14.820312 21.648438-40.402344 26.441406 14.167969zm0 0" fill="#23d9a6" data-original="#000000" style="" class=""/></g></svg>
