<?xml version="1.0" encoding="UTF-8"?>
<!DOCTYPE svg PUBLIC "-//W3C//DTD SVG 1.1//EN" "http://www.w3.org/Graphics/SVG/1.1/DTD/svg11.dtd">
<!-- Creator: CorelDRAW 2019 (64-Bit) -->
<svg xmlns="http://www.w3.org/2000/svg" xml:space="preserve" width="0.0199921in" height="0.0199921in" version="1.1" shape-rendering="geometricPrecision" text-rendering="geometricPrecision" image-rendering="optimizeQuality" fill-rule="evenodd" clip-rule="evenodd"
viewBox="0 0 19.99 19.99"
 xmlns:xlink="http://www.w3.org/1999/xlink"
 xmlns:xodm="http://www.corel.com/coreldraw/odm/2003">
 <g id="Layer_x0020_1">
  <metadata id="CorelCorpID_0Corel-Layer"/>
  <rect fill="none" x="-0.01" y="-0" width="20" height="20"/>
  <g id="_2316596168000">
   <path fill="#FBB457" fill-rule="nonzero" d="M10.81 11.21l-8.48 0c-0.07,0 -0.13,-0.06 -0.13,-0.13l0 -6.73c0,-0.07 0.06,-0.13 0.13,-0.13l8.48 0c0.07,0 0.13,0.06 0.13,0.13l0 6.73c0,0.07 -0.06,0.13 -0.13,0.13z"/>
   <path fill="#FBB457" fill-rule="nonzero" d="M18.33 10.3c0,0.3 -0.21,0.54 -0.47,0.54l-0.09 0c-0.26,0 -0.48,-0.24 -0.48,-0.54l0 0c0,-0.3 0.22,-0.54 0.48,-0.54l0.09 0c0.26,0 0.47,0.24 0.47,0.54l0 0z"/>
   <path fill="#FBB457" fill-rule="nonzero" d="M17.92 11.78c0.01,-0.01 0,-0.02 0,-0.05l0 -2c0,-0.08 -0,-0.14 -0.07,-0.15 -0,-0 -0.01,-0.01 -0.02,-0.02l-1.83 -1.27c-0.03,-0.02 -0.08,-0.04 -0.13,-0.06 -0.26,-2.63 -1.59,-3.2 -1.87,-3.29 -0.59,-0.18 -2.24,-0.11 -2.24,-0.11 -0.09,0 -0.15,0.08 -0.15,0.16l0 3.21c0,0.01 0,0.02 0,0.02 0,0 0,0.01 0,0.02l0 1.35c0,0 0,0.01 0,0.01 0,0 0,0.01 0,0.02l0 2.1c0,0.03 -0,0.03 0.01,0.03l-9.77 0c-0.09,0 -0.17,0.09 -0.17,0.17l0 1.49c0,0.09 0.09,0.16 0.17,0.16l15.97 0c0.09,0 0.16,-0.07 0.16,-0.16l0 -1.59c0,-0.04 -0.03,-0.05 -0.05,-0.06l0 0 0 0zm-5.96 -3.88l0 -2.69c0,0 1.46,-0.03 1.94,0.1 0.29,0.08 1.27,0.73 1.56,2.59l-3.51 0 0 0 0 0z"/>
   <path fill="#FBB457" fill-rule="nonzero" d="M7.14 13.95c0,1 -0.82,1.82 -1.83,1.82l0 0c-1.01,0 -1.83,-0.81 -1.83,-1.82l0 0c0,-1 0.82,-1.82 1.83,-1.82l0 0c1.01,0 1.83,0.81 1.83,1.82l0 0z"/>
   <path fill="#FBB457" fill-rule="nonzero" d="M16.59 13.95c0,1 -0.82,1.82 -1.83,1.82l0 0c-1.02,0 -1.83,-0.81 -1.83,-1.82l0 0c0,-1 0.82,-1.82 1.83,-1.82l0 0c1.01,0 1.83,0.81 1.83,1.82l0 0zm-0.37 0c0,0.8 -0.66,1.46 -1.47,1.46l0 0c-0.81,0 -1.47,-0.65 -1.47,-1.46l0 0c0,-0.8 0.66,-1.45 1.47,-1.45l0 0c0.81,0 1.47,0.65 1.47,1.45l0 0z"/>
   <path fill="#FEFEFE" fill-rule="nonzero" d="M6.77 13.95c0,0.8 -0.65,1.46 -1.46,1.46l0 0c-0.81,0 -1.47,-0.65 -1.47,-1.46l0 0c0,-0.8 0.66,-1.45 1.47,-1.45l0 0c0.81,0 1.46,0.65 1.46,1.45l0 0z"/>
   <path fill="#FEFEFE" fill-rule="nonzero" d="M16.22 13.95c0,0.8 -0.66,1.46 -1.47,1.46l0 0c-0.81,0 -1.47,-0.65 -1.47,-1.46l0 0c0,-0.8 0.66,-1.45 1.47,-1.45l0 0c0.81,0 1.47,0.65 1.47,1.45l0 0z"/>
  </g>
 </g>
</svg>
