<?xml version="1.0" encoding="UTF-8"?>
<!DOCTYPE svg PUBLIC "-//W3C//DTD SVG 1.1//EN" "http://www.w3.org/Graphics/SVG/1.1/DTD/svg11.dtd">
<!-- Creator: CorelDRAW 2019 (64-Bit) -->
<svg xmlns="http://www.w3.org/2000/svg" xml:space="preserve" width="0.0199921in" height="0.0199921in" version="1.1" shape-rendering="geometricPrecision" text-rendering="geometricPrecision" image-rendering="optimizeQuality" fill-rule="evenodd" clip-rule="evenodd"
viewBox="0 0 19.99 19.99"
 xmlns:xlink="http://www.w3.org/1999/xlink"
 xmlns:xodm="http://www.corel.com/coreldraw/odm/2003">
 <g id="Layer_x0020_1">
  <metadata id="CorelCorpID_0Corel-Layer"/>
  <rect fill="none" x="-0.01" y="-0" width="20" height="20"/>
  <g id="_2801275035488">
   <path fill="#824f23" d="M6.62 14.76l0 0c-0.45,0.03 -0.68,0.06 -1.09,0.09 0,-0.42 0,-0.64 0,-1.06 0.45,-0.04 0.64,-0.07 1.09,-0.1 0,0.42 0,0.61 0,1.06l0 0zm-1.13 -1l0 0c0,0.45 0,0.68 0,1.13 0.45,-0.03 0.67,-0.07 1.16,-0.13 0,-0.45 0,-0.65 0,-1.1 -0.45,0.04 -0.68,0.07 -1.16,0.09l0 0 0 0zm4.06 0.68l0 0c-0.42,0.03 -0.61,0.06 -1.06,0.1 0,-0.42 0,-0.61 0,-1.03 0.42,-0.03 0.64,-0.03 1.06,-0.1 0,0.42 0,0.61 0,1.03l0 0zm-1.09 -0.93l0 0c0,0.42 0,0.61 0.03,1.06 0.42,-0.03 0.64,-0.07 1.09,-0.1 0,-0.45 0,-0.67 0,-1.09 -0.45,0.07 -0.68,0.07 -1.13,0.13l0 0 0 0 0 0zm1 0.81l0 0c-0.32,0.03 -0.52,0.06 -0.84,0.1 0,0.03 0,0.03 0,0.06 0.32,-0.03 0.52,-0.06 0.84,-0.1 0,-0.03 0,-0.03 0,-0.06l0 0 0 0 0 0zm-0.22 -0.04l0 0c0.03,0 0.06,0 0.06,0 0,-0.19 0,-0.29 0,-0.48 0.06,0 0.1,0 0.16,0 -0.06,-0.13 -0.13,-0.19 -0.2,-0.29 -0.06,0.13 -0.09,0.19 -0.16,0.32 0.06,-0.03 0.09,-0.03 0.13,-0.03 0,0.19 0,0.29 0,0.48l0 0 0 0 0 0zm-0.48 0.04c0.03,0 0.03,0 0.07,0 0,-0.2 0,-0.3 0,-0.48 0.06,0 0.09,0 0.16,0 -0.06,-0.09 -0.13,-0.16 -0.19,-0.29 -0.06,0.13 -0.09,0.19 -0.16,0.32 0.04,0 0.07,0 0.13,0 0,0.16 0,0.26 0,0.45l0 0 -0 0 0 0zm-0.65 0.29l0 0c-0.42,0.03 -0.64,0.07 -1.09,0.09 0.03,-0.42 0.03,-0.64 0.03,-1.03 0.42,-0.06 0.65,-0.06 1.06,-0.09 0,0.39 0,0.58 0,1.03l0 0zm-1.09 -0.96l0 0c0,0.42 0,0.64 -0.03,1.09 0.48,-0.03 0.71,-0.06 1.16,-0.12 0,-0.45 0,-0.65 0,-1.06 -0.45,0.03 -0.68,0.06 -1.13,0.09l0 0 -0 0zm0.52 0.58c0,0.13 0,0.16 0,0.29 -0.09,0 -0.13,0 -0.22,0 0,0.04 0,0.04 0,0.07 0.22,0 0.32,-0.03 0.52,-0.03 0,-0.04 0,-0.07 0,-0.07 -0.1,0 -0.13,0 -0.23,0 0,-0.1 0,-0.16 0,-0.26 0.16,-0.03 0.26,-0.16 0.26,-0.32l0 -0.23c-0.23,0.04 -0.35,0.04 -0.58,0.07l0 0.22c0,0.16 0.1,0.26 0.26,0.26l0 0 0 0 0 0zm-1.48 0.42c0,0.04 -0.03,0.07 -0.07,0.07 -0.03,0 -0.03,-0.03 -0.03,-0.07 0,0 0,0 0,-0.03 0,-0.03 -0.03,-0.03 -0.03,-0.03 -0.03,0 -0.06,0.03 -0.06,0.03 0,0.03 0,0.03 0,0.07 0,0.06 0.06,0.1 0.13,0.1 0.07,0 0.13,-0.07 0.13,-0.13 0,-0.13 0,-0.22 0,-0.35 0.16,0 0.26,-0.03 0.45,-0.03 -0.03,-0.22 -0.22,-0.35 -0.45,-0.35 0,0 0,0 0,-0.04 0,-0.03 -0.03,-0.03 -0.03,-0.03 -0.04,0 -0.04,0.03 -0.04,0.03 0,0.04 0,0.04 0,0.06 -0.22,0.04 -0.38,0.19 -0.42,0.42 0.16,-0.03 0.26,-0.03 0.42,-0.07 0,0.16 0,0.23 0,0.35l0 0 0 0 0 0zm-4.38 -4.63l4.57 -0.23 3.61 0.2 -0.03 0 -4.7 0.26 -3.38 -0.22 -0.07 0 0 0zm3.41 0.29l0 5.11 -3.41 -0.61 0 -4.73 3.41 0.23 0 -0zm4.76 -0.26l0 4.83 -4.73 0.57 0.03 0 0 -5.14 1.35 -0.07 0.03 1.39 0.16 -0.26 0.19 0.26 0.1 -0.26 0.16 0.22 0.09 -0.26 0.16 0.26 0.1 -0.29 0.13 0.26 0 -1.39 2.22 -0.13 0 0 0 0z"/>
   <path fill="#824f23" d="M15.11 14.76l0 0c-0.45,0.03 -0.67,0.06 -1.09,0.09 0,-0.42 0,-0.64 0,-1.06 0.45,-0.04 0.64,-0.07 1.09,-0.1 0,0.42 0,0.61 0,1.06l0 0zm-1.13 -1l0 0c0,0.45 0,0.68 0,1.13 0.45,-0.03 0.68,-0.07 1.16,-0.13 0,-0.45 0,-0.65 0,-1.1 -0.45,0.04 -0.68,0.07 -1.16,0.09l0 0 0 0zm4.06 0.68l0 0c-0.42,0.03 -0.61,0.06 -1.06,0.1 0,-0.42 0,-0.61 0,-1.03 0.42,-0.03 0.65,-0.03 1.06,-0.1 0,0.42 0,0.61 0,1.03l0 0zm-1.09 -0.93l0 0c0,0.42 0,0.61 0.03,1.06 0.42,-0.03 0.65,-0.07 1.09,-0.1 0,-0.45 0,-0.67 0,-1.09 -0.45,0.07 -0.68,0.07 -1.13,0.13l0 0 0 0 0 0zm1 0.81l0 0c-0.32,0.03 -0.52,0.06 -0.84,0.1 0,0.03 0,0.03 0,0.06 0.32,-0.03 0.51,-0.06 0.84,-0.1 0,-0.03 0,-0.03 0,-0.06l0 0 0 0 0 0zm-0.23 -0.04l0 0c0.03,0 0.07,0 0.07,0 0,-0.19 0,-0.29 0,-0.48 0.06,0 0.09,0 0.16,0 -0.07,-0.13 -0.13,-0.19 -0.2,-0.29 -0.06,0.13 -0.09,0.19 -0.16,0.32 0.06,-0.03 0.09,-0.03 0.13,-0.03 0,0.19 0,0.29 0,0.48l0 0 0 0 0 0zm-0.48 0.04c0.03,0 0.03,0 0.06,0 0,-0.2 0,-0.3 0,-0.48 0.06,0 0.09,0 0.16,0 -0.07,-0.09 -0.13,-0.16 -0.19,-0.29 -0.07,0.13 -0.09,0.19 -0.16,0.32 0.03,0 0.07,0 0.13,0 0,0.16 0,0.26 0,0.45l0 0 0 0 0 0zm-0.65 0.29l0 0c-0.42,0.03 -0.64,0.07 -1.09,0.09 0.03,-0.42 0.03,-0.64 0.03,-1.03 0.42,-0.06 0.64,-0.06 1.06,-0.09 0,0.39 0,0.58 0,1.03l0 0zm-1.09 -0.96l0 0c0,0.42 0,0.64 -0.03,1.09 0.48,-0.03 0.7,-0.06 1.16,-0.12 0,-0.45 0,-0.65 0,-1.06 -0.45,0.03 -0.67,0.06 -1.13,0.09l0 0 0 0 0 0zm0.52 0.58c0,0.13 0,0.16 0,0.29 -0.1,0 -0.13,0 -0.22,0 0,0.04 0,0.04 0,0.07 0.22,0 0.32,-0.03 0.51,-0.03 0,-0.04 0,-0.07 0,-0.07 -0.09,0 -0.13,0 -0.22,0 0,-0.1 0,-0.16 0,-0.26 0.16,-0.03 0.26,-0.16 0.26,-0.32l0 -0.23c-0.22,0.04 -0.35,0.04 -0.58,0.07l0 0.22c0,0.16 0.1,0.26 0.26,0.26l0 0 0 0 0 0zm-1.48 0.42c0,0.04 -0.03,0.07 -0.06,0.07 -0.03,0 -0.03,-0.03 -0.03,-0.07 0,0 0,0 0,-0.03 0,-0.03 -0.03,-0.03 -0.03,-0.03 -0.03,0 -0.07,0.03 -0.07,0.03 0,0.03 0,0.03 0,0.07 0,0.06 0.07,0.1 0.13,0.1 0.06,0 0.13,-0.07 0.13,-0.13 0,-0.13 0,-0.22 0,-0.35 0.16,0 0.26,-0.03 0.45,-0.03 -0.03,-0.22 -0.22,-0.35 -0.45,-0.35 0,0 0,0 0,-0.04 0,-0.03 -0.03,-0.03 -0.03,-0.03 -0.03,0 -0.03,0.03 -0.03,0.03 0,0.04 0,0.04 0,0.06 -0.22,0.04 -0.39,0.19 -0.42,0.42 0.16,-0.03 0.26,-0.03 0.42,-0.07 0,0.16 0,0.23 0,0.35l0 0 0 0 0 0zm-4.38 -4.63l4.57 -0.23 3.6 0.2 -0.03 0 -4.7 0.26 -3.38 -0.22 -0.06 0 0 0zm3.42 0.29l0 5.11 -3.42 -0.61 0 -4.73 3.42 0.23 0 -0zm4.76 -0.26l0 4.83 -4.73 0.57 0.04 0 0 -5.14 1.35 -0.07 0.03 1.39 0.16 -0.26 0.19 0.26 0.09 -0.26 0.16 0.22 0.09 -0.26 0.17 0.26 0.09 -0.29 0.13 0.26 0 -1.39 2.22 -0.13 0 0 0 0z"/>
   <path fill="#824f23" d="M10.74 9.56l0 0c-0.45,0.03 -0.67,0.06 -1.09,0.09 0,-0.42 0,-0.64 0,-1.06 0.45,-0.04 0.64,-0.07 1.09,-0.1 0,0.42 0,0.61 0,1.07l0 0zm-1.13 -1l0 0c0,0.45 0,0.68 0,1.13 0.45,-0.03 0.68,-0.07 1.16,-0.13 0,-0.45 0,-0.65 0,-1.1 -0.45,0.04 -0.68,0.07 -1.16,0.09l0 0 0 0zm4.06 0.68l0 0c-0.42,0.03 -0.61,0.07 -1.06,0.1 0,-0.42 0,-0.61 0,-1.03 0.42,-0.03 0.65,-0.03 1.06,-0.1 0,0.42 0,0.61 0,1.03l0 0zm-1.09 -0.93l0 0c0,0.42 0,0.61 0.03,1.06 0.42,-0.03 0.65,-0.07 1.09,-0.1 0,-0.45 0,-0.67 0,-1.09 -0.45,0.07 -0.68,0.07 -1.13,0.13l0 0 0 0zm1 0.81l0 0c-0.32,0.03 -0.52,0.06 -0.84,0.1 0,0.03 0,0.03 0,0.06 0.32,-0.03 0.52,-0.06 0.84,-0.1 0,-0.03 0,-0.03 0,-0.06l0 0 0 0 0 0zm-0.23 -0.04l0 0c0.03,0 0.07,0 0.07,0 0,-0.19 0,-0.29 0,-0.48 0.06,0 0.09,0 0.16,0 -0.07,-0.13 -0.13,-0.19 -0.2,-0.29 -0.06,0.13 -0.09,0.19 -0.16,0.32 0.06,-0.03 0.09,-0.03 0.13,-0.03 0,0.19 0,0.29 0,0.48l0 0 0 0 0 0zm-0.48 0.04c0.03,0 0.03,0 0.06,0 0,-0.2 0,-0.3 0,-0.48 0.07,0 0.09,0 0.16,0 -0.07,-0.09 -0.13,-0.16 -0.19,-0.29 -0.06,0.13 -0.09,0.19 -0.16,0.32 0.03,0 0.07,0 0.13,0 0,0.16 0,0.26 0,0.45l0 0 0 0 0 0zm-0.65 0.29l0 0c-0.42,0.03 -0.64,0.07 -1.09,0.1 0.03,-0.42 0.03,-0.65 0.03,-1.03 0.42,-0.06 0.65,-0.06 1.06,-0.09 0,0.39 0,0.58 0,1.03l0 0zm-1.09 -0.96l0 0c0,0.42 0,0.64 -0.03,1.09 0.48,-0.03 0.7,-0.06 1.16,-0.12 0,-0.45 0,-0.65 0,-1.06 -0.45,0.03 -0.67,0.06 -1.13,0.09l0 0 0 0 0 0zm0.52 0.58c0,0.13 0,0.16 0,0.29 -0.09,0 -0.13,0 -0.22,0 0,0.03 0,0.03 0,0.06 0.22,0 0.32,-0.03 0.52,-0.03 0,-0.03 0,-0.07 0,-0.07 -0.1,0 -0.13,0 -0.23,0 0,-0.09 0,-0.16 0,-0.26 0.16,-0.03 0.26,-0.16 0.26,-0.32l0 -0.23c-0.22,0.04 -0.35,0.04 -0.58,0.07l0 0.22c0,0.16 0.1,0.26 0.26,0.26l0 0 0 0 0 0zm-1.48 0.42c0,0.04 -0.03,0.07 -0.06,0.07 -0.03,0 -0.03,-0.03 -0.03,-0.07 0,0 0,0 0,-0.03 0,-0.03 -0.03,-0.03 -0.03,-0.03 -0.03,0 -0.06,0.03 -0.06,0.03 0,0.03 0,0.03 0,0.07 0,0.06 0.06,0.1 0.13,0.1 0.06,0 0.13,-0.07 0.13,-0.13 0,-0.13 0,-0.22 0,-0.35 0.16,0 0.26,-0.03 0.45,-0.03 -0.03,-0.23 -0.22,-0.35 -0.45,-0.35 0,0 0,0 0,-0.04 0,-0.03 -0.03,-0.03 -0.03,-0.03 -0.04,0 -0.04,0.03 -0.04,0.03 0,0.04 0,0.04 0,0.07 -0.22,0.03 -0.39,0.19 -0.42,0.42 0.16,-0.03 0.26,-0.03 0.42,-0.07 0,0.17 0,0.23 0,0.35l0 0 0 0 0 0zm-4.38 -4.63l4.57 -0.23 3.61 0.2 -0.03 0 -4.7 0.26 -3.38 -0.22 -0.06 0 0 0 0 0zm3.42 0.29l0 5.11 -3.42 -0.61 0 -4.73 3.42 0.23 0 0zm4.76 -0.26l0 4.83 -4.74 0.58 0.04 0 0 -5.15 1.35 -0.06 0.03 1.38 0.16 -0.26 0.19 0.26 0.09 -0.26 0.17 0.22 0.09 -0.26 0.16 0.26 0.09 -0.28 0.13 0.26 0 -1.39 2.22 -0.13 0 -0 0 0z"/>
  </g>
 </g>
</svg>
