<?xml version="1.0" encoding="UTF-8"?>
<!DOCTYPE svg PUBLIC "-//W3C//DTD SVG 1.1//EN" "http://www.w3.org/Graphics/SVG/1.1/DTD/svg11.dtd">
<!-- Creator: CorelDRAW 2019 (64-Bit) -->
<svg xmlns="http://www.w3.org/2000/svg" xml:space="preserve" width="0.0199921in" height="0.0199921in" version="1.1" shape-rendering="geometricPrecision" text-rendering="geometricPrecision" image-rendering="optimizeQuality" fill-rule="evenodd" clip-rule="evenodd"
viewBox="0 0 19.99 19.99"
 xmlns:xlink="http://www.w3.org/1999/xlink"
 xmlns:xodm="http://www.corel.com/coreldraw/odm/2003">
 <g id="Layer_x0020_1">
  <metadata id="CorelCorpID_0Corel-Layer"/>
  <rect fill="none" x="-0.01" y="-0" width="20" height="20"/>
  <g id="_2315226019664">
   <polygon fill="#FBB457" fill-rule="nonzero" points="1.66,12.07 8.79,9.85 7.58,9.25 18.33,2.96 17.77,2.01 6.96,8.33 7.1,6.95 "/>
   <g>
    <path fill="#FBB457" fill-rule="nonzero" d="M6.13 13.59l-3.95 0c-0.21,0 -0.38,0.17 -0.38,0.39l0 1.12c0,0.21 0.17,0.39 0.38,0.39l3.95 0c0.21,0 0.39,-0.17 0.39,-0.39l0 -1.12c0,-0.21 -0.17,-0.39 -0.39,-0.39z"/>
    <path fill="#FBB457" fill-rule="nonzero" d="M6.13 16.09l-3.95 0c-0.21,0 -0.38,0.17 -0.38,0.38l0 1.12c0,0.21 0.17,0.39 0.38,0.39l3.95 0c0.21,0 0.39,-0.18 0.39,-0.39l0 -1.12c0,-0.21 -0.17,-0.38 -0.39,-0.38z"/>
    <path fill="#FBB457" fill-rule="nonzero" d="M11.68 13.59l-3.95 0c-0.21,0 -0.39,0.17 -0.39,0.39l0 1.12c0,0.21 0.17,0.39 0.39,0.39l3.95 0c0.21,0 0.39,-0.17 0.39,-0.39l0 -1.12c0,-0.21 -0.17,-0.39 -0.39,-0.39z"/>
    <path fill="#FBB457" fill-rule="nonzero" d="M11.68 16.09l-3.95 0c-0.21,0 -0.39,0.17 -0.39,0.38l0 1.12c0,0.21 0.17,0.39 0.39,0.39l3.95 0c0.21,0 0.39,-0.18 0.39,-0.39l0 -1.12c0,-0.21 -0.17,-0.38 -0.39,-0.38z"/>
    <path fill="#FBB457" fill-rule="nonzero" d="M11.68 11.09l-3.95 0c-0.21,0 -0.39,0.18 -0.39,0.39l0 1.12c0,0.21 0.17,0.39 0.39,0.39l3.95 0c0.21,0 0.39,-0.17 0.39,-0.39l0 -1.12c0,-0.21 -0.17,-0.39 -0.39,-0.39z"/>
    <path fill="#FBB457" fill-rule="nonzero" d="M17.81 13.59l-3.95 0c-0.21,0 -0.38,0.17 -0.38,0.39l0 1.12c0,0.21 0.17,0.39 0.38,0.39l3.95 0c0.21,0 0.39,-0.17 0.39,-0.39l0 -1.12c0,-0.21 -0.17,-0.39 -0.39,-0.39z"/>
    <path fill="#FBB457" fill-rule="nonzero" d="M17.81 16.09l-3.95 0c-0.21,0 -0.38,0.17 -0.38,0.38l0 1.12c0,0.21 0.17,0.39 0.38,0.39l3.95 0c0.21,0 0.39,-0.18 0.39,-0.39l0 -1.12c0,-0.21 -0.17,-0.38 -0.39,-0.38z"/>
    <path fill="#FBB457" fill-rule="nonzero" d="M17.81 11.09l-3.95 0c-0.21,0 -0.38,0.18 -0.38,0.39l0 1.12c0,0.21 0.17,0.39 0.38,0.39l3.95 0c0.21,0 0.39,-0.17 0.39,-0.39l0 -1.12c0,-0.21 -0.17,-0.39 -0.39,-0.39z"/>
    <path fill="#FBB457" fill-rule="nonzero" d="M17.81 8.59l-3.95 0c-0.21,0 -0.38,0.17 -0.38,0.39l0 1.12c0,0.21 0.17,0.39 0.38,0.39l3.95 0c0.21,0 0.39,-0.18 0.39,-0.39l0 -1.12c0,-0.21 -0.17,-0.39 -0.39,-0.39z"/>
   </g>
  </g>
 </g>
</svg>
