<?xml version="1.0" encoding="UTF-8"?>
<!DOCTYPE svg PUBLIC "-//W3C//DTD SVG 1.1//EN" "http://www.w3.org/Graphics/SVG/1.1/DTD/svg11.dtd">
<!-- Creator: CorelDRAW 2019 (64-Bit) -->
<svg xmlns="http://www.w3.org/2000/svg" xml:space="preserve" width="0.0199921in" height="0.0199921in" version="1.1" shape-rendering="geometricPrecision" text-rendering="geometricPrecision" image-rendering="optimizeQuality" fill-rule="evenodd" clip-rule="evenodd"
viewBox="0 0 19.99 19.99"
 xmlns:xlink="http://www.w3.org/1999/xlink"
 xmlns:xodm="http://www.corel.com/coreldraw/odm/2003">
 <g id="Layer_x0020_1">
  <metadata id="CorelCorpID_0Corel-Layer"/>
  <rect fill="none" x="-0.01" y="-0" width="20" height="20"/>
  <g id="_2801177633408">
   <g>
    <path fill="#FBB457" fill-rule="nonzero" d="M13.72 14.53l-7.45 0c-0.12,0 -0.22,-0.1 -0.22,-0.22l0 -10.13c0,-0.12 0.1,-0.22 0.22,-0.22l7.45 0c0.12,0 0.22,0.1 0.22,0.22l0 10.13c0,0.13 -0.1,0.22 -0.22,0.22zm-7.23 -0.44l0 0 7 0 0 -9.68 -7 0 0 9.68z"/>
   </g>
   <g>
    <path fill="#FBB457" fill-rule="nonzero" d="M6.1 18.33c-1.02,0 -1.86,-0.83 -1.86,-1.85 0,-0.25 0.2,-0.44 0.44,-0.44 0.25,0 0.45,0.2 0.45,0.44 0,0.53 0.43,0.96 0.96,0.96 0.24,0 0.44,0.2 0.44,0.44 0,0.25 -0.2,0.44 -0.44,0.44l0 0 0 0z"/>
   </g>
   <g>
    <path fill="#FBB457" fill-rule="nonzero" d="M4.69 3.96c-0.24,0 -0.44,-0.2 -0.44,-0.44 0,-1.02 0.83,-1.85 1.86,-1.85 0.24,0 0.44,0.2 0.44,0.44 0,0.24 -0.2,0.44 -0.44,0.44 -0.53,0 -0.96,0.43 -0.96,0.96 0,0.24 -0.2,0.44 -0.45,0.44l0 0 0 0 0 0 -0 0z"/>
   </g>
   <g>
    <path fill="#FBB457" fill-rule="nonzero" d="M15.3 3.97c-0.25,0 -0.45,-0.2 -0.45,-0.45 0,-0.53 -0.43,-0.96 -0.96,-0.96 -0.24,0 -0.44,-0.2 -0.44,-0.44 0,-0.24 0.2,-0.44 0.44,-0.44 1.03,0 1.86,0.83 1.86,1.85 0,0.25 -0.2,0.45 -0.44,0.45l0 0 0 0 0 0 0 0z"/>
   </g>
   <g>
    <path fill="#FBB457" fill-rule="nonzero" d="M13.89 18.33c-0.24,0 -0.44,-0.2 -0.44,-0.44 0,-0.24 0.2,-0.44 0.44,-0.44 0.53,0 0.96,-0.43 0.96,-0.96 0,-0.25 0.2,-0.44 0.44,-0.44 0.25,0 0.45,0.2 0.45,0.44 0,1.02 -0.83,1.85 -1.86,1.85l0 0 0 0 0 0 0 0z"/>
   </g>
   <g>
    <path fill="#FBB457" fill-rule="nonzero" d="M13.89 18.33l-7.79 0c-0.24,0 -0.44,-0.2 -0.44,-0.44 0,-0.24 0.2,-0.44 0.44,-0.44l7.79 0c0.25,0 0.45,0.2 0.45,0.44 0,0.25 -0.2,0.44 -0.45,0.44z"/>
   </g>
   <g>
    <path fill="#FBB457" fill-rule="nonzero" d="M4.69 16.92c-0.24,0 -0.44,-0.2 -0.44,-0.44l0 -12.95c0,-0.24 0.2,-0.44 0.44,-0.44 0.25,0 0.45,0.2 0.45,0.44l0 12.95c0,0.25 -0.2,0.44 -0.45,0.44z"/>
   </g>
   <g>
    <path fill="#FBB457" fill-rule="nonzero" d="M13.89 2.56l-7.79 0c-0.25,0 -0.45,-0.2 -0.45,-0.44 0,-0.24 0.2,-0.44 0.45,-0.44l7.79 0c0.24,0 0.44,0.2 0.44,0.44 0,0.25 -0.2,0.44 -0.44,0.44z"/>
   </g>
   <g>
    <path fill="#FBB457" fill-rule="nonzero" d="M15.3 16.92c-0.25,0 -0.45,-0.2 -0.45,-0.44l0 -12.95c0,-0.25 0.2,-0.45 0.45,-0.45 0.24,0 0.44,0.2 0.44,0.45l0 12.95c0,0.25 -0.2,0.44 -0.44,0.44z"/>
   </g>
   <g>
    <path fill="#FBB457" fill-rule="nonzero" d="M10 17.05c-0.58,0 -1.06,-0.47 -1.06,-1.05 0,-0.58 0.47,-1.05 1.06,-1.05 0.58,0 1.05,0.47 1.05,1.05 0,0.58 -0.47,1.05 -1.05,1.05zm0 -1.66l0 0c-0.33,0 -0.61,0.27 -0.61,0.61 0,0.33 0.27,0.61 0.61,0.61 0.33,0 0.61,-0.27 0.61,-0.61 0,-0.33 -0.27,-0.61 -0.61,-0.61z"/>
   </g>
  </g>
 </g>
</svg>
