<?xml version="1.0" encoding="UTF-8"?>
<!DOCTYPE svg PUBLIC "-//W3C//DTD SVG 1.1//EN" "http://www.w3.org/Graphics/SVG/1.1/DTD/svg11.dtd">
<!-- Creator: CorelDRAW 2019 (64-Bit) -->
<svg xmlns="http://www.w3.org/2000/svg" xml:space="preserve" width="0.0199921in" height="0.0199921in" version="1.1" shape-rendering="geometricPrecision" text-rendering="geometricPrecision" image-rendering="optimizeQuality" fill-rule="evenodd" clip-rule="evenodd"
viewBox="0 0 19.99 19.99"
 xmlns:xlink="http://www.w3.org/1999/xlink"
 xmlns:xodm="http://www.corel.com/coreldraw/odm/2003">
 <g id="Layer_x0020_1">
  <metadata id="CorelCorpID_0Corel-Layer"/>
  <rect fill="none" x="-0.01" y="-0" width="20" height="20"/>
  <g id="_2315237975120">
   <path fill="#4AC6EE" d="M10.45 13.82l0 0c-0.8,0.05 -1.19,0.11 -1.93,0.17 0,-0.74 0,-1.14 0,-1.87 0.8,-0.07 1.13,-0.12 1.93,-0.17 0,0.74 0,1.08 0,1.88l0 0 0 0 0 0 0 0zm-1.99 -1.78l0 0c0,0.8 0,1.2 0,2 0.8,-0.06 1.19,-0.12 2.06,-0.22 0,-0.8 0,-1.15 0,-1.94 -0.8,0.06 -1.2,0.11 -2.06,0.17l0 0 0 -0zm7.19 1.2l0 0c-0.74,0.06 -1.08,0.11 -1.88,0.17 0,-0.74 0,-1.09 0,-1.83 0.74,-0.06 1.14,-0.06 1.88,-0.17 0,0.74 0,1.08 0,1.83l0 0 0 0zm-1.94 -1.65l0 0c0,0.74 0,1.08 0.06,1.88 0.74,-0.06 1.14,-0.11 1.94,-0.17 0,-0.8 0,-1.19 0,-1.93 -0.8,0.12 -1.2,0.12 -2,0.23l0 0 0 -0 0 0 0 0zm1.77 1.43l0 0c-0.57,0.06 -0.91,0.11 -1.48,0.17 0,0.06 0,0.06 0,0.11 0.57,-0.06 0.91,-0.11 1.48,-0.17 0,-0.06 0,-0.06 0,-0.11l0 0zm-0.4 -0.06l0 0c0.06,0 0.11,0 0.11,0 0,-0.34 0,-0.51 0,-0.85 0.11,0 0.17,0 0.29,0 -0.11,-0.23 -0.23,-0.35 -0.35,-0.52 -0.11,0.22 -0.17,0.35 -0.28,0.57 0.11,-0.06 0.17,-0.06 0.22,-0.06 0,0.34 0,0.51 0,0.85l0 0 0 0 0 0zm-0.85 0.06c0.06,0 0.06,0 0.11,0 0,-0.35 0,-0.52 0,-0.86 0.11,0 0.17,0 0.28,0 -0.11,-0.17 -0.23,-0.28 -0.34,-0.51 -0.11,0.23 -0.17,0.34 -0.28,0.57 0.06,0 0.12,0 0.23,0 0,0.28 0,0.45 0,0.8l0 0 0 0 0 0 0 0zm-1.15 0.51l0 0c-0.74,0.06 -1.13,0.11 -1.93,0.17 0.06,-0.74 0.06,-1.14 0.06,-1.82 0.74,-0.11 1.14,-0.11 1.88,-0.17 0,0.68 0,1.02 0,1.82l0 0 0 0zm-1.93 -1.71l0 0c0,0.74 0,1.14 -0.06,1.93 0.86,-0.05 1.25,-0.11 2.05,-0.22 0,-0.8 0,-1.14 0,-1.88 -0.8,0.06 -1.19,0.11 -1.99,0.17l0 0 0 0 0 0 0 0zm0.91 1.02c0,0.23 0,0.28 0,0.52 -0.17,0 -0.23,0 -0.4,0 0,0.06 0,0.06 0,0.11 0.4,0 0.57,-0.06 0.91,-0.06 0,-0.06 0,-0.12 0,-0.12 -0.17,0 -0.23,0 -0.4,0 0,-0.17 0,-0.28 0,-0.45 0.28,-0.06 0.45,-0.28 0.45,-0.57l0 -0.4c-0.4,0.06 -0.63,0.06 -1.03,0.11l0 0.4c0,0.28 0.17,0.46 0.46,0.46l0 0 0 0 0 -0 0 0zm-2.63 0.74c0,0.06 -0.05,0.11 -0.11,0.11 -0.06,0 -0.06,-0.06 -0.06,-0.11 0,0 0,0 0,-0.06 0,-0.06 -0.06,-0.06 -0.06,-0.06 -0.06,0 -0.11,0.06 -0.11,0.06 0,0.06 0,0.06 0,0.11 0,0.11 0.11,0.17 0.23,0.17 0.11,0 0.23,-0.12 0.23,-0.23 0,-0.23 0,-0.39 0,-0.63 0.28,0 0.46,-0.06 0.8,-0.06 -0.06,-0.41 -0.4,-0.63 -0.8,-0.63 0,0 0,0 0,-0.06 0,-0.06 -0.06,-0.06 -0.06,-0.06 -0.06,0 -0.06,0.06 -0.06,0.06 0,0.06 0,0.06 0,0.11 -0.4,0.06 -0.68,0.34 -0.74,0.74 0.29,-0.06 0.46,-0.06 0.74,-0.12 0,0.29 0,0.4 0,0.63l0 0 0 0 0 0 0 0zm-7.76 -8.2l8.1 -0.4 6.39 0.34 -0.06 0 -8.33 0.45 -5.99 -0.4 -0.11 0 0 0 0 0 0 0zm6.05 0.52l0 9.06 -6.05 -1.08 0 -8.38 6.05 0.4 0 0zm8.44 -0.46l0 8.55 -8.39 1.02 0.06 0 0 -9.11 2.4 -0.11 0.06 2.45 0.28 -0.46 0.34 0.46 0.17 -0.46 0.29 0.4 0.17 -0.45 0.29 0.45 0.17 -0.51 0.23 0.45 0 -2.45 3.94 -0.23 0 0 0 0 0 0z"/>
   <g>
    <path fill="#4AC6EE" fill-rule="nonzero" d="M16 10.3l0 0c-1.11,0 -2.01,-0.9 -2.01,-2.01 0,-1.11 0.9,-2.01 2.01,-2.01 1.11,0 2.01,0.9 2.01,2.01 0,1.11 -0.9,2.01 -2.01,2.01z"/>
    <path fill="#FEFEFE" fill-rule="nonzero" d="M18.28 8.36l0 0c-0.13,-0.12 -0.15,-0.32 -0.04,-0.46l0.04 -0.05 -0.06 -0.03c-0.16,-0.09 -0.22,-0.28 -0.14,-0.44l0.03 -0.06 -0.06 -0.02c-0.17,-0.04 -0.28,-0.22 -0.24,-0.39l0.02 -0.06 -0.07 0c-0.18,-0 -0.32,-0.15 -0.33,-0.33l0 -0.06 0 0c-0.21,0.05 -0.42,-0.08 -0.47,-0.29l0 0 0 0c-0.19,0.1 -0.43,0.02 -0.52,-0.17l0 0 0 0c-0.17,0.14 -0.41,0.12 -0.55,-0.04 -0.11,0.17 -0.33,0.2 -0.49,0.07l0 0 0 0c-0.07,0.19 -0.28,0.27 -0.46,0.18l0 0 0 0c-0.03,0.19 -0.22,0.32 -0.41,0.27 0.01,0.2 -0.15,0.35 -0.35,0.35l0 0c0.05,0.19 -0.07,0.38 -0.27,0.41l0 0 0 0c0.09,0.17 0,0.39 -0.18,0.46l0 0 0 0c0.12,0.15 0.09,0.38 -0.07,0.48l0 0 0.05 0.04c0.13,0.12 0.15,0.32 0.03,0.46l-0.04 0.05 0.06 0.03c0.16,0.08 0.22,0.28 0.14,0.44l-0.03 0.06 0.06 0.02c0.17,0.05 0.28,0.22 0.24,0.39l-0.01 0.06 0.06 0c0.18,0 0.32,0.15 0.33,0.33l0 0.07 0.06 -0.02c0.18,-0.04 0.35,0.07 0.39,0.24l0.02 0.06 0.06 -0.03c0.16,-0.08 0.35,-0.02 0.44,0.14l0.03 0.06 0.05 -0.04c0.14,-0.11 0.34,-0.1 0.46,0.04l0.04 0.05 0 0c0.11,-0.17 0.33,-0.2 0.48,-0.07l0 0 0 0c0.07,-0.19 0.28,-0.26 0.46,-0.18l0 0 0 0c0.03,-0.19 0.22,-0.31 0.41,-0.27l0 0c-0.01,-0.2 0.15,-0.35 0.35,-0.35l0 0 0 0c-0.05,-0.19 0.07,-0.38 0.27,-0.41l0 0 0 -0c-0.09,-0.17 -0.01,-0.39 0.17,-0.46l0 0 0 0c-0.12,-0.15 -0.09,-0.38 0.07,-0.48l0 0 -0.05 -0.04 0 0 0 0z"/>
    <path fill="#4AC6EE" fill-rule="nonzero" d="M16 6.46l0 0c-1.01,0 -1.83,0.82 -1.83,1.83 0,1.01 0.82,1.84 1.83,1.84 1.02,0 1.84,-0.83 1.84,-1.84 0,-1.01 -0.82,-1.83 -1.84,-1.83z"/>
    <path fill="#FEFEFE" fill-rule="nonzero" d="M16.67 7.55l-1.35 0c-0.04,0 -0.08,-0.04 -0.08,-0.08 0,-0.05 0.04,-0.09 0.08,-0.09l1.35 0c0.05,0 0.08,0.04 0.08,0.09 0,0.04 -0.04,0.08 -0.08,0.08zm0 0.41l-1.35 0c-0.04,0 -0.08,-0.04 -0.08,-0.08 0,-0.05 0.04,-0.08 0.08,-0.08l1.35 0c0.05,0 0.08,0.04 0.08,0.08 0,0.04 -0.04,0.08 -0.08,0.08zm0 0.41l-1.35 0c-0.04,0 -0.08,-0.04 -0.08,-0.08 0,-0.05 0.04,-0.08 0.08,-0.08l1.35 0c0.05,0 0.08,0.04 0.08,0.08 0,0.04 -0.04,0.08 -0.08,0.08zm0 0.41l-1.35 0c-0.04,0 -0.08,-0.04 -0.08,-0.08 0,-0.05 0.04,-0.08 0.08,-0.08l1.35 0c0.05,0 0.08,0.04 0.08,0.08 0,0.05 -0.04,0.08 -0.08,0.08zm0 0.41l-1.35 0c-0.04,0 -0.08,-0.04 -0.08,-0.08 0,-0.05 0.04,-0.08 0.08,-0.08l1.35 0c0.05,0 0.08,0.04 0.08,0.08 0,0.05 -0.04,0.08 -0.08,0.08zm0.2 -2.15l-1.74 0c-0.07,0 -0.12,0.04 -0.15,0.1 -0.01,0.02 -0.02,0.04 -0.02,0.07l0 2.15c0,0.09 0.07,0.17 0.17,0.17l1.74 0c0.02,0 0.05,-0 0.07,-0.01 0.06,-0.03 0.1,-0.09 0.1,-0.15l0 -2.15c0,-0.09 -0.07,-0.17 -0.17,-0.17z"/>
   </g>
  </g>
 </g>
</svg>
