<?xml version="1.0" encoding="UTF-8"?>
<!DOCTYPE svg PUBLIC "-//W3C//DTD SVG 1.1//EN" "http://www.w3.org/Graphics/SVG/1.1/DTD/svg11.dtd">
<!-- Creator: CorelDRAW 2019 (64-Bit) -->
<svg xmlns="http://www.w3.org/2000/svg" xml:space="preserve" width="0.0199921in" height="0.0199921in" version="1.1" shape-rendering="geometricPrecision" text-rendering="geometricPrecision" image-rendering="optimizeQuality" fill-rule="evenodd" clip-rule="evenodd"
viewBox="0 0 19.99 19.99"
 xmlns:xlink="http://www.w3.org/1999/xlink"
 xmlns:xodm="http://www.corel.com/coreldraw/odm/2003">
 <g id="Layer_x0020_1">
  <metadata id="CorelCorpID_0Corel-Layer"/>
  <rect fill="none" x="-0.01" y="-0" width="20" height="20"/>
  <path fill="#23d9a6" d="M11.77 14.39l0 0c-0.92,0.06 -1.37,0.13 -2.22,0.19 0,-0.85 0,-1.31 0,-2.16 0.91,-0.07 1.31,-0.13 2.22,-0.2 0,0.85 0,1.24 0,2.17l0 0 0 -0 0 0 0 0zm-2.3 -2.04l0 0c0,0.92 0,1.38 0,2.3 0.92,-0.07 1.38,-0.14 2.37,-0.26 0,-0.92 0,-1.31 0,-2.23 -0.93,0.07 -1.38,0.13 -2.37,0.19l0 0 0 0 0 0 0 0zm8.27 1.38l0 0c-0.85,0.06 -1.24,0.13 -2.17,0.2 0,-0.85 0,-1.25 0,-2.1 0.85,-0.06 1.31,-0.06 2.17,-0.2 0,0.86 0,1.24 0,2.1l0 0 0 0zm-2.23 -1.9l0 0c0,0.85 0,1.24 0.06,2.17 0.85,-0.06 1.31,-0.13 2.23,-0.2 0,-0.92 0,-1.37 0,-2.22 -0.92,0.13 -1.38,0.13 -2.29,0.26l0 0 -0 0 0 0 0 0zm2.04 1.64l0 0c-0.66,0.06 -1.05,0.13 -1.71,0.2 0,0.06 0,0.06 0,0.13 0.66,-0.06 1.05,-0.13 1.71,-0.2 0,-0.06 0,-0.06 0,-0.13l0 0zm-0.46 -0.07l0 0c0.06,0 0.13,0 0.13,0 0,-0.39 0,-0.59 0,-0.98 0.13,0 0.2,0 0.33,0 -0.13,-0.27 -0.27,-0.4 -0.4,-0.59 -0.13,0.26 -0.19,0.4 -0.32,0.66 0.13,-0.06 0.19,-0.06 0.26,-0.06 0,0.39 0,0.58 0,0.98l0 0 0 0 0 0zm-0.98 0.07c0.06,0 0.06,0 0.13,0 0,-0.4 0,-0.59 0,-0.98 0.13,0 0.2,0 0.32,0 -0.13,-0.2 -0.26,-0.33 -0.39,-0.59 -0.13,0.26 -0.19,0.39 -0.33,0.65 0.07,0 0.14,0 0.27,0 0,0.32 0,0.52 0,0.92l0 0 0 0 0 0 0 0zm-1.32 0.59l0 0c-0.85,0.06 -1.31,0.13 -2.22,0.19 0.06,-0.85 0.06,-1.31 0.06,-2.1 0.85,-0.13 1.31,-0.13 2.16,-0.19 0,0.79 0,1.18 0,2.1l0 0 0 0zm-2.22 -1.97l0 0c0,0.86 0,1.31 -0.07,2.23 0.99,-0.06 1.44,-0.13 2.37,-0.26 0,-0.92 0,-1.31 0,-2.17 -0.92,0.07 -1.37,0.13 -2.3,0.19l0 0 0 0 0 0 0 0zm1.05 1.18c0,0.26 0,0.33 0,0.59 -0.2,0 -0.27,0 -0.46,0 0,0.07 0,0.07 0,0.13 0.46,0 0.65,-0.06 1.05,-0.06 0,-0.07 0,-0.14 0,-0.14 -0.2,0 -0.27,0 -0.46,0 0,-0.2 0,-0.32 0,-0.52 0.32,-0.06 0.52,-0.33 0.52,-0.65l0 -0.46c-0.46,0.07 -0.72,0.07 -1.18,0.13l0 0.46c0,0.32 0.2,0.52 0.53,0.52l0 0 0 0 0 0 0 0zm-3.02 0.85c0,0.07 -0.06,0.13 -0.13,0.13 -0.06,0 -0.06,-0.06 -0.06,-0.13 0,0 0,0 0,-0.06 0,-0.07 -0.07,-0.07 -0.07,-0.07 -0.06,0 -0.13,0.07 -0.13,0.07 0,0.06 0,0.06 0,0.13 0,0.13 0.13,0.2 0.26,0.2 0.13,0 0.26,-0.14 0.26,-0.27 0,-0.26 0,-0.46 0,-0.72 0.33,0 0.53,-0.06 0.92,-0.06 -0.07,-0.47 -0.46,-0.72 -0.92,-0.72 0,0 0,0 0,-0.07 0,-0.07 -0.06,-0.07 -0.06,-0.07 -0.07,0 -0.07,0.07 -0.07,0.07 0,0.07 0,0.07 0,0.13 -0.46,0.07 -0.79,0.39 -0.85,0.85 0.33,-0.06 0.53,-0.06 0.85,-0.13 0,0.33 0,0.46 0,0.72l0 0 0 0 0 0 0 0zm-8.92 -9.44l9.32 -0.46 7.34 0.39 -0.06 0 -9.58 0.52 -6.89 -0.46 -0.13 0 0 0 0 0 0 0zm6.96 0.59l0 10.42 -6.96 -1.24 0 -9.63 6.96 0.46 0 -0zm9.7 -0.53l0 9.83 -9.64 1.18 0.07 0 0 -10.48 2.76 -0.13 0.06 2.82 0.33 -0.53 0.39 0.53 0.2 -0.53 0.33 0.46 0.19 -0.52 0.33 0.52 0.2 -0.58 0.26 0.52 0 -2.82 4.53 -0.26 0 0 0 0 0 0z"/>
 </g>
</svg>
