<?xml version="1.0" encoding="UTF-8"?>
<!DOCTYPE svg PUBLIC "-//W3C//DTD SVG 1.1//EN" "http://www.w3.org/Graphics/SVG/1.1/DTD/svg11.dtd">
<!-- Creator: CorelDRAW 2019 (64-Bit) -->
<svg xmlns="http://www.w3.org/2000/svg" xml:space="preserve" width="0.0199921in" height="0.0199921in" version="1.1" shape-rendering="geometricPrecision" text-rendering="geometricPrecision" image-rendering="optimizeQuality" fill-rule="evenodd" clip-rule="evenodd"
viewBox="0 0 19.99 19.99"
 xmlns:xlink="http://www.w3.org/1999/xlink"
 xmlns:xodm="http://www.corel.com/coreldraw/odm/2003">
 <g id="Layer_x0020_1">
  <metadata id="CorelCorpID_0Corel-Layer"/>
  <rect fill="none" x="-0.01" y="-0" width="20" height="20"/>
  <g id="_2315011601792">
   <path fill="#FBB457" fill-rule="nonzero" d="M9.47 1.74c0.73,-0.26 1.72,0.16 1.69,1.03 0,2.81 0.02,5.63 -0.01,8.44 -0.06,0.96 -1.41,1.3 -2.05,0.67 -0.4,-0.33 -0.35,-0.88 -0.36,-1.34 0.02,-2.59 -0.01,-5.19 0.02,-7.78 -0.01,-0.45 0.3,-0.86 0.71,-1.02l0 0 0 0z"/>
   <path fill="#FBB457" fill-rule="nonzero" d="M2.53 10.78c0,-2.92 1.93,-5.64 4.59,-6.77 0.01,0.76 0.01,1.52 0,2.28 -1.42,0.94 -2.45,2.5 -2.54,4.22 -0.17,1.82 0.69,3.68 2.15,4.76 1.64,1.26 4.02,1.44 5.83,0.45 1.63,-0.85 2.75,-2.58 2.87,-4.42 0.17,-2.02 -0.93,-4 -2.63,-5.06 -0.01,-0.76 -0.01,-1.51 -0,-2.26 1.72,0.74 3.2,2.08 3.98,3.79 0.92,1.95 0.92,4.3 0.02,6.25 -0.99,2.2 -3.12,3.87 -5.52,4.24 -1.38,0.08 -2.84,0.16 -4.13,-0.45 -2.79,-1.11 -4.72,-4.04 -4.62,-7.04l0 0 0 0z"/>
  </g>
 </g>
</svg>
